<svg width="171" height="38" viewBox="0 0 171 38" fill="none" xmlns="http://www.w3.org/2000/svg">
<path d="M153.651 1.01052H17.6512C17.6512 1.01052 3.15122 0.010519 1.15122 17.5105C-0.848784 35.0105 17.6512 36.5105 17.6512 36.5105H153.651C153.651 36.5105 170.151 35.0105 170.151 18.5105C170.151 2.01052 153.651 1.01052 153.651 1.01052Z" fill="#3070C7" stroke="#3070C7"/>
<path d="M59.9824 23L63.2812 14.4102H64.5059L68.0215 23H66.7266L65.7246 20.3984H62.1328L61.1895 23H59.9824ZM62.4609 19.4727H65.373L64.4766 17.0938C64.2031 16.3711 64 15.7773 63.8672 15.3125C63.7578 15.8633 63.6035 16.4102 63.4043 16.9531L62.4609 19.4727ZM72.832 23V22.2148C72.4375 22.832 71.8574 23.1406 71.0918 23.1406C70.5957 23.1406 70.1387 23.0039 69.7207 22.7305C69.3066 22.457 68.9844 22.0762 68.7539 21.5879C68.5273 21.0957 68.4141 20.5312 68.4141 19.8945C68.4141 19.2734 68.5176 18.7109 68.7246 18.207C68.9316 17.6992 69.2422 17.3105 69.6562 17.041C70.0703 16.7715 70.5332 16.6367 71.0449 16.6367C71.4199 16.6367 71.7539 16.7168 72.0469 16.877C72.3398 17.0332 72.5781 17.2383 72.7617 17.4922V14.4102H73.8105V23H72.832ZM69.498 19.8945C69.498 20.6914 69.666 21.2871 70.002 21.6816C70.3379 22.0762 70.7344 22.2734 71.1914 22.2734C71.6523 22.2734 72.043 22.0859 72.3633 21.7109C72.6875 21.332 72.8496 20.7559 72.8496 19.9824C72.8496 19.1309 72.6855 18.5059 72.3574 18.1074C72.0293 17.709 71.625 17.5098 71.1445 17.5098C70.6758 17.5098 70.2832 17.7012 69.9668 18.084C69.6543 18.4668 69.498 19.0703 69.498 19.8945ZM79.5117 23V22.2148C79.1172 22.832 78.5371 23.1406 77.7715 23.1406C77.2754 23.1406 76.8184 23.0039 76.4004 22.7305C75.9863 22.457 75.6641 22.0762 75.4336 21.5879C75.207 21.0957 75.0938 20.5312 75.0938 19.8945C75.0938 19.2734 75.1973 18.7109 75.4043 18.207C75.6113 17.6992 75.9219 17.3105 76.3359 17.041C76.75 16.7715 77.2129 16.6367 77.7246 16.6367C78.0996 16.6367 78.4336 16.7168 78.7266 16.877C79.0195 17.0332 79.2578 17.2383 79.4414 17.4922V14.4102H80.4902V23H79.5117ZM76.1777 19.8945C76.1777 20.6914 76.3457 21.2871 76.6816 21.6816C77.0176 22.0762 77.4141 22.2734 77.8711 22.2734C78.332 22.2734 78.7227 22.0859 79.043 21.7109C79.3672 21.332 79.5293 20.7559 79.5293 19.9824C79.5293 19.1309 79.3652 18.5059 79.0371 18.1074C78.709 17.709 78.3047 17.5098 77.8242 17.5098C77.3555 17.5098 76.9629 17.7012 76.6465 18.084C76.334 18.4668 76.1777 19.0703 76.1777 19.8945ZM87.7969 22.0566L87.9492 22.9883C87.6523 23.0508 87.3867 23.082 87.1523 23.082C86.7695 23.082 86.4727 23.0215 86.2617 22.9004C86.0508 22.7793 85.9023 22.6211 85.8164 22.4258C85.7305 22.2266 85.6875 21.8105 85.6875 21.1777V17.5977H84.9141V16.7773H85.6875V15.2363L86.7363 14.6035V16.7773H87.7969V17.5977H86.7363V21.2363C86.7363 21.5371 86.7539 21.7305 86.7891 21.8164C86.8281 21.9023 86.8887 21.9707 86.9707 22.0215C87.0566 22.0723 87.1777 22.0977 87.334 22.0977C87.4512 22.0977 87.6055 22.084 87.7969 22.0566ZM88.4414 19.8887C88.4414 18.7363 88.7617 17.8828 89.4023 17.3281C89.9375 16.8672 90.5898 16.6367 91.3594 16.6367C92.2148 16.6367 92.9141 16.918 93.457 17.4805C94 18.0391 94.2715 18.8125 94.2715 19.8008C94.2715 20.6016 94.1504 21.2324 93.9082 21.6934C93.6699 22.1504 93.3203 22.5059 92.8594 22.7598C92.4023 23.0137 91.9023 23.1406 91.3594 23.1406C90.4883 23.1406 89.7832 22.8613 89.2441 22.3027C88.709 21.7441 88.4414 20.9395 88.4414 19.8887ZM89.5254 19.8887C89.5254 20.6855 89.6992 21.2832 90.0469 21.6816C90.3945 22.0762 90.832 22.2734 91.3594 22.2734C91.8828 22.2734 92.3184 22.0742 92.666 21.6758C93.0137 21.2773 93.1875 20.6699 93.1875 19.8535C93.1875 19.084 93.0117 18.502 92.6602 18.1074C92.3125 17.709 91.8789 17.5098 91.3594 17.5098C90.832 17.5098 90.3945 17.707 90.0469 18.1016C89.6992 18.4961 89.5254 19.0918 89.5254 19.8887ZM102.914 20.7207L103.951 20.8555C103.838 21.5703 103.547 22.1309 103.078 22.5371C102.613 22.9395 102.041 23.1406 101.361 23.1406C100.51 23.1406 99.8242 22.8633 99.3047 22.3086C98.7891 21.75 98.5312 20.9512 98.5312 19.9121C98.5312 19.2402 98.6426 18.6523 98.8652 18.1484C99.0879 17.6445 99.4258 17.2676 99.8789 17.0176C100.336 16.7637 100.832 16.6367 101.367 16.6367C102.043 16.6367 102.596 16.8086 103.025 17.1523C103.455 17.4922 103.73 17.9766 103.852 18.6055L102.826 18.7637C102.729 18.3457 102.555 18.0312 102.305 17.8203C102.059 17.6094 101.76 17.5039 101.408 17.5039C100.877 17.5039 100.445 17.6953 100.113 18.0781C99.7812 18.457 99.6152 19.0586 99.6152 19.8828C99.6152 20.7188 99.7754 21.3262 100.096 21.7051C100.416 22.084 100.834 22.2734 101.35 22.2734C101.764 22.2734 102.109 22.1465 102.387 21.8926C102.664 21.6387 102.84 21.248 102.914 20.7207ZM108.914 22.2324C108.523 22.5645 108.146 22.7988 107.783 22.9355C107.424 23.0723 107.037 23.1406 106.623 23.1406C105.939 23.1406 105.414 22.9746 105.047 22.6426C104.68 22.3066 104.496 21.8789 104.496 21.3594C104.496 21.0547 104.564 20.7773 104.701 20.5273C104.842 20.2734 105.023 20.0703 105.246 19.918C105.473 19.7656 105.727 19.6504 106.008 19.5723C106.215 19.5176 106.527 19.4648 106.945 19.4141C107.797 19.3125 108.424 19.1914 108.826 19.0508C108.83 18.9062 108.832 18.8145 108.832 18.7754C108.832 18.3457 108.732 18.043 108.533 17.8672C108.264 17.6289 107.863 17.5098 107.332 17.5098C106.836 17.5098 106.469 17.5977 106.23 17.7734C105.996 17.9453 105.822 18.252 105.709 18.6934L104.678 18.5527C104.771 18.1113 104.926 17.7559 105.141 17.4863C105.355 17.2129 105.666 17.0039 106.072 16.8594C106.479 16.7109 106.949 16.6367 107.484 16.6367C108.016 16.6367 108.447 16.6992 108.779 16.8242C109.111 16.9492 109.355 17.1074 109.512 17.2988C109.668 17.4863 109.777 17.7246 109.84 18.0137C109.875 18.1934 109.893 18.5176 109.893 18.9863V20.3926C109.893 21.373 109.914 21.9941 109.957 22.2559C110.004 22.5137 110.094 22.7617 110.227 23H109.125C109.016 22.7812 108.945 22.5254 108.914 22.2324ZM108.826 19.877C108.443 20.0332 107.869 20.166 107.104 20.2754C106.67 20.3379 106.363 20.4082 106.184 20.4863C106.004 20.5645 105.865 20.6797 105.768 20.832C105.67 20.9805 105.621 21.1465 105.621 21.3301C105.621 21.6113 105.727 21.8457 105.938 22.0332C106.152 22.2207 106.465 22.3145 106.875 22.3145C107.281 22.3145 107.643 22.2266 107.959 22.0508C108.275 21.8711 108.508 21.627 108.656 21.3184C108.77 21.0801 108.826 20.7285 108.826 20.2637V19.877ZM111.521 23V16.7773H112.471V17.7207C112.713 17.2793 112.936 16.9883 113.139 16.8477C113.346 16.707 113.572 16.6367 113.818 16.6367C114.174 16.6367 114.535 16.75 114.902 16.9766L114.539 17.9551C114.281 17.8027 114.023 17.7266 113.766 17.7266C113.535 17.7266 113.328 17.7969 113.145 17.9375C112.961 18.0742 112.83 18.2656 112.752 18.5117C112.635 18.8867 112.576 19.2969 112.576 19.7422V23H111.521ZM117.832 22.0566L117.984 22.9883C117.688 23.0508 117.422 23.082 117.188 23.082C116.805 23.082 116.508 23.0215 116.297 22.9004C116.086 22.7793 115.938 22.6211 115.852 22.4258C115.766 22.2266 115.723 21.8105 115.723 21.1777V17.5977H114.949V16.7773H115.723V15.2363L116.771 14.6035V16.7773H117.832V17.5977H116.771V21.2363C116.771 21.5371 116.789 21.7305 116.824 21.8164C116.863 21.9023 116.924 21.9707 117.006 22.0215C117.092 22.0723 117.213 22.0977 117.369 22.0977C117.486 22.0977 117.641 22.084 117.832 22.0566Z" fill="white"/>
</svg>
