<svg width="308" height="34" viewBox="0 0 308 34" fill="none" xmlns="http://www.w3.org/2000/svg">
<path d="M293.549 1H14.5494C14.5494 1 2.04944 2 1.04944 16C0.0494444 30 14.5494 33 14.5494 33H293.549C293.549 33 307.049 30 306.549 16C306.05 2 293.549 1 293.549 1Z" fill="#007DC6" stroke="#007DC6"/>
<path d="M97.9258 21V12.4102H101.166C101.736 12.4102 102.172 12.4375 102.473 12.4922C102.895 12.5625 103.248 12.6973 103.533 12.8965C103.818 13.0918 104.047 13.3672 104.219 13.7227C104.395 14.0781 104.482 14.4688 104.482 14.8945C104.482 15.625 104.25 16.2441 103.785 16.752C103.32 17.2559 102.48 17.5078 101.266 17.5078H99.0625V21H97.9258ZM99.0625 16.4941H101.283C102.018 16.4941 102.539 16.3574 102.848 16.084C103.156 15.8105 103.311 15.4258 103.311 14.9297C103.311 14.5703 103.219 14.2637 103.035 14.0098C102.855 13.752 102.617 13.582 102.32 13.5C102.129 13.4492 101.775 13.4238 101.26 13.4238H99.0625V16.4941ZM105.783 21V14.7773H106.732V15.7207C106.975 15.2793 107.197 14.9883 107.4 14.8477C107.607 14.707 107.834 14.6367 108.08 14.6367C108.436 14.6367 108.797 14.75 109.164 14.9766L108.801 15.9551C108.543 15.8027 108.285 15.7266 108.027 15.7266C107.797 15.7266 107.59 15.7969 107.406 15.9375C107.223 16.0742 107.092 16.2656 107.014 16.5117C106.896 16.8867 106.838 17.2969 106.838 17.7422V21H105.783ZM109.398 17.8887C109.398 16.7363 109.719 15.8828 110.359 15.3281C110.895 14.8672 111.547 14.6367 112.316 14.6367C113.172 14.6367 113.871 14.918 114.414 15.4805C114.957 16.0391 115.229 16.8125 115.229 17.8008C115.229 18.6016 115.107 19.2324 114.865 19.6934C114.627 20.1504 114.277 20.5059 113.816 20.7598C113.359 21.0137 112.859 21.1406 112.316 21.1406C111.445 21.1406 110.74 20.8613 110.201 20.3027C109.666 19.7441 109.398 18.9395 109.398 17.8887ZM110.482 17.8887C110.482 18.6855 110.656 19.2832 111.004 19.6816C111.352 20.0762 111.789 20.2734 112.316 20.2734C112.84 20.2734 113.275 20.0742 113.623 19.6758C113.971 19.2773 114.145 18.6699 114.145 17.8535C114.145 17.084 113.969 16.502 113.617 16.1074C113.27 15.709 112.836 15.5098 112.316 15.5098C111.789 15.5098 111.352 15.707 111.004 16.1016C110.656 16.4961 110.482 17.0918 110.482 17.8887ZM120.531 18.7207L121.568 18.8555C121.455 19.5703 121.164 20.1309 120.695 20.5371C120.23 20.9395 119.658 21.1406 118.979 21.1406C118.127 21.1406 117.441 20.8633 116.922 20.3086C116.406 19.75 116.148 18.9512 116.148 17.9121C116.148 17.2402 116.26 16.6523 116.482 16.1484C116.705 15.6445 117.043 15.2676 117.496 15.0176C117.953 14.7637 118.449 14.6367 118.984 14.6367C119.66 14.6367 120.213 14.8086 120.643 15.1523C121.072 15.4922 121.348 15.9766 121.469 16.6055L120.443 16.7637C120.346 16.3457 120.172 16.0312 119.922 15.8203C119.676 15.6094 119.377 15.5039 119.025 15.5039C118.494 15.5039 118.062 15.6953 117.73 16.0781C117.398 16.457 117.232 17.0586 117.232 17.8828C117.232 18.7188 117.393 19.3262 117.713 19.7051C118.033 20.084 118.451 20.2734 118.967 20.2734C119.381 20.2734 119.727 20.1465 120.004 19.8926C120.281 19.6387 120.457 19.248 120.531 18.7207ZM126.73 18.9961L127.82 19.1309C127.648 19.7676 127.33 20.2617 126.865 20.6133C126.4 20.9648 125.807 21.1406 125.084 21.1406C124.174 21.1406 123.451 20.8613 122.916 20.3027C122.385 19.7402 122.119 18.9531 122.119 17.9414C122.119 16.8945 122.389 16.082 122.928 15.5039C123.467 14.9258 124.166 14.6367 125.025 14.6367C125.857 14.6367 126.537 14.9199 127.064 15.4863C127.592 16.0527 127.855 16.8496 127.855 17.877C127.855 17.9395 127.854 18.0332 127.85 18.1582H123.209C123.248 18.8418 123.441 19.3652 123.789 19.7285C124.137 20.0918 124.57 20.2734 125.09 20.2734C125.477 20.2734 125.807 20.1719 126.08 19.9688C126.354 19.7656 126.57 19.4414 126.73 18.9961ZM123.268 17.291H126.742C126.695 16.7676 126.562 16.375 126.344 16.1133C126.008 15.707 125.572 15.5039 125.037 15.5039C124.553 15.5039 124.145 15.666 123.812 15.9902C123.484 16.3145 123.303 16.748 123.268 17.291ZM133.41 18.9961L134.5 19.1309C134.328 19.7676 134.01 20.2617 133.545 20.6133C133.08 20.9648 132.486 21.1406 131.764 21.1406C130.854 21.1406 130.131 20.8613 129.596 20.3027C129.064 19.7402 128.799 18.9531 128.799 17.9414C128.799 16.8945 129.068 16.082 129.607 15.5039C130.146 14.9258 130.846 14.6367 131.705 14.6367C132.537 14.6367 133.217 14.9199 133.744 15.4863C134.271 16.0527 134.535 16.8496 134.535 17.877C134.535 17.9395 134.533 18.0332 134.529 18.1582H129.889C129.928 18.8418 130.121 19.3652 130.469 19.7285C130.816 20.0918 131.25 20.2734 131.77 20.2734C132.156 20.2734 132.486 20.1719 132.76 19.9688C133.033 19.7656 133.25 19.4414 133.41 18.9961ZM129.947 17.291H133.422C133.375 16.7676 133.242 16.375 133.023 16.1133C132.688 15.707 132.252 15.5039 131.717 15.5039C131.232 15.5039 130.824 15.666 130.492 15.9902C130.164 16.3145 129.982 16.748 129.947 17.291ZM139.867 21V20.2148C139.473 20.832 138.893 21.1406 138.127 21.1406C137.631 21.1406 137.174 21.0039 136.756 20.7305C136.342 20.457 136.02 20.0762 135.789 19.5879C135.562 19.0957 135.449 18.5312 135.449 17.8945C135.449 17.2734 135.553 16.7109 135.76 16.207C135.967 15.6992 136.277 15.3105 136.691 15.041C137.105 14.7715 137.568 14.6367 138.08 14.6367C138.455 14.6367 138.789 14.7168 139.082 14.877C139.375 15.0332 139.613 15.2383 139.797 15.4922V12.4102H140.846V21H139.867ZM136.533 17.8945C136.533 18.6914 136.701 19.2871 137.037 19.6816C137.373 20.0762 137.77 20.2734 138.227 20.2734C138.688 20.2734 139.078 20.0859 139.398 19.7109C139.723 19.332 139.885 18.7559 139.885 17.9824C139.885 17.1309 139.721 16.5059 139.393 16.1074C139.064 15.709 138.66 15.5098 138.18 15.5098C137.711 15.5098 137.318 15.7012 137.002 16.084C136.689 16.4668 136.533 17.0703 136.533 17.8945ZM148.152 20.0566L148.305 20.9883C148.008 21.0508 147.742 21.082 147.508 21.082C147.125 21.082 146.828 21.0215 146.617 20.9004C146.406 20.7793 146.258 20.6211 146.172 20.4258C146.086 20.2266 146.043 19.8105 146.043 19.1777V15.5977H145.27V14.7773H146.043V13.2363L147.092 12.6035V14.7773H148.152V15.5977H147.092V19.2363C147.092 19.5371 147.109 19.7305 147.145 19.8164C147.184 19.9023 147.244 19.9707 147.326 20.0215C147.412 20.0723 147.533 20.0977 147.689 20.0977C147.807 20.0977 147.961 20.084 148.152 20.0566ZM148.797 17.8887C148.797 16.7363 149.117 15.8828 149.758 15.3281C150.293 14.8672 150.945 14.6367 151.715 14.6367C152.57 14.6367 153.27 14.918 153.812 15.4805C154.355 16.0391 154.627 16.8125 154.627 17.8008C154.627 18.6016 154.506 19.2324 154.264 19.6934C154.025 20.1504 153.676 20.5059 153.215 20.7598C152.758 21.0137 152.258 21.1406 151.715 21.1406C150.844 21.1406 150.139 20.8613 149.6 20.3027C149.064 19.7441 148.797 18.9395 148.797 17.8887ZM149.881 17.8887C149.881 18.6855 150.055 19.2832 150.402 19.6816C150.75 20.0762 151.188 20.2734 151.715 20.2734C152.238 20.2734 152.674 20.0742 153.021 19.6758C153.369 19.2773 153.543 18.6699 153.543 17.8535C153.543 17.084 153.367 16.502 153.016 16.1074C152.668 15.709 152.234 15.5098 151.715 15.5098C151.188 15.5098 150.75 15.707 150.402 16.1016C150.055 16.4961 149.881 17.0918 149.881 17.8887ZM163.27 18.7207L164.307 18.8555C164.193 19.5703 163.902 20.1309 163.434 20.5371C162.969 20.9395 162.396 21.1406 161.717 21.1406C160.865 21.1406 160.18 20.8633 159.66 20.3086C159.145 19.75 158.887 18.9512 158.887 17.9121C158.887 17.2402 158.998 16.6523 159.221 16.1484C159.443 15.6445 159.781 15.2676 160.234 15.0176C160.691 14.7637 161.188 14.6367 161.723 14.6367C162.398 14.6367 162.951 14.8086 163.381 15.1523C163.811 15.4922 164.086 15.9766 164.207 16.6055L163.182 16.7637C163.084 16.3457 162.91 16.0312 162.66 15.8203C162.414 15.6094 162.115 15.5039 161.764 15.5039C161.232 15.5039 160.801 15.6953 160.469 16.0781C160.137 16.457 159.971 17.0586 159.971 17.8828C159.971 18.7188 160.131 19.3262 160.451 19.7051C160.771 20.084 161.189 20.2734 161.705 20.2734C162.119 20.2734 162.465 20.1465 162.742 19.8926C163.02 19.6387 163.195 19.248 163.27 18.7207ZM165.209 21V12.4102H166.264V15.4922C166.756 14.9219 167.377 14.6367 168.127 14.6367C168.588 14.6367 168.988 14.7285 169.328 14.9121C169.668 15.0918 169.91 15.3418 170.055 15.6621C170.203 15.9824 170.277 16.4473 170.277 17.0566V21H169.223V17.0566C169.223 16.5293 169.107 16.1465 168.877 15.9082C168.65 15.666 168.328 15.5449 167.91 15.5449C167.598 15.5449 167.303 15.627 167.025 15.791C166.752 15.9512 166.557 16.1699 166.439 16.4473C166.322 16.7246 166.264 17.1074 166.264 17.5957V21H165.209ZM176.148 18.9961L177.238 19.1309C177.066 19.7676 176.748 20.2617 176.283 20.6133C175.818 20.9648 175.225 21.1406 174.502 21.1406C173.592 21.1406 172.869 20.8613 172.334 20.3027C171.803 19.7402 171.537 18.9531 171.537 17.9414C171.537 16.8945 171.807 16.082 172.346 15.5039C172.885 14.9258 173.584 14.6367 174.443 14.6367C175.275 14.6367 175.955 14.9199 176.482 15.4863C177.01 16.0527 177.273 16.8496 177.273 17.877C177.273 17.9395 177.271 18.0332 177.268 18.1582H172.627C172.666 18.8418 172.859 19.3652 173.207 19.7285C173.555 20.0918 173.988 20.2734 174.508 20.2734C174.895 20.2734 175.225 20.1719 175.498 19.9688C175.771 19.7656 175.988 19.4414 176.148 18.9961ZM172.686 17.291H176.16C176.113 16.7676 175.98 16.375 175.762 16.1133C175.426 15.707 174.99 15.5039 174.455 15.5039C173.971 15.5039 173.562 15.666 173.23 15.9902C172.902 16.3145 172.721 16.748 172.686 17.291ZM182.629 18.7207L183.666 18.8555C183.553 19.5703 183.262 20.1309 182.793 20.5371C182.328 20.9395 181.756 21.1406 181.076 21.1406C180.225 21.1406 179.539 20.8633 179.02 20.3086C178.504 19.75 178.246 18.9512 178.246 17.9121C178.246 17.2402 178.357 16.6523 178.58 16.1484C178.803 15.6445 179.141 15.2676 179.594 15.0176C180.051 14.7637 180.547 14.6367 181.082 14.6367C181.758 14.6367 182.311 14.8086 182.74 15.1523C183.17 15.4922 183.445 15.9766 183.566 16.6055L182.541 16.7637C182.443 16.3457 182.27 16.0312 182.02 15.8203C181.773 15.6094 181.475 15.5039 181.123 15.5039C180.592 15.5039 180.16 15.6953 179.828 16.0781C179.496 16.457 179.33 17.0586 179.33 17.8828C179.33 18.7188 179.49 19.3262 179.811 19.7051C180.131 20.084 180.549 20.2734 181.064 20.2734C181.479 20.2734 181.824 20.1465 182.102 19.8926C182.379 19.6387 182.555 19.248 182.629 18.7207ZM184.574 21V12.4102H185.629V17.3086L188.125 14.7773H189.49L187.111 17.0859L189.73 21H188.43L186.373 17.8184L185.629 18.5332V21H184.574ZM190.176 17.8887C190.176 16.7363 190.496 15.8828 191.137 15.3281C191.672 14.8672 192.324 14.6367 193.094 14.6367C193.949 14.6367 194.648 14.918 195.191 15.4805C195.734 16.0391 196.006 16.8125 196.006 17.8008C196.006 18.6016 195.885 19.2324 195.643 19.6934C195.404 20.1504 195.055 20.5059 194.594 20.7598C194.137 21.0137 193.637 21.1406 193.094 21.1406C192.223 21.1406 191.518 20.8613 190.979 20.3027C190.443 19.7441 190.176 18.9395 190.176 17.8887ZM191.26 17.8887C191.26 18.6855 191.434 19.2832 191.781 19.6816C192.129 20.0762 192.566 20.2734 193.094 20.2734C193.617 20.2734 194.053 20.0742 194.4 19.6758C194.748 19.2773 194.922 18.6699 194.922 17.8535C194.922 17.084 194.746 16.502 194.395 16.1074C194.047 15.709 193.613 15.5098 193.094 15.5098C192.566 15.5098 192.129 15.707 191.781 16.1016C191.434 16.4961 191.26 17.0918 191.26 17.8887ZM201.326 21V20.0859C200.842 20.7891 200.184 21.1406 199.352 21.1406C198.984 21.1406 198.641 21.0703 198.32 20.9297C198.004 20.7891 197.768 20.6133 197.611 20.4023C197.459 20.1875 197.352 19.9258 197.289 19.6172C197.246 19.4102 197.225 19.082 197.225 18.6328V14.7773H198.279V18.2285C198.279 18.7793 198.301 19.1504 198.344 19.3418C198.41 19.6191 198.551 19.8379 198.766 19.998C198.98 20.1543 199.246 20.2324 199.562 20.2324C199.879 20.2324 200.176 20.1523 200.453 19.9922C200.73 19.8281 200.926 19.6074 201.039 19.3301C201.156 19.0488 201.215 18.6426 201.215 18.1113V14.7773H202.27V21H201.326ZM206.23 20.0566L206.383 20.9883C206.086 21.0508 205.82 21.082 205.586 21.082C205.203 21.082 204.906 21.0215 204.695 20.9004C204.484 20.7793 204.336 20.6211 204.25 20.4258C204.164 20.2266 204.121 19.8105 204.121 19.1777V15.5977H203.348V14.7773H204.121V13.2363L205.17 12.6035V14.7773H206.23V15.5977H205.17V19.2363C205.17 19.5371 205.188 19.7305 205.223 19.8164C205.262 19.9023 205.322 19.9707 205.404 20.0215C205.49 20.0723 205.611 20.0977 205.768 20.0977C205.885 20.0977 206.039 20.084 206.23 20.0566Z" fill="white"/>
</svg>
