<svg width="254" height="34" viewBox="0 0 254 34" fill="none" xmlns="http://www.w3.org/2000/svg">
<path d="M242.268 1H12.1743C12.1743 1 1.86548 2 1.04078 16C0.21607 30 12.1743 33 12.1743 33H242.268C242.268 33 253.401 30 252.989 16C252.577 2 242.268 1 242.268 1Z" fill="#3070C7" stroke="#3070C7"/>
<path d="M107.055 18.9883L108.191 19.2754C107.953 20.209 107.523 20.9219 106.902 21.4141C106.285 21.9023 105.529 22.1465 104.635 22.1465C103.709 22.1465 102.955 21.959 102.373 21.584C101.795 21.2051 101.354 20.6582 101.049 19.9434C100.748 19.2285 100.598 18.4609 100.598 17.6406C100.598 16.7461 100.768 15.9668 101.107 15.3027C101.451 14.6348 101.938 14.1289 102.566 13.7852C103.199 13.4375 103.895 13.2637 104.652 13.2637C105.512 13.2637 106.234 13.4824 106.82 13.9199C107.406 14.3574 107.814 14.9727 108.045 15.7656L106.926 16.0293C106.727 15.4043 106.438 14.9492 106.059 14.6641C105.68 14.3789 105.203 14.2363 104.629 14.2363C103.969 14.2363 103.416 14.3945 102.971 14.7109C102.529 15.0273 102.219 15.4531 102.039 15.9883C101.859 16.5195 101.77 17.0684 101.77 17.6348C101.77 18.3652 101.875 19.0039 102.086 19.5508C102.301 20.0938 102.633 20.5 103.082 20.7695C103.531 21.0391 104.018 21.1738 104.541 21.1738C105.178 21.1738 105.717 20.9902 106.158 20.623C106.6 20.2559 106.898 19.7109 107.055 18.9883ZM109.463 22V13.4102H110.518V16.4922C111.01 15.9219 111.631 15.6367 112.381 15.6367C112.842 15.6367 113.242 15.7285 113.582 15.9121C113.922 16.0918 114.164 16.3418 114.309 16.6621C114.457 16.9824 114.531 17.4473 114.531 18.0566V22H113.477V18.0566C113.477 17.5293 113.361 17.1465 113.131 16.9082C112.904 16.666 112.582 16.5449 112.164 16.5449C111.852 16.5449 111.557 16.627 111.279 16.791C111.006 16.9512 110.811 17.1699 110.693 17.4473C110.576 17.7246 110.518 18.1074 110.518 18.5957V22H109.463ZM120.402 19.9961L121.492 20.1309C121.32 20.7676 121.002 21.2617 120.537 21.6133C120.072 21.9648 119.479 22.1406 118.756 22.1406C117.846 22.1406 117.123 21.8613 116.588 21.3027C116.057 20.7402 115.791 19.9531 115.791 18.9414C115.791 17.8945 116.061 17.082 116.6 16.5039C117.139 15.9258 117.838 15.6367 118.697 15.6367C119.529 15.6367 120.209 15.9199 120.736 16.4863C121.264 17.0527 121.527 17.8496 121.527 18.877C121.527 18.9395 121.525 19.0332 121.521 19.1582H116.881C116.92 19.8418 117.113 20.3652 117.461 20.7285C117.809 21.0918 118.242 21.2734 118.762 21.2734C119.148 21.2734 119.479 21.1719 119.752 20.9688C120.025 20.7656 120.242 20.4414 120.402 19.9961ZM116.939 18.291H120.414C120.367 17.7676 120.234 17.375 120.016 17.1133C119.68 16.707 119.244 16.5039 118.709 16.5039C118.225 16.5039 117.816 16.666 117.484 16.9902C117.156 17.3145 116.975 17.748 116.939 18.291ZM126.883 19.7207L127.92 19.8555C127.807 20.5703 127.516 21.1309 127.047 21.5371C126.582 21.9395 126.01 22.1406 125.33 22.1406C124.479 22.1406 123.793 21.8633 123.273 21.3086C122.758 20.75 122.5 19.9512 122.5 18.9121C122.5 18.2402 122.611 17.6523 122.834 17.1484C123.057 16.6445 123.395 16.2676 123.848 16.0176C124.305 15.7637 124.801 15.6367 125.336 15.6367C126.012 15.6367 126.564 15.8086 126.994 16.1523C127.424 16.4922 127.699 16.9766 127.82 17.6055L126.795 17.7637C126.697 17.3457 126.523 17.0312 126.273 16.8203C126.027 16.6094 125.729 16.5039 125.377 16.5039C124.846 16.5039 124.414 16.6953 124.082 17.0781C123.75 17.457 123.584 18.0586 123.584 18.8828C123.584 19.7188 123.744 20.3262 124.064 20.7051C124.385 21.084 124.803 21.2734 125.318 21.2734C125.732 21.2734 126.078 21.1465 126.355 20.8926C126.633 20.6387 126.809 20.248 126.883 19.7207ZM128.828 22V13.4102H129.883V18.3086L132.379 15.7773H133.744L131.365 18.0859L133.984 22H132.684L130.627 18.8184L129.883 19.5332V22H128.828ZM134.43 18.8887C134.43 17.7363 134.75 16.8828 135.391 16.3281C135.926 15.8672 136.578 15.6367 137.348 15.6367C138.203 15.6367 138.902 15.918 139.445 16.4805C139.988 17.0391 140.26 17.8125 140.26 18.8008C140.26 19.6016 140.139 20.2324 139.896 20.6934C139.658 21.1504 139.309 21.5059 138.848 21.7598C138.391 22.0137 137.891 22.1406 137.348 22.1406C136.477 22.1406 135.771 21.8613 135.232 21.3027C134.697 20.7441 134.43 19.9395 134.43 18.8887ZM135.514 18.8887C135.514 19.6855 135.688 20.2832 136.035 20.6816C136.383 21.0762 136.82 21.2734 137.348 21.2734C137.871 21.2734 138.307 21.0742 138.654 20.6758C139.002 20.2773 139.176 19.6699 139.176 18.8535C139.176 18.084 139 17.502 138.648 17.1074C138.301 16.709 137.867 16.5098 137.348 16.5098C136.82 16.5098 136.383 16.707 136.035 17.1016C135.688 17.4961 135.514 18.0918 135.514 18.8887ZM145.58 22V21.0859C145.096 21.7891 144.438 22.1406 143.605 22.1406C143.238 22.1406 142.895 22.0703 142.574 21.9297C142.258 21.7891 142.021 21.6133 141.865 21.4023C141.713 21.1875 141.605 20.9258 141.543 20.6172C141.5 20.4102 141.479 20.082 141.479 19.6328V15.7773H142.533V19.2285C142.533 19.7793 142.555 20.1504 142.598 20.3418C142.664 20.6191 142.805 20.8379 143.02 20.998C143.234 21.1543 143.5 21.2324 143.816 21.2324C144.133 21.2324 144.43 21.1523 144.707 20.9922C144.984 20.8281 145.18 20.6074 145.293 20.3301C145.41 20.0488 145.469 19.6426 145.469 19.1113V15.7773H146.523V22H145.58ZM150.484 21.0566L150.637 21.9883C150.34 22.0508 150.074 22.082 149.84 22.082C149.457 22.082 149.16 22.0215 148.949 21.9004C148.738 21.7793 148.59 21.6211 148.504 21.4258C148.418 21.2266 148.375 20.8105 148.375 20.1777V16.5977H147.602V15.7773H148.375V14.2363L149.424 13.6035V15.7773H150.484V16.5977H149.424V20.2363C149.424 20.5371 149.441 20.7305 149.477 20.8164C149.516 20.9023 149.576 20.9707 149.658 21.0215C149.744 21.0723 149.865 21.0977 150.021 21.0977C150.139 21.0977 150.293 21.084 150.484 21.0566Z" fill="white"/>
</svg>
