<svg width="170" height="37" viewBox="0 0 170 37" fill="none" xmlns="http://www.w3.org/2000/svg">
<path d="M152.612 1.01037H17.5379C17.5379 1.01037 3.13658 0.0247445 1.15019 17.2732C-0.836201 34.5216 17.5379 36 17.5379 36H152.612C152.612 36 169 34.5216 169 18.2588C169 1.99599 152.612 1.01037 152.612 1.01037Z" stroke="#333333" stroke-width="1.5"/>
<path d="M51.9844 23V14.4102H57.7793V15.4238H53.1211V18.084H57.1523V19.0977H53.1211V23H51.9844ZM59.1328 15.623V14.4102H60.1875V15.623H59.1328ZM59.1328 23V16.7773H60.1875V23H59.1328ZM61.7988 23V16.7773H62.748V17.6621C63.2051 16.9785 63.8652 16.6367 64.7285 16.6367C65.1035 16.6367 65.4473 16.7051 65.7598 16.8418C66.0762 16.9746 66.3125 17.1504 66.4688 17.3691C66.625 17.5879 66.7344 17.8477 66.7969 18.1484C66.8359 18.3438 66.8555 18.6855 66.8555 19.1738V23H65.8008V19.2148C65.8008 18.7852 65.7598 18.4648 65.6777 18.2539C65.5957 18.0391 65.4492 17.8691 65.2383 17.7441C65.0312 17.6152 64.7871 17.5508 64.5059 17.5508C64.0566 17.5508 63.668 17.6934 63.3398 17.9785C63.0156 18.2637 62.8535 18.8047 62.8535 19.6016V23H61.7988ZM72.5156 23V22.2148C72.1211 22.832 71.541 23.1406 70.7754 23.1406C70.2793 23.1406 69.8223 23.0039 69.4043 22.7305C68.9902 22.457 68.668 22.0762 68.4375 21.5879C68.2109 21.0957 68.0977 20.5312 68.0977 19.8945C68.0977 19.2734 68.2012 18.7109 68.4082 18.207C68.6152 17.6992 68.9258 17.3105 69.3398 17.041C69.7539 16.7715 70.2168 16.6367 70.7285 16.6367C71.1035 16.6367 71.4375 16.7168 71.7305 16.877C72.0234 17.0332 72.2617 17.2383 72.4453 17.4922V14.4102H73.4941V23H72.5156ZM69.1816 19.8945C69.1816 20.6914 69.3496 21.2871 69.6855 21.6816C70.0215 22.0762 70.418 22.2734 70.875 22.2734C71.3359 22.2734 71.7266 22.0859 72.0469 21.7109C72.3711 21.332 72.5332 20.7559 72.5332 19.9824C72.5332 19.1309 72.3691 18.5059 72.041 18.1074C71.7129 17.709 71.3086 17.5098 70.8281 17.5098C70.3594 17.5098 69.9668 17.7012 69.6504 18.084C69.3379 18.4668 69.1816 19.0703 69.1816 19.8945ZM78.5039 15.623V14.4102H79.5586V15.623H78.5039ZM78.5039 23V16.7773H79.5586V23H78.5039ZM81.1699 23V16.7773H82.1191V17.6621C82.5762 16.9785 83.2363 16.6367 84.0996 16.6367C84.4746 16.6367 84.8184 16.7051 85.1309 16.8418C85.4473 16.9746 85.6836 17.1504 85.8398 17.3691C85.9961 17.5879 86.1055 17.8477 86.168 18.1484C86.207 18.3438 86.2266 18.6855 86.2266 19.1738V23H85.1719V19.2148C85.1719 18.7852 85.1309 18.4648 85.0488 18.2539C84.9668 18.0391 84.8203 17.8691 84.6094 17.7441C84.4023 17.6152 84.1582 17.5508 83.877 17.5508C83.4277 17.5508 83.0391 17.6934 82.7109 17.9785C82.3867 18.2637 82.2246 18.8047 82.2246 19.6016V23H81.1699ZM90.7676 21.1426L91.8105 20.9785C91.8691 21.3965 92.0312 21.7168 92.2969 21.9395C92.5664 22.1621 92.9414 22.2734 93.4219 22.2734C93.9062 22.2734 94.2656 22.1758 94.5 21.9805C94.7344 21.7812 94.8516 21.5488 94.8516 21.2832C94.8516 21.0449 94.748 20.8574 94.541 20.7207C94.3965 20.627 94.0371 20.5078 93.4629 20.3633C92.6895 20.168 92.1523 20 91.8516 19.8594C91.5547 19.7148 91.3281 19.5176 91.1719 19.2676C91.0195 19.0137 90.9434 18.7344 90.9434 18.4297C90.9434 18.1523 91.0059 17.8965 91.1309 17.6621C91.2598 17.4238 91.4336 17.2266 91.6523 17.0703C91.8164 16.9492 92.0391 16.8477 92.3203 16.7656C92.6055 16.6797 92.9102 16.6367 93.2344 16.6367C93.7227 16.6367 94.1504 16.707 94.5176 16.8477C94.8887 16.9883 95.1621 17.1797 95.3379 17.4219C95.5137 17.6602 95.6348 17.9805 95.7012 18.3828L94.6699 18.5234C94.623 18.2031 94.4863 17.9531 94.2598 17.7734C94.0371 17.5938 93.7207 17.5039 93.3105 17.5039C92.8262 17.5039 92.4805 17.584 92.2734 17.7441C92.0664 17.9043 91.9629 18.0918 91.9629 18.3066C91.9629 18.4434 92.0059 18.5664 92.0918 18.6758C92.1777 18.7891 92.3125 18.8828 92.4961 18.957C92.6016 18.9961 92.9121 19.0859 93.4277 19.2266C94.1738 19.4258 94.6934 19.5898 94.9863 19.7188C95.2832 19.8438 95.5156 20.0273 95.6836 20.2695C95.8516 20.5117 95.9355 20.8125 95.9355 21.1719C95.9355 21.5234 95.832 21.8555 95.625 22.168C95.4219 22.4766 95.127 22.7168 94.7402 22.8887C94.3535 23.0566 93.916 23.1406 93.4277 23.1406C92.6191 23.1406 92.002 22.9727 91.5762 22.6367C91.1543 22.3008 90.8848 21.8027 90.7676 21.1426ZM99.4922 22.0566L99.6445 22.9883C99.3477 23.0508 99.082 23.082 98.8477 23.082C98.4648 23.082 98.168 23.0215 97.957 22.9004C97.7461 22.7793 97.5977 22.6211 97.5117 22.4258C97.4258 22.2266 97.3828 21.8105 97.3828 21.1777V17.5977H96.6094V16.7773H97.3828V15.2363L98.4316 14.6035V16.7773H99.4922V17.5977H98.4316V21.2363C98.4316 21.5371 98.4492 21.7305 98.4844 21.8164C98.5234 21.9023 98.584 21.9707 98.666 22.0215C98.752 22.0723 98.873 22.0977 99.0293 22.0977C99.1465 22.0977 99.3008 22.084 99.4922 22.0566ZM100.137 19.8887C100.137 18.7363 100.457 17.8828 101.098 17.3281C101.633 16.8672 102.285 16.6367 103.055 16.6367C103.91 16.6367 104.609 16.918 105.152 17.4805C105.695 18.0391 105.967 18.8125 105.967 19.8008C105.967 20.6016 105.846 21.2324 105.604 21.6934C105.365 22.1504 105.016 22.5059 104.555 22.7598C104.098 23.0137 103.598 23.1406 103.055 23.1406C102.184 23.1406 101.479 22.8613 100.939 22.3027C100.404 21.7441 100.137 20.9395 100.137 19.8887ZM101.221 19.8887C101.221 20.6855 101.395 21.2832 101.742 21.6816C102.09 22.0762 102.527 22.2734 103.055 22.2734C103.578 22.2734 104.014 22.0742 104.361 21.6758C104.709 21.2773 104.883 20.6699 104.883 19.8535C104.883 19.084 104.707 18.502 104.355 18.1074C104.008 17.709 103.574 17.5098 103.055 17.5098C102.527 17.5098 102.09 17.707 101.742 18.1016C101.395 18.4961 101.221 19.0918 101.221 19.8887ZM107.197 23V16.7773H108.146V17.7207C108.389 17.2793 108.611 16.9883 108.814 16.8477C109.021 16.707 109.248 16.6367 109.494 16.6367C109.85 16.6367 110.211 16.75 110.578 16.9766L110.215 17.9551C109.957 17.8027 109.699 17.7266 109.441 17.7266C109.211 17.7266 109.004 17.7969 108.82 17.9375C108.637 18.0742 108.506 18.2656 108.428 18.5117C108.311 18.8867 108.252 19.2969 108.252 19.7422V23H107.197ZM115.465 20.9961L116.555 21.1309C116.383 21.7676 116.064 22.2617 115.6 22.6133C115.135 22.9648 114.541 23.1406 113.818 23.1406C112.908 23.1406 112.186 22.8613 111.65 22.3027C111.119 21.7402 110.854 20.9531 110.854 19.9414C110.854 18.8945 111.123 18.082 111.662 17.5039C112.201 16.9258 112.9 16.6367 113.76 16.6367C114.592 16.6367 115.271 16.9199 115.799 17.4863C116.326 18.0527 116.59 18.8496 116.59 19.877C116.59 19.9395 116.588 20.0332 116.584 20.1582H111.943C111.982 20.8418 112.176 21.3652 112.523 21.7285C112.871 22.0918 113.305 22.2734 113.824 22.2734C114.211 22.2734 114.541 22.1719 114.814 21.9688C115.088 21.7656 115.305 21.4414 115.465 20.9961ZM112.002 19.291H115.477C115.43 18.7676 115.297 18.375 115.078 18.1133C114.742 17.707 114.307 17.5039 113.771 17.5039C113.287 17.5039 112.879 17.666 112.547 17.9902C112.219 18.3145 112.037 18.748 112.002 19.291Z" fill="#333333"/>
</svg>
