<svg width="254" height="34" viewBox="0 0 254 34" fill="none" xmlns="http://www.w3.org/2000/svg">
<path d="M242.268 1H12.1743C12.1743 1 1.86548 2 1.04078 16C0.21607 30 12.1743 33 12.1743 33H242.268C242.268 33 253.401 30 252.989 16C252.577 2 242.268 1 242.268 1Z" stroke="black" stroke-width="1.5"/>
<path d="M81.0547 18.9883L82.1914 19.2754C81.9531 20.209 81.5234 20.9219 80.9023 21.4141C80.2852 21.9023 79.5293 22.1465 78.6348 22.1465C77.709 22.1465 76.9551 21.959 76.373 21.584C75.7949 21.2051 75.3535 20.6582 75.0488 19.9434C74.748 19.2285 74.5977 18.4609 74.5977 17.6406C74.5977 16.7461 74.7676 15.9668 75.1074 15.3027C75.4512 14.6348 75.9375 14.1289 76.5664 13.7852C77.1992 13.4375 77.8945 13.2637 78.6523 13.2637C79.5117 13.2637 80.2344 13.4824 80.8203 13.9199C81.4062 14.3574 81.8145 14.9727 82.0449 15.7656L80.9258 16.0293C80.7266 15.4043 80.4375 14.9492 80.0586 14.6641C79.6797 14.3789 79.2031 14.2363 78.6289 14.2363C77.9688 14.2363 77.416 14.3945 76.9707 14.7109C76.5293 15.0273 76.2188 15.4531 76.0391 15.9883C75.8594 16.5195 75.7695 17.0684 75.7695 17.6348C75.7695 18.3652 75.875 19.0039 76.0859 19.5508C76.3008 20.0938 76.6328 20.5 77.082 20.7695C77.5312 21.0391 78.0176 21.1738 78.541 21.1738C79.1777 21.1738 79.7168 20.9902 80.1582 20.623C80.5996 20.2559 80.8984 19.7109 81.0547 18.9883ZM83.0703 18.8887C83.0703 17.7363 83.3906 16.8828 84.0312 16.3281C84.5664 15.8672 85.2188 15.6367 85.9883 15.6367C86.8438 15.6367 87.543 15.918 88.0859 16.4805C88.6289 17.0391 88.9004 17.8125 88.9004 18.8008C88.9004 19.6016 88.7793 20.2324 88.5371 20.6934C88.2988 21.1504 87.9492 21.5059 87.4883 21.7598C87.0312 22.0137 86.5312 22.1406 85.9883 22.1406C85.1172 22.1406 84.4121 21.8613 83.873 21.3027C83.3379 20.7441 83.0703 19.9395 83.0703 18.8887ZM84.1543 18.8887C84.1543 19.6855 84.3281 20.2832 84.6758 20.6816C85.0234 21.0762 85.4609 21.2734 85.9883 21.2734C86.5117 21.2734 86.9473 21.0742 87.2949 20.6758C87.6426 20.2773 87.8164 19.6699 87.8164 18.8535C87.8164 18.084 87.6406 17.502 87.2891 17.1074C86.9414 16.709 86.5078 16.5098 85.9883 16.5098C85.4609 16.5098 85.0234 16.707 84.6758 17.1016C84.3281 17.4961 84.1543 18.0918 84.1543 18.8887ZM90.1426 22V15.7773H91.0918V16.6621C91.5488 15.9785 92.209 15.6367 93.0723 15.6367C93.4473 15.6367 93.791 15.7051 94.1035 15.8418C94.4199 15.9746 94.6562 16.1504 94.8125 16.3691C94.9688 16.5879 95.0781 16.8477 95.1406 17.1484C95.1797 17.3438 95.1992 17.6855 95.1992 18.1738V22H94.1445V18.2148C94.1445 17.7852 94.1035 17.4648 94.0215 17.2539C93.9395 17.0391 93.793 16.8691 93.582 16.7441C93.375 16.6152 93.1309 16.5508 92.8496 16.5508C92.4004 16.5508 92.0117 16.6934 91.6836 16.9785C91.3594 17.2637 91.1973 17.8047 91.1973 18.6016V22H90.1426ZM99.125 21.0566L99.2773 21.9883C98.9805 22.0508 98.7148 22.082 98.4805 22.082C98.0977 22.082 97.8008 22.0215 97.5898 21.9004C97.3789 21.7793 97.2305 21.6211 97.1445 21.4258C97.0586 21.2266 97.0156 20.8105 97.0156 20.1777V16.5977H96.2422V15.7773H97.0156V14.2363L98.0645 13.6035V15.7773H99.125V16.5977H98.0645V20.2363C98.0645 20.5371 98.082 20.7305 98.1172 20.8164C98.1562 20.9023 98.2168 20.9707 98.2988 21.0215C98.3848 21.0723 98.5059 21.0977 98.6621 21.0977C98.7793 21.0977 98.9336 21.084 99.125 21.0566ZM100.168 14.623V13.4102H101.223V14.623H100.168ZM100.168 22V15.7773H101.223V22H100.168ZM102.834 22V15.7773H103.783V16.6621C104.24 15.9785 104.9 15.6367 105.764 15.6367C106.139 15.6367 106.482 15.7051 106.795 15.8418C107.111 15.9746 107.348 16.1504 107.504 16.3691C107.66 16.5879 107.77 16.8477 107.832 17.1484C107.871 17.3438 107.891 17.6855 107.891 18.1738V22H106.836V18.2148C106.836 17.7852 106.795 17.4648 106.713 17.2539C106.631 17.0391 106.484 16.8691 106.273 16.7441C106.066 16.6152 105.822 16.5508 105.541 16.5508C105.092 16.5508 104.703 16.6934 104.375 16.9785C104.051 17.2637 103.889 17.8047 103.889 18.6016V22H102.834ZM113.592 22V21.0859C113.107 21.7891 112.449 22.1406 111.617 22.1406C111.25 22.1406 110.906 22.0703 110.586 21.9297C110.27 21.7891 110.033 21.6133 109.877 21.4023C109.725 21.1875 109.617 20.9258 109.555 20.6172C109.512 20.4102 109.49 20.082 109.49 19.6328V15.7773H110.545V19.2285C110.545 19.7793 110.566 20.1504 110.609 20.3418C110.676 20.6191 110.816 20.8379 111.031 20.998C111.246 21.1543 111.512 21.2324 111.828 21.2324C112.145 21.2324 112.441 21.1523 112.719 20.9922C112.996 20.8281 113.191 20.6074 113.305 20.3301C113.422 20.0488 113.48 19.6426 113.48 19.1113V15.7773H114.535V22H113.592ZM120.453 19.9961L121.543 20.1309C121.371 20.7676 121.053 21.2617 120.588 21.6133C120.123 21.9648 119.529 22.1406 118.807 22.1406C117.896 22.1406 117.174 21.8613 116.639 21.3027C116.107 20.7402 115.842 19.9531 115.842 18.9414C115.842 17.8945 116.111 17.082 116.65 16.5039C117.189 15.9258 117.889 15.6367 118.748 15.6367C119.58 15.6367 120.26 15.9199 120.787 16.4863C121.314 17.0527 121.578 17.8496 121.578 18.877C121.578 18.9395 121.576 19.0332 121.572 19.1582H116.932C116.971 19.8418 117.164 20.3652 117.512 20.7285C117.859 21.0918 118.293 21.2734 118.812 21.2734C119.199 21.2734 119.529 21.1719 119.803 20.9688C120.076 20.7656 120.293 20.4414 120.453 19.9961ZM116.99 18.291H120.465C120.418 17.7676 120.285 17.375 120.066 17.1133C119.73 16.707 119.295 16.5039 118.76 16.5039C118.275 16.5039 117.867 16.666 117.535 16.9902C117.207 17.3145 117.025 17.748 116.99 18.291ZM125.961 19.2402L127.033 19.1465C127.084 19.5762 127.201 19.9297 127.385 20.207C127.572 20.4805 127.861 20.7031 128.252 20.875C128.643 21.043 129.082 21.127 129.57 21.127C130.004 21.127 130.387 21.0625 130.719 20.9336C131.051 20.8047 131.297 20.6289 131.457 20.4062C131.621 20.1797 131.703 19.9336 131.703 19.668C131.703 19.3984 131.625 19.1641 131.469 18.9648C131.312 18.7617 131.055 18.5918 130.695 18.4551C130.465 18.3652 129.955 18.2266 129.166 18.0391C128.377 17.8477 127.824 17.668 127.508 17.5C127.098 17.2852 126.791 17.0195 126.588 16.7031C126.389 16.3828 126.289 16.0254 126.289 15.6309C126.289 15.1973 126.412 14.793 126.658 14.418C126.904 14.0391 127.264 13.752 127.736 13.5566C128.209 13.3613 128.734 13.2637 129.312 13.2637C129.949 13.2637 130.51 13.3672 130.994 13.5742C131.482 13.7773 131.857 14.0781 132.119 14.4766C132.381 14.875 132.521 15.3262 132.541 15.8301L131.451 15.9121C131.393 15.3691 131.193 14.959 130.854 14.6816C130.518 14.4043 130.02 14.2656 129.359 14.2656C128.672 14.2656 128.17 14.3926 127.854 14.6465C127.541 14.8965 127.385 15.1992 127.385 15.5547C127.385 15.8633 127.496 16.1172 127.719 16.3164C127.938 16.5156 128.508 16.7207 129.43 16.9316C130.355 17.1387 130.99 17.3203 131.334 17.4766C131.834 17.707 132.203 18 132.441 18.3555C132.68 18.707 132.799 19.1133 132.799 19.5742C132.799 20.0312 132.668 20.4629 132.406 20.8691C132.145 21.2715 131.768 21.5859 131.275 21.8125C130.787 22.0352 130.236 22.1465 129.623 22.1465C128.846 22.1465 128.193 22.0332 127.666 21.8066C127.143 21.5801 126.73 21.2402 126.43 20.7871C126.133 20.3301 125.977 19.8145 125.961 19.2402ZM134.217 22V13.4102H135.271V16.4922C135.764 15.9219 136.385 15.6367 137.135 15.6367C137.596 15.6367 137.996 15.7285 138.336 15.9121C138.676 16.0918 138.918 16.3418 139.062 16.6621C139.211 16.9824 139.285 17.4473 139.285 18.0566V22H138.23V18.0566C138.23 17.5293 138.115 17.1465 137.885 16.9082C137.658 16.666 137.336 16.5449 136.918 16.5449C136.605 16.5449 136.311 16.627 136.033 16.791C135.76 16.9512 135.564 17.1699 135.447 17.4473C135.33 17.7246 135.271 18.1074 135.271 18.5957V22H134.217ZM140.504 18.8887C140.504 17.7363 140.824 16.8828 141.465 16.3281C142 15.8672 142.652 15.6367 143.422 15.6367C144.277 15.6367 144.977 15.918 145.52 16.4805C146.062 17.0391 146.334 17.8125 146.334 18.8008C146.334 19.6016 146.213 20.2324 145.971 20.6934C145.732 21.1504 145.383 21.5059 144.922 21.7598C144.465 22.0137 143.965 22.1406 143.422 22.1406C142.551 22.1406 141.846 21.8613 141.307 21.3027C140.771 20.7441 140.504 19.9395 140.504 18.8887ZM141.588 18.8887C141.588 19.6855 141.762 20.2832 142.109 20.6816C142.457 21.0762 142.895 21.2734 143.422 21.2734C143.945 21.2734 144.381 21.0742 144.729 20.6758C145.076 20.2773 145.25 19.6699 145.25 18.8535C145.25 18.084 145.074 17.502 144.723 17.1074C144.375 16.709 143.941 16.5098 143.422 16.5098C142.895 16.5098 142.457 16.707 142.109 17.1016C141.762 17.4961 141.588 18.0918 141.588 18.8887ZM147.576 24.3848V15.7773H148.537V16.5859C148.764 16.2695 149.02 16.0332 149.305 15.877C149.59 15.7168 149.936 15.6367 150.342 15.6367C150.873 15.6367 151.342 15.7734 151.748 16.0469C152.154 16.3203 152.461 16.707 152.668 17.207C152.875 17.7031 152.979 18.248 152.979 18.8418C152.979 19.4785 152.863 20.0527 152.633 20.5645C152.406 21.0723 152.074 21.4629 151.637 21.7363C151.203 22.0059 150.746 22.1406 150.266 22.1406C149.914 22.1406 149.598 22.0664 149.316 21.918C149.039 21.7695 148.811 21.582 148.631 21.3555V24.3848H147.576ZM148.531 18.9238C148.531 19.7246 148.693 20.3164 149.018 20.6992C149.342 21.082 149.734 21.2734 150.195 21.2734C150.664 21.2734 151.064 21.0762 151.396 20.6816C151.732 20.2832 151.9 19.668 151.9 18.8359C151.9 18.043 151.736 17.4492 151.408 17.0547C151.084 16.6602 150.695 16.4629 150.242 16.4629C149.793 16.4629 149.395 16.6738 149.047 17.0957C148.703 17.5137 148.531 18.123 148.531 18.9238ZM154.256 24.3848V15.7773H155.217V16.5859C155.443 16.2695 155.699 16.0332 155.984 15.877C156.27 15.7168 156.615 15.6367 157.021 15.6367C157.553 15.6367 158.021 15.7734 158.428 16.0469C158.834 16.3203 159.141 16.707 159.348 17.207C159.555 17.7031 159.658 18.248 159.658 18.8418C159.658 19.4785 159.543 20.0527 159.312 20.5645C159.086 21.0723 158.754 21.4629 158.316 21.7363C157.883 22.0059 157.426 22.1406 156.945 22.1406C156.594 22.1406 156.277 22.0664 155.996 21.918C155.719 21.7695 155.49 21.582 155.311 21.3555V24.3848H154.256ZM155.211 18.9238C155.211 19.7246 155.373 20.3164 155.697 20.6992C156.021 21.082 156.414 21.2734 156.875 21.2734C157.344 21.2734 157.744 21.0762 158.076 20.6816C158.412 20.2832 158.58 19.668 158.58 18.8359C158.58 18.043 158.416 17.4492 158.088 17.0547C157.764 16.6602 157.375 16.4629 156.922 16.4629C156.473 16.4629 156.074 16.6738 155.727 17.0957C155.383 17.5137 155.211 18.123 155.211 18.9238ZM160.941 14.623V13.4102H161.996V14.623H160.941ZM160.941 22V15.7773H161.996V22H160.941ZM163.607 22V15.7773H164.557V16.6621C165.014 15.9785 165.674 15.6367 166.537 15.6367C166.912 15.6367 167.256 15.7051 167.568 15.8418C167.885 15.9746 168.121 16.1504 168.277 16.3691C168.434 16.5879 168.543 16.8477 168.605 17.1484C168.645 17.3438 168.664 17.6855 168.664 18.1738V22H167.609V18.2148C167.609 17.7852 167.568 17.4648 167.486 17.2539C167.404 17.0391 167.258 16.8691 167.047 16.7441C166.84 16.6152 166.596 16.5508 166.314 16.5508C165.865 16.5508 165.477 16.6934 165.148 16.9785C164.824 17.2637 164.662 17.8047 164.662 18.6016V22H163.607ZM170.094 22.5156L171.119 22.668C171.162 22.9844 171.281 23.2148 171.477 23.3594C171.738 23.5547 172.096 23.6523 172.549 23.6523C173.037 23.6523 173.414 23.5547 173.68 23.3594C173.945 23.1641 174.125 22.8906 174.219 22.5391C174.273 22.3242 174.299 21.873 174.295 21.1855C173.834 21.7285 173.26 22 172.572 22C171.717 22 171.055 21.6914 170.586 21.0742C170.117 20.457 169.883 19.7168 169.883 18.8535C169.883 18.2598 169.99 17.7129 170.205 17.2129C170.42 16.709 170.73 16.3203 171.137 16.0469C171.547 15.7734 172.027 15.6367 172.578 15.6367C173.312 15.6367 173.918 15.9336 174.395 16.5273V15.7773H175.367V21.1562C175.367 22.125 175.268 22.8105 175.068 23.2129C174.873 23.6191 174.561 23.9395 174.131 24.1738C173.705 24.4082 173.18 24.5254 172.555 24.5254C171.812 24.5254 171.213 24.3574 170.756 24.0215C170.299 23.6895 170.078 23.1875 170.094 22.5156ZM170.967 18.7773C170.967 19.5938 171.129 20.1895 171.453 20.5645C171.777 20.9395 172.184 21.127 172.672 21.127C173.156 21.127 173.562 20.9414 173.891 20.5703C174.219 20.1953 174.383 19.6094 174.383 18.8125C174.383 18.0508 174.213 17.4766 173.873 17.0898C173.537 16.7031 173.131 16.5098 172.654 16.5098C172.186 16.5098 171.787 16.7012 171.459 17.084C171.131 17.4629 170.967 18.0273 170.967 18.7773Z" fill="#333333"/>
</svg>
