<svg width="338" height="92" viewBox="0 0 338 92" fill="none" xmlns="http://www.w3.org/2000/svg">
<g filter="url(#filter0_d)">
<rect x="20" y="12" width="298" height="52" rx="4" fill="#007DC6"/>
</g>
<path d="M140.451 42.498C140.883 42.858 141.369 43.152 141.909 43.38C142.449 43.608 143.079 43.722 143.799 43.722C144.663 43.722 145.347 43.542 145.851 43.182C146.355 42.822 146.607 42.336 146.607 41.724C146.607 41.472 146.571 41.238 146.499 41.022C146.427 40.806 146.283 40.602 146.067 40.41C145.863 40.206 145.569 40.008 145.185 39.816C144.813 39.612 144.327 39.396 143.727 39.168C143.079 38.916 142.527 38.67 142.071 38.43C141.627 38.178 141.267 37.908 140.991 37.62C140.715 37.32 140.517 36.996 140.397 36.648C140.277 36.288 140.217 35.88 140.217 35.424C140.217 34.98 140.307 34.56 140.487 34.164C140.679 33.768 140.955 33.426 141.315 33.138C141.687 32.838 142.137 32.604 142.665 32.436C143.205 32.268 143.817 32.184 144.501 32.184C145.245 32.184 145.911 32.262 146.499 32.418C147.087 32.562 147.669 32.772 148.245 33.048L147.615 34.506C147.207 34.266 146.727 34.068 146.175 33.912C145.635 33.744 145.065 33.66 144.465 33.66C143.673 33.66 143.049 33.816 142.593 34.128C142.137 34.428 141.909 34.83 141.909 35.334C141.909 35.574 141.939 35.79 141.999 35.982C142.071 36.162 142.203 36.342 142.395 36.522C142.599 36.69 142.875 36.864 143.223 37.044C143.583 37.224 144.057 37.422 144.645 37.638C145.341 37.902 145.929 38.172 146.409 38.448C146.889 38.724 147.273 39.018 147.561 39.33C147.849 39.642 148.053 39.978 148.173 40.338C148.305 40.698 148.371 41.094 148.371 41.526C148.371 42.114 148.257 42.636 148.029 43.092C147.801 43.548 147.483 43.938 147.075 44.262C146.679 44.574 146.199 44.814 145.635 44.982C145.071 45.138 144.459 45.216 143.799 45.216C142.923 45.216 142.125 45.102 141.405 44.874C140.685 44.634 140.079 44.322 139.587 43.938L140.451 42.498ZM159.087 45.09C158.511 45.09 158.055 44.976 157.719 44.748C157.383 44.52 157.149 44.19 157.017 43.758C156.597 44.19 156.111 44.544 155.559 44.82C155.019 45.084 154.425 45.216 153.777 45.216C153.369 45.216 152.973 45.15 152.589 45.018C152.217 44.898 151.881 44.7 151.581 44.424C151.293 44.148 151.059 43.788 150.879 43.344C150.711 42.9 150.627 42.36 150.627 41.724V35.64H152.247V41.508C152.247 42.24 152.397 42.804 152.697 43.2C153.009 43.584 153.471 43.776 154.083 43.776C154.587 43.776 155.067 43.68 155.523 43.488C155.979 43.284 156.387 43.014 156.747 42.678V35.64H158.367V42.57C158.367 42.834 158.397 43.05 158.457 43.218C158.517 43.374 158.595 43.5 158.691 43.596C158.787 43.68 158.901 43.74 159.033 43.776C159.165 43.812 159.297 43.83 159.429 43.83L159.087 45.09ZM161.581 31.68H163.201V36.612C163.321 36.48 163.471 36.342 163.651 36.198C163.831 36.054 164.029 35.928 164.245 35.82C164.473 35.7 164.725 35.604 165.001 35.532C165.277 35.46 165.577 35.424 165.901 35.424C166.441 35.424 166.957 35.532 167.449 35.748C167.953 35.964 168.391 36.276 168.763 36.684C169.147 37.092 169.453 37.596 169.681 38.196C169.909 38.796 170.023 39.474 170.023 40.23C170.023 40.974 169.903 41.652 169.663 42.264C169.423 42.876 169.105 43.404 168.709 43.848C168.313 44.28 167.857 44.616 167.341 44.856C166.837 45.096 166.321 45.216 165.793 45.216C165.253 45.216 164.743 45.12 164.263 44.928C163.795 44.736 163.405 44.502 163.093 44.226V45H161.581V31.68ZM168.367 40.284C168.367 39.744 168.289 39.264 168.133 38.844C167.989 38.412 167.785 38.046 167.521 37.746C167.269 37.446 166.969 37.218 166.621 37.062C166.285 36.906 165.925 36.828 165.541 36.828C165.025 36.828 164.557 36.96 164.137 37.224C163.729 37.476 163.417 37.752 163.201 38.052V43.056C163.477 43.272 163.801 43.446 164.173 43.578C164.545 43.71 164.941 43.776 165.361 43.776C165.793 43.776 166.195 43.692 166.567 43.524C166.939 43.356 167.257 43.122 167.521 42.822C167.785 42.51 167.989 42.144 168.133 41.724C168.289 41.292 168.367 40.812 168.367 40.284ZM173.834 37.206C174.17 36.702 174.59 36.282 175.094 35.946C175.61 35.598 176.204 35.424 176.876 35.424C177.62 35.424 178.226 35.604 178.694 35.964C179.162 36.312 179.498 36.792 179.702 37.404C180.074 36.852 180.512 36.384 181.016 36C181.532 35.616 182.168 35.424 182.924 35.424C183.428 35.424 183.866 35.508 184.238 35.676C184.622 35.844 184.94 36.084 185.192 36.396C185.444 36.696 185.63 37.062 185.75 37.494C185.882 37.914 185.948 38.382 185.948 38.898V45H184.328V39.024C184.328 38.376 184.178 37.854 183.878 37.458C183.578 37.05 183.164 36.846 182.636 36.846C182.36 36.846 182.096 36.9 181.844 37.008C181.592 37.116 181.352 37.266 181.124 37.458C180.896 37.638 180.68 37.854 180.476 38.106C180.272 38.346 180.086 38.598 179.918 38.862V45H178.298V39.024C178.298 38.376 178.148 37.854 177.848 37.458C177.548 37.05 177.134 36.846 176.606 36.846C176.342 36.846 176.084 36.9 175.832 37.008C175.58 37.104 175.334 37.242 175.094 37.422C174.866 37.602 174.65 37.812 174.446 38.052C174.242 38.292 174.056 38.544 173.888 38.808V45H172.268V35.64H173.834V37.206ZM190.359 45H188.739V35.64H190.359V45ZM189.549 34.038C189.237 34.038 188.967 33.93 188.739 33.714C188.523 33.486 188.415 33.216 188.415 32.904C188.415 32.556 188.517 32.28 188.721 32.076C188.925 31.872 189.201 31.77 189.549 31.77C189.861 31.77 190.125 31.884 190.341 32.112C190.569 32.328 190.683 32.592 190.683 32.904C190.683 33.252 190.581 33.528 190.377 33.732C190.173 33.936 189.897 34.038 189.549 34.038ZM193.977 33.03H195.219V35.982H197.811V37.386H195.219V41.904C195.219 42.252 195.255 42.546 195.327 42.786C195.411 43.026 195.519 43.218 195.651 43.362C195.783 43.506 195.939 43.614 196.119 43.686C196.311 43.746 196.509 43.776 196.713 43.776C197.013 43.776 197.295 43.728 197.559 43.632C197.823 43.536 198.075 43.422 198.315 43.29L198.765 44.586C198.525 44.73 198.201 44.868 197.793 45C197.385 45.144 196.959 45.216 196.515 45.216C195.615 45.216 194.901 44.922 194.373 44.334C193.857 43.746 193.599 42.894 193.599 41.778V37.386H191.979V35.982H193.635L193.977 33.03Z" fill="white"/>
<defs>
<filter id="filter0_d" x="0" y="0" width="338" height="92" filterUnits="userSpaceOnUse" color-interpolation-filters="sRGB">
<feFlood flood-opacity="0" result="BackgroundImageFix"/>
<feColorMatrix in="SourceAlpha" type="matrix" values="0 0 0 0 0 0 0 0 0 0 0 0 0 0 0 0 0 0 127 0"/>
<feOffset dy="8"/>
<feGaussianBlur stdDeviation="10"/>
<feColorMatrix type="matrix" values="0 0 0 0 0 0 0 0 0 0 0 0 0 0 0 0 0 0 0.1 0"/>
<feBlend mode="normal" in2="BackgroundImageFix" result="effect1_dropShadow"/>
<feBlend mode="normal" in="SourceGraphic" in2="effect1_dropShadow" result="shape"/>
</filter>
</defs>
</svg>
