<svg width="375" height="347" viewBox="0 0 375 347" fill="none" xmlns="http://www.w3.org/2000/svg">
<g filter="url(#filter0_d)">
<rect y="22" width="375" height="324" fill="white"/>
</g>
<path d="M162.674 224.55L164.014 224.433C164.078 224.97 164.224 225.412 164.454 225.759C164.688 226.101 165.049 226.379 165.538 226.594C166.026 226.804 166.575 226.909 167.186 226.909C167.728 226.909 168.206 226.828 168.621 226.667C169.036 226.506 169.344 226.286 169.544 226.008C169.749 225.725 169.852 225.417 169.852 225.085C169.852 224.748 169.754 224.455 169.559 224.206C169.363 223.952 169.041 223.74 168.592 223.569C168.304 223.457 167.667 223.283 166.68 223.049C165.694 222.81 165.003 222.585 164.607 222.375C164.095 222.106 163.711 221.774 163.458 221.379C163.208 220.979 163.084 220.532 163.084 220.039C163.084 219.497 163.238 218.991 163.545 218.522C163.853 218.049 164.302 217.69 164.893 217.446C165.484 217.202 166.141 217.08 166.863 217.08C167.659 217.08 168.36 217.209 168.965 217.468C169.576 217.722 170.044 218.098 170.372 218.596C170.699 219.094 170.875 219.658 170.899 220.288L169.537 220.39C169.463 219.711 169.214 219.199 168.79 218.852C168.37 218.505 167.747 218.332 166.922 218.332C166.062 218.332 165.435 218.491 165.04 218.808C164.649 219.121 164.454 219.499 164.454 219.943C164.454 220.329 164.593 220.646 164.871 220.896C165.145 221.145 165.857 221.401 167.01 221.665C168.167 221.923 168.96 222.15 169.39 222.346C170.015 222.634 170.477 223 170.774 223.444C171.072 223.884 171.221 224.392 171.221 224.968C171.221 225.539 171.058 226.079 170.73 226.586C170.403 227.089 169.932 227.482 169.317 227.766C168.707 228.044 168.018 228.183 167.251 228.183C166.28 228.183 165.464 228.042 164.805 227.758C164.151 227.475 163.636 227.05 163.26 226.484C162.889 225.913 162.693 225.268 162.674 224.55ZM173.162 228V217.263H177.212C177.925 217.263 178.47 217.297 178.846 217.365C179.373 217.453 179.815 217.622 180.171 217.871C180.528 218.115 180.813 218.459 181.028 218.903C181.248 219.348 181.358 219.836 181.358 220.368C181.358 221.281 181.067 222.055 180.486 222.69C179.905 223.32 178.855 223.635 177.337 223.635H174.583V228H173.162ZM174.583 222.368H177.359C178.277 222.368 178.929 222.197 179.314 221.855C179.7 221.513 179.893 221.032 179.893 220.412C179.893 219.963 179.778 219.58 179.549 219.262C179.324 218.94 179.026 218.728 178.655 218.625C178.416 218.562 177.974 218.53 177.33 218.53H174.583V222.368ZM183.196 228V217.263H190.96V218.53H184.617V221.818H190.557V223.078H184.617V226.733H191.209V228H183.196ZM193.157 228V217.263H194.615L200.254 225.693V217.263H201.617V228H200.159L194.52 219.562V228H193.157ZM206.744 228V218.53H203.206V217.263H211.717V218.53H208.165V228H206.744Z" fill="#404040"/>
<path d="M141.551 198.762V190.578C138.999 189.849 137.124 188.749 135.926 187.277C134.741 185.793 134.148 183.996 134.148 181.887C134.148 179.751 134.819 177.961 136.16 176.516C137.514 175.057 139.311 174.217 141.551 173.996V172.062H144.383V173.996C146.453 174.243 148.1 174.953 149.324 176.125C150.548 177.284 151.329 178.84 151.668 180.793L146.727 181.438C146.427 179.901 145.646 178.859 144.383 178.312V185.949C147.508 186.796 149.637 187.896 150.77 189.25C151.902 190.591 152.469 192.316 152.469 194.426C152.469 196.783 151.753 198.768 150.32 200.383C148.901 201.997 146.922 202.987 144.383 203.352V207.004H141.551V203.449C139.298 203.176 137.469 202.336 136.062 200.93C134.656 199.523 133.758 197.538 133.367 194.973L138.465 194.426C138.673 195.467 139.064 196.366 139.637 197.121C140.21 197.876 140.848 198.423 141.551 198.762ZM141.551 178.254C140.783 178.514 140.171 178.957 139.715 179.582C139.259 180.207 139.031 180.897 139.031 181.652C139.031 182.342 139.24 182.987 139.656 183.586C140.073 184.172 140.704 184.647 141.551 185.012V178.254ZM144.383 199.035C145.359 198.853 146.154 198.404 146.766 197.688C147.378 196.958 147.684 196.105 147.684 195.129C147.684 194.257 147.423 193.508 146.902 192.883C146.395 192.245 145.555 191.757 144.383 191.418V199.035ZM174.5 197.902V203H155.262C155.47 201.073 156.095 199.25 157.137 197.531C158.178 195.799 160.236 193.508 163.309 190.656C165.783 188.352 167.299 186.789 167.859 185.969C168.615 184.836 168.992 183.716 168.992 182.609C168.992 181.385 168.66 180.448 167.996 179.797C167.345 179.133 166.44 178.801 165.281 178.801C164.135 178.801 163.224 179.146 162.547 179.836C161.87 180.526 161.479 181.672 161.375 183.273L155.906 182.727C156.232 179.706 157.254 177.538 158.973 176.223C160.691 174.908 162.84 174.25 165.418 174.25C168.243 174.25 170.464 175.012 172.078 176.535C173.693 178.059 174.5 179.953 174.5 182.219C174.5 183.508 174.266 184.738 173.797 185.91C173.341 187.069 172.612 188.286 171.609 189.562C170.945 190.409 169.747 191.626 168.016 193.215C166.284 194.803 165.184 195.858 164.715 196.379C164.259 196.9 163.888 197.408 163.602 197.902H174.5ZM196.824 181.379L191.512 181.965C191.382 180.871 191.043 180.064 190.496 179.543C189.949 179.022 189.24 178.762 188.367 178.762C187.208 178.762 186.225 179.283 185.418 180.324C184.624 181.366 184.122 183.534 183.914 186.828C185.281 185.214 186.98 184.406 189.012 184.406C191.303 184.406 193.263 185.279 194.891 187.023C196.531 188.768 197.352 191.021 197.352 193.781C197.352 196.711 196.492 199.061 194.773 200.832C193.055 202.603 190.848 203.488 188.152 203.488C185.262 203.488 182.885 202.368 181.023 200.129C179.161 197.876 178.23 194.191 178.23 189.074C178.23 183.827 179.201 180.044 181.141 177.727C183.081 175.409 185.6 174.25 188.699 174.25C190.874 174.25 192.671 174.862 194.09 176.086C195.522 177.297 196.434 179.061 196.824 181.379ZM184.383 193.352C184.383 195.135 184.793 196.516 185.613 197.492C186.434 198.456 187.371 198.938 188.426 198.938C189.441 198.938 190.288 198.54 190.965 197.746C191.642 196.952 191.98 195.65 191.98 193.84C191.98 191.978 191.616 190.617 190.887 189.758C190.158 188.885 189.246 188.449 188.152 188.449C187.098 188.449 186.206 188.866 185.477 189.699C184.747 190.52 184.383 191.737 184.383 193.352ZM209.773 174.25C212.547 174.25 214.715 175.24 216.277 177.219C218.139 179.562 219.07 183.449 219.07 188.879C219.07 194.296 218.133 198.189 216.258 200.559C214.708 202.512 212.547 203.488 209.773 203.488C206.987 203.488 204.741 202.421 203.035 200.285C201.329 198.137 200.477 194.315 200.477 188.82C200.477 183.43 201.414 179.549 203.289 177.18C204.839 175.227 207 174.25 209.773 174.25ZM209.773 178.801C209.109 178.801 208.517 179.016 207.996 179.445C207.475 179.862 207.072 180.617 206.785 181.711C206.408 183.13 206.219 185.52 206.219 188.879C206.219 192.238 206.388 194.549 206.727 195.812C207.065 197.062 207.488 197.896 207.996 198.312C208.517 198.729 209.109 198.938 209.773 198.938C210.438 198.938 211.03 198.729 211.551 198.312C212.072 197.883 212.475 197.121 212.762 196.027C213.139 194.621 213.328 192.238 213.328 188.879C213.328 185.52 213.159 183.215 212.82 181.965C212.482 180.702 212.052 179.862 211.531 179.445C211.023 179.016 210.438 178.801 209.773 178.801ZM232.039 174.25C234.812 174.25 236.98 175.24 238.543 177.219C240.405 179.562 241.336 183.449 241.336 188.879C241.336 194.296 240.398 198.189 238.523 200.559C236.974 202.512 234.812 203.488 232.039 203.488C229.253 203.488 227.007 202.421 225.301 200.285C223.595 198.137 222.742 194.315 222.742 188.82C222.742 183.43 223.68 179.549 225.555 177.18C227.104 175.227 229.266 174.25 232.039 174.25ZM232.039 178.801C231.375 178.801 230.783 179.016 230.262 179.445C229.741 179.862 229.337 180.617 229.051 181.711C228.673 183.13 228.484 185.52 228.484 188.879C228.484 192.238 228.654 194.549 228.992 195.812C229.331 197.062 229.754 197.896 230.262 198.312C230.783 198.729 231.375 198.938 232.039 198.938C232.703 198.938 233.296 198.729 233.816 198.312C234.337 197.883 234.741 197.121 235.027 196.027C235.405 194.621 235.594 192.238 235.594 188.879C235.594 185.52 235.424 183.215 235.086 181.965C234.747 180.702 234.318 179.862 233.797 179.445C233.289 179.016 232.703 178.801 232.039 178.801Z" fill="black"/>
<path d="M211.673 132.444C211.196 134.732 210.701 132.51 210.736 136.337C211.09 132.513 212.345 138.001 215.134 138.816C224.999 141.732 236.937 150.135 245.031 156.48C248.499 159.171 254.692 164.923 256.652 167.252L257.934 168.774L261.66 165.943C263.728 164.356 265.184 164.27 265.193 164.161C265.226 164.082 263.661 160.944 261.5 158.734C252.299 149.291 244.226 141.141 232.381 134.726C225.149 131.429 213.896 125.887 213.08 126.523C212.933 126.647 212.571 128.134 211.673 132.444Z" fill="#F6C143"/>
<path d="M177.459 124.067C138.999 128.128 106.285 155.211 95.0989 192.216C92.7238 200.069 91 210.488 91 217.001V219.797H96.0949H101.228L101.458 215.468C102.186 203.593 104.982 193.059 110.345 182.064C122.565 157.203 145.549 140.08 173.552 135.1C177.842 134.334 179.796 134.219 187.726 134.219C197.302 134.219 199.792 134.487 207.799 136.326C210.94 137.053 211.553 137.322 212.97 138.701C215 140.693 216.456 141.267 219.444 141.267C222.623 141.267 224.807 140.156 226.454 137.743C229.212 133.644 228.101 128.205 223.888 125.446C221.359 123.761 216.954 123.952 214.272 125.791L212.855 126.787L208.182 125.791C205.653 125.217 201.363 124.527 198.681 124.221C193.548 123.608 182.477 123.531 177.459 124.067Z" fill="#007DC6"/>
<path d="M261.191 165.804C259.426 167.179 257.992 168.406 257.955 168.554C257.955 168.703 259.205 170.71 260.75 173.014C266.193 181.191 270.974 192.452 272.996 202.041C273.879 206.129 274.872 214.12 274.872 217.019V218.914L279.359 219.137C281.859 219.248 283.919 219.286 283.992 219.211C284.066 219.174 283.919 216.721 283.698 213.785C282.779 201.26 280.021 190.594 274.835 179.63C271.562 172.791 265.752 163.314 264.759 163.277C264.575 163.277 262.957 164.429 261.191 165.804Z" fill="#B02318"/>
<rect x="146" y="46" width="83" height="5" rx="2.5" fill="black"/>
<path d="M32.3691 111.842L34.0508 112.375C33.793 113.312 33.3633 114.01 32.7617 114.467C32.1641 114.92 31.4043 115.146 30.4824 115.146C29.3418 115.146 28.4043 114.758 27.6699 113.98C26.9355 113.199 26.5684 112.133 26.5684 110.781C26.5684 109.352 26.9375 108.242 27.6758 107.453C28.4141 106.66 29.3848 106.264 30.5879 106.264C31.6387 106.264 32.4922 106.574 33.1484 107.195C33.5391 107.562 33.832 108.09 34.0273 108.777L32.3105 109.188C32.209 108.742 31.9961 108.391 31.6719 108.133C31.3516 107.875 30.9609 107.746 30.5 107.746C29.8633 107.746 29.3457 107.975 28.9473 108.432C28.5527 108.889 28.3555 109.629 28.3555 110.652C28.3555 111.738 28.5508 112.512 28.9414 112.973C29.332 113.434 29.8398 113.664 30.4648 113.664C30.9258 113.664 31.3223 113.518 31.6543 113.225C31.9863 112.932 32.2246 112.471 32.3691 111.842ZM37.0637 110.676L35.5695 110.406C35.7375 109.805 36.0266 109.359 36.4367 109.07C36.8469 108.781 37.4563 108.637 38.2648 108.637C38.9992 108.637 39.5461 108.725 39.9055 108.9C40.2648 109.072 40.5168 109.293 40.6613 109.562C40.8098 109.828 40.884 110.318 40.884 111.033L40.8664 112.955C40.8664 113.502 40.8918 113.906 40.9426 114.168C40.9973 114.426 41.0969 114.703 41.2414 115H39.6125C39.5695 114.891 39.5168 114.729 39.4543 114.514C39.427 114.416 39.4074 114.352 39.3957 114.32C39.1145 114.594 38.8137 114.799 38.4934 114.936C38.173 115.072 37.8313 115.141 37.468 115.141C36.8273 115.141 36.3215 114.967 35.9504 114.619C35.5832 114.271 35.3996 113.832 35.3996 113.301C35.3996 112.949 35.4836 112.637 35.6516 112.363C35.8195 112.086 36.0539 111.875 36.3547 111.73C36.6594 111.582 37.0969 111.453 37.6672 111.344C38.4367 111.199 38.9699 111.064 39.2668 110.939V110.775C39.2668 110.459 39.1887 110.234 39.0324 110.102C38.8762 109.965 38.5813 109.896 38.1477 109.896C37.8547 109.896 37.6262 109.955 37.4621 110.072C37.298 110.186 37.1652 110.387 37.0637 110.676ZM39.2668 112.012C39.0559 112.082 38.7219 112.166 38.2648 112.264C37.8078 112.361 37.509 112.457 37.3684 112.551C37.1535 112.703 37.0461 112.896 37.0461 113.131C37.0461 113.361 37.132 113.561 37.3039 113.729C37.4758 113.896 37.6945 113.98 37.9602 113.98C38.257 113.98 38.5402 113.883 38.8098 113.688C39.009 113.539 39.1398 113.357 39.2023 113.143C39.2453 113.002 39.2668 112.734 39.2668 112.34V112.012ZM45.6664 108.777V110.09H44.5414V112.598C44.5414 113.105 44.5512 113.402 44.5707 113.488C44.5941 113.57 44.643 113.639 44.7172 113.693C44.7953 113.748 44.8891 113.775 44.9984 113.775C45.1508 113.775 45.3715 113.723 45.6605 113.617L45.8012 114.895C45.4184 115.059 44.9848 115.141 44.5004 115.141C44.2035 115.141 43.9359 115.092 43.6977 114.994C43.4594 114.893 43.2836 114.764 43.1703 114.607C43.0609 114.447 42.9848 114.232 42.9418 113.963C42.9066 113.771 42.8891 113.385 42.8891 112.803V110.09H42.1332V108.777H42.8891V107.541L44.5414 106.58V108.777H45.6664ZM50.7125 113.02L52.3531 113.295C52.1422 113.896 51.8082 114.355 51.3512 114.672C50.898 114.984 50.3297 115.141 49.6461 115.141C48.5641 115.141 47.7633 114.787 47.2437 114.08C46.8336 113.514 46.6285 112.799 46.6285 111.936C46.6285 110.904 46.898 110.098 47.4371 109.516C47.9762 108.93 48.6578 108.637 49.482 108.637C50.4078 108.637 51.1383 108.943 51.6734 109.557C52.2086 110.166 52.4645 111.102 52.441 112.363H48.316C48.3277 112.852 48.4605 113.232 48.7145 113.506C48.9684 113.775 49.2848 113.91 49.6637 113.91C49.9215 113.91 50.1383 113.84 50.3141 113.699C50.4898 113.559 50.6227 113.332 50.7125 113.02ZM50.8062 111.355C50.7945 110.879 50.6715 110.518 50.4371 110.271C50.2027 110.021 49.9176 109.896 49.5816 109.896C49.2223 109.896 48.9254 110.027 48.691 110.289C48.4566 110.551 48.3414 110.906 48.3453 111.355H50.8062ZM53.9363 115.41L55.8172 115.639C55.8484 115.857 55.9207 116.008 56.034 116.09C56.1902 116.207 56.4363 116.266 56.7723 116.266C57.202 116.266 57.5242 116.201 57.7391 116.072C57.8836 115.986 57.993 115.848 58.0672 115.656C58.118 115.52 58.1434 115.268 58.1434 114.9V113.992C57.6512 114.664 57.0301 115 56.2801 115C55.4441 115 54.782 114.646 54.2938 113.939C53.9109 113.381 53.7195 112.686 53.7195 111.854C53.7195 110.811 53.9695 110.014 54.4695 109.463C54.9734 108.912 55.5984 108.637 56.3445 108.637C57.1141 108.637 57.7488 108.975 58.2488 109.65V108.777H59.7898V114.361C59.7898 115.096 59.7293 115.645 59.6082 116.008C59.4871 116.371 59.3172 116.656 59.0984 116.863C58.8797 117.07 58.5867 117.232 58.2195 117.35C57.8563 117.467 57.3953 117.525 56.8367 117.525C55.782 117.525 55.034 117.344 54.5926 116.98C54.1512 116.621 53.9305 116.164 53.9305 115.609C53.9305 115.555 53.9324 115.488 53.9363 115.41ZM55.407 111.76C55.407 112.42 55.534 112.904 55.7879 113.213C56.0457 113.518 56.3621 113.67 56.7371 113.67C57.1395 113.67 57.4793 113.514 57.7566 113.201C58.034 112.885 58.1727 112.418 58.1727 111.801C58.1727 111.156 58.0398 110.678 57.7742 110.365C57.5086 110.053 57.1727 109.896 56.7664 109.896C56.3719 109.896 56.0457 110.051 55.7879 110.359C55.534 110.664 55.407 111.131 55.407 111.76ZM61.3438 111.801C61.3438 111.254 61.4785 110.725 61.748 110.213C62.0176 109.701 62.3984 109.311 62.8906 109.041C63.3867 108.771 63.9395 108.637 64.5488 108.637C65.4902 108.637 66.2617 108.943 66.8633 109.557C67.4648 110.166 67.7656 110.938 67.7656 111.871C67.7656 112.812 67.4609 113.594 66.8516 114.215C66.2461 114.832 65.4824 115.141 64.5605 115.141C63.9902 115.141 63.4453 115.012 62.9258 114.754C62.4102 114.496 62.0176 114.119 61.748 113.623C61.4785 113.123 61.3438 112.516 61.3438 111.801ZM63.0312 111.889C63.0312 112.506 63.1777 112.979 63.4707 113.307C63.7637 113.635 64.125 113.799 64.5547 113.799C64.9844 113.799 65.3438 113.635 65.6328 113.307C65.9258 112.979 66.0723 112.502 66.0723 111.877C66.0723 111.268 65.9258 110.799 65.6328 110.471C65.3438 110.143 64.9844 109.979 64.5547 109.979C64.125 109.979 63.7637 110.143 63.4707 110.471C63.1777 110.799 63.0312 111.271 63.0312 111.889ZM70.9367 115H69.2902V108.777H70.8195V109.662C71.0812 109.244 71.3156 108.969 71.5227 108.836C71.7336 108.703 71.9719 108.637 72.2375 108.637C72.6125 108.637 72.9738 108.74 73.3215 108.947L72.8117 110.383C72.5344 110.203 72.2766 110.113 72.0383 110.113C71.8078 110.113 71.6125 110.178 71.4523 110.307C71.2922 110.432 71.1652 110.66 71.0715 110.992C70.9816 111.324 70.9367 112.02 70.9367 113.078V115ZM73.557 108.777H75.309L76.7973 113.195L78.2504 108.777H79.9555L77.7582 114.766L77.3656 115.85C77.2211 116.213 77.0824 116.49 76.9496 116.682C76.8207 116.873 76.6703 117.027 76.4984 117.145C76.3305 117.266 76.1215 117.359 75.8715 117.426C75.6254 117.492 75.3461 117.525 75.0336 117.525C74.7172 117.525 74.4066 117.492 74.102 117.426L73.9555 116.137C74.2133 116.188 74.4457 116.213 74.6527 116.213C75.0355 116.213 75.3187 116.1 75.5023 115.873C75.6859 115.65 75.8266 115.365 75.9242 115.018L73.557 108.777ZM30.9453 125.631V124.623L34.584 124.617V127.805C34.0254 128.25 33.4492 128.586 32.8555 128.812C32.2617 129.035 31.6523 129.146 31.0273 129.146C30.1836 129.146 29.416 128.967 28.7246 128.607C28.0371 128.244 27.5176 127.721 27.166 127.037C26.8145 126.354 26.6387 125.59 26.6387 124.746C26.6387 123.91 26.8125 123.131 27.1602 122.408C27.5117 121.682 28.0156 121.143 28.6719 120.791C29.3281 120.439 30.084 120.264 30.9395 120.264C31.5605 120.264 32.1211 120.365 32.6211 120.568C33.125 120.768 33.5195 121.047 33.8047 121.406C34.0898 121.766 34.3066 122.234 34.4551 122.812L33.4297 123.094C33.3008 122.656 33.1406 122.312 32.9492 122.062C32.7578 121.812 32.4844 121.613 32.1289 121.465C31.7734 121.312 31.3789 121.236 30.9453 121.236C30.4258 121.236 29.9766 121.316 29.5977 121.477C29.2188 121.633 28.9121 121.84 28.6777 122.098C28.4473 122.355 28.2676 122.639 28.1387 122.947C27.9199 123.479 27.8105 124.055 27.8105 124.676C27.8105 125.441 27.9414 126.082 28.2031 126.598C28.4688 127.113 28.8535 127.496 29.3574 127.746C29.8613 127.996 30.3965 128.121 30.9629 128.121C31.4551 128.121 31.9355 128.027 32.4043 127.84C32.873 127.648 33.2285 127.445 33.4707 127.23V125.631H30.9453ZM36.4191 129V122.777H37.3684V123.721C37.6105 123.279 37.8332 122.988 38.0363 122.848C38.2434 122.707 38.4699 122.637 38.716 122.637C39.0715 122.637 39.4328 122.75 39.8 122.977L39.4367 123.955C39.1789 123.803 38.9211 123.727 38.6633 123.727C38.4328 123.727 38.2258 123.797 38.0422 123.938C37.8586 124.074 37.7277 124.266 37.6496 124.512C37.5324 124.887 37.4738 125.297 37.4738 125.742V129H36.4191ZM40.3344 125.889C40.3344 124.736 40.6547 123.883 41.2953 123.328C41.8305 122.867 42.4828 122.637 43.2523 122.637C44.1078 122.637 44.807 122.918 45.35 123.48C45.893 124.039 46.1645 124.812 46.1645 125.801C46.1645 126.602 46.0434 127.232 45.8012 127.693C45.5629 128.15 45.2133 128.506 44.7523 128.76C44.2953 129.014 43.7953 129.141 43.2523 129.141C42.3813 129.141 41.6762 128.861 41.1371 128.303C40.602 127.744 40.3344 126.939 40.3344 125.889ZM41.4184 125.889C41.4184 126.686 41.5922 127.283 41.9398 127.682C42.2875 128.076 42.725 128.273 43.2523 128.273C43.7758 128.273 44.2113 128.074 44.559 127.676C44.9066 127.277 45.0805 126.67 45.0805 125.854C45.0805 125.084 44.9047 124.502 44.5531 124.107C44.2055 123.709 43.7719 123.51 43.2523 123.51C42.725 123.51 42.2875 123.707 41.9398 124.102C41.5922 124.496 41.4184 125.092 41.4184 125.889ZM51.7672 126.721L52.8043 126.855C52.691 127.57 52.4 128.131 51.9312 128.537C51.4664 128.939 50.8941 129.141 50.2145 129.141C49.3629 129.141 48.6773 128.863 48.1578 128.309C47.6422 127.75 47.3844 126.951 47.3844 125.912C47.3844 125.24 47.4957 124.652 47.7184 124.148C47.941 123.645 48.2789 123.268 48.732 123.018C49.1891 122.764 49.6852 122.637 50.2203 122.637C50.8961 122.637 51.4488 122.809 51.8785 123.152C52.3082 123.492 52.5836 123.977 52.7047 124.605L51.6793 124.764C51.5816 124.346 51.4078 124.031 51.1578 123.82C50.9117 123.609 50.6129 123.504 50.2613 123.504C49.7301 123.504 49.2984 123.695 48.9664 124.078C48.6344 124.457 48.4684 125.059 48.4684 125.883C48.4684 126.719 48.6285 127.326 48.9488 127.705C49.2691 128.084 49.6871 128.273 50.2027 128.273C50.6168 128.273 50.9625 128.146 51.2398 127.893C51.5172 127.639 51.693 127.248 51.7672 126.721ZM58.2664 126.996L59.3563 127.131C59.1844 127.768 58.866 128.262 58.4012 128.613C57.9363 128.965 57.3426 129.141 56.6199 129.141C55.7098 129.141 54.9871 128.861 54.452 128.303C53.9207 127.74 53.6551 126.953 53.6551 125.941C53.6551 124.895 53.9246 124.082 54.4637 123.504C55.0027 122.926 55.702 122.637 56.5613 122.637C57.3934 122.637 58.073 122.92 58.6004 123.486C59.1277 124.053 59.3914 124.85 59.3914 125.877C59.3914 125.939 59.3895 126.033 59.3855 126.158H54.7449C54.784 126.842 54.9773 127.365 55.325 127.729C55.6727 128.092 56.1063 128.273 56.6258 128.273C57.0125 128.273 57.3426 128.172 57.616 127.969C57.8895 127.766 58.1063 127.441 58.2664 126.996ZM54.8035 125.291H58.2781C58.2313 124.768 58.0984 124.375 57.8797 124.113C57.5438 123.707 57.1082 123.504 56.573 123.504C56.0887 123.504 55.6805 123.666 55.3484 123.99C55.0203 124.314 54.8387 124.748 54.8035 125.291ZM60.9746 129V122.777H61.9238V123.721C62.166 123.279 62.3887 122.988 62.5918 122.848C62.7988 122.707 63.0254 122.637 63.2715 122.637C63.627 122.637 63.9883 122.75 64.3555 122.977L63.9922 123.955C63.7344 123.803 63.4766 123.727 63.2188 123.727C62.9883 123.727 62.7812 123.797 62.5977 123.938C62.4141 124.074 62.2832 124.266 62.2051 124.512C62.0879 124.887 62.0293 125.297 62.0293 125.742V129H60.9746ZM65.2355 131.396L65.1184 130.406C65.3488 130.469 65.55 130.5 65.7219 130.5C65.9562 130.5 66.1437 130.461 66.2844 130.383C66.425 130.305 66.5402 130.195 66.6301 130.055C66.6965 129.949 66.8039 129.688 66.9523 129.27C66.9719 129.211 67.0031 129.125 67.0461 129.012L64.6848 122.777H65.8215L67.1164 126.381C67.2844 126.838 67.4348 127.318 67.5676 127.822C67.6887 127.338 67.8332 126.865 68.0012 126.404L69.3312 122.777H70.3859L68.0187 129.105C67.7648 129.789 67.5676 130.26 67.427 130.518C67.2395 130.865 67.0246 131.119 66.7824 131.279C66.5402 131.443 66.2512 131.525 65.9152 131.525C65.7121 131.525 65.4855 131.482 65.2355 131.396Z" fill="black"/>
<path d="M257.427 261.758C257.427 260.883 257.558 260.148 257.82 259.555C258.015 259.117 258.28 258.725 258.616 258.377C258.956 258.029 259.327 257.771 259.73 257.604C260.265 257.377 260.882 257.264 261.581 257.264C262.847 257.264 263.859 257.656 264.616 258.441C265.378 259.227 265.759 260.318 265.759 261.717C265.759 263.104 265.382 264.189 264.628 264.975C263.874 265.756 262.866 266.146 261.605 266.146C260.327 266.146 259.312 265.758 258.558 264.98C257.804 264.199 257.427 263.125 257.427 261.758ZM259.214 261.699C259.214 262.672 259.439 263.41 259.888 263.914C260.337 264.414 260.907 264.664 261.599 264.664C262.29 264.664 262.857 264.416 263.298 263.92C263.743 263.42 263.966 262.672 263.966 261.676C263.966 260.691 263.749 259.957 263.316 259.473C262.886 258.988 262.314 258.746 261.599 258.746C260.884 258.746 260.308 258.992 259.87 259.484C259.433 259.973 259.214 260.711 259.214 261.699ZM269.118 266L266.61 259.777H268.338L269.51 262.953L269.85 264.014C269.94 263.744 269.996 263.566 270.02 263.48C270.075 263.305 270.133 263.129 270.196 262.953L271.379 259.777H273.073L270.6 266H269.118ZM277.99 264.02L279.63 264.295C279.42 264.896 279.086 265.355 278.629 265.672C278.175 265.984 277.607 266.141 276.923 266.141C275.841 266.141 275.041 265.787 274.521 265.08C274.111 264.514 273.906 263.799 273.906 262.936C273.906 261.904 274.175 261.098 274.714 260.516C275.254 259.93 275.935 259.637 276.759 259.637C277.685 259.637 278.416 259.943 278.951 260.557C279.486 261.166 279.742 262.102 279.718 263.363H275.593C275.605 263.852 275.738 264.232 275.992 264.506C276.246 264.775 276.562 264.91 276.941 264.91C277.199 264.91 277.416 264.84 277.591 264.699C277.767 264.559 277.9 264.332 277.99 264.02ZM278.084 262.355C278.072 261.879 277.949 261.518 277.714 261.271C277.48 261.021 277.195 260.896 276.859 260.896C276.5 260.896 276.203 261.027 275.968 261.289C275.734 261.551 275.619 261.906 275.623 262.355H278.084ZM282.942 266H281.296V259.777H282.825V260.662C283.087 260.244 283.321 259.969 283.528 259.836C283.739 259.703 283.977 259.637 284.243 259.637C284.618 259.637 284.979 259.74 285.327 259.947L284.817 261.383C284.54 261.203 284.282 261.113 284.044 261.113C283.813 261.113 283.618 261.178 283.458 261.307C283.298 261.432 283.171 261.66 283.077 261.992C282.987 262.324 282.942 263.02 282.942 264.078V266ZM286.271 266V257.41H287.918V260.504C288.426 259.926 289.027 259.637 289.723 259.637C290.48 259.637 291.107 259.912 291.604 260.463C292.1 261.01 292.348 261.797 292.348 262.824C292.348 263.887 292.094 264.705 291.586 265.279C291.082 265.854 290.469 266.141 289.746 266.141C289.391 266.141 289.039 266.053 288.691 265.877C288.348 265.697 288.051 265.434 287.801 265.086V266H286.271ZM287.906 262.754C287.906 263.398 288.008 263.875 288.211 264.184C288.496 264.621 288.875 264.84 289.348 264.84C289.711 264.84 290.02 264.686 290.273 264.377C290.531 264.064 290.66 263.574 290.66 262.906C290.66 262.195 290.531 261.684 290.273 261.371C290.016 261.055 289.686 260.896 289.283 260.896C288.889 260.896 288.561 261.051 288.299 261.359C288.037 261.664 287.906 262.129 287.906 262.754ZM298.073 266V265.068C297.847 265.4 297.548 265.662 297.177 265.854C296.81 266.045 296.421 266.141 296.011 266.141C295.593 266.141 295.218 266.049 294.886 265.865C294.554 265.682 294.314 265.424 294.165 265.092C294.017 264.76 293.943 264.301 293.943 263.715V259.777H295.589V262.637C295.589 263.512 295.618 264.049 295.677 264.248C295.739 264.443 295.851 264.6 296.011 264.717C296.171 264.83 296.374 264.887 296.62 264.887C296.902 264.887 297.154 264.811 297.376 264.658C297.599 264.502 297.751 264.311 297.833 264.084C297.915 263.854 297.956 263.293 297.956 262.402V259.777H299.603V266H298.073ZM307.321 266H305.791V265.086C305.538 265.441 305.237 265.707 304.889 265.883C304.545 266.055 304.198 266.141 303.846 266.141C303.131 266.141 302.518 265.854 302.006 265.279C301.498 264.701 301.245 263.896 301.245 262.865C301.245 261.811 301.493 261.01 301.989 260.463C302.485 259.912 303.112 259.637 303.87 259.637C304.565 259.637 305.166 259.926 305.674 260.504V257.41H307.321V266ZM302.926 262.754C302.926 263.418 303.018 263.898 303.202 264.195C303.467 264.625 303.838 264.84 304.315 264.84C304.694 264.84 305.016 264.68 305.282 264.359C305.547 264.035 305.68 263.553 305.68 262.912C305.68 262.197 305.551 261.684 305.293 261.371C305.036 261.055 304.705 260.896 304.303 260.896C303.913 260.896 303.584 261.053 303.319 261.365C303.057 261.674 302.926 262.137 302.926 262.754ZM309.097 266.41L310.978 266.639C311.009 266.857 311.082 267.008 311.195 267.09C311.351 267.207 311.597 267.266 311.933 267.266C312.363 267.266 312.685 267.201 312.9 267.072C313.045 266.986 313.154 266.848 313.228 266.656C313.279 266.52 313.304 266.268 313.304 265.9V264.992C312.812 265.664 312.191 266 311.441 266C310.605 266 309.943 265.646 309.455 264.939C309.072 264.381 308.88 263.686 308.88 262.854C308.88 261.811 309.13 261.014 309.63 260.463C310.134 259.912 310.759 259.637 311.505 259.637C312.275 259.637 312.91 259.975 313.41 260.65V259.777H314.951V265.361C314.951 266.096 314.89 266.645 314.769 267.008C314.648 267.371 314.478 267.656 314.259 267.863C314.041 268.07 313.748 268.232 313.38 268.35C313.017 268.467 312.556 268.525 311.998 268.525C310.943 268.525 310.195 268.344 309.754 267.98C309.312 267.621 309.091 267.164 309.091 266.609C309.091 266.555 309.093 266.488 309.097 266.41ZM310.568 262.76C310.568 263.42 310.695 263.904 310.949 264.213C311.207 264.518 311.523 264.67 311.898 264.67C312.3 264.67 312.64 264.514 312.918 264.201C313.195 263.885 313.334 263.418 313.334 262.801C313.334 262.156 313.201 261.678 312.935 261.365C312.67 261.053 312.334 260.896 311.927 260.896C311.533 260.896 311.207 261.051 310.949 261.359C310.695 261.664 310.568 262.131 310.568 262.76ZM320.489 264.02L322.13 264.295C321.919 264.896 321.585 265.355 321.128 265.672C320.675 265.984 320.106 266.141 319.423 266.141C318.341 266.141 317.54 265.787 317.02 265.08C316.61 264.514 316.405 263.799 316.405 262.936C316.405 261.904 316.675 261.098 317.214 260.516C317.753 259.93 318.434 259.637 319.259 259.637C320.184 259.637 320.915 259.943 321.45 260.557C321.985 261.166 322.241 262.102 322.218 263.363H318.093C318.104 263.852 318.237 264.232 318.491 264.506C318.745 264.775 319.061 264.91 319.44 264.91C319.698 264.91 319.915 264.84 320.091 264.699C320.266 264.559 320.399 264.332 320.489 264.02ZM320.583 262.355C320.571 261.879 320.448 261.518 320.214 261.271C319.979 261.021 319.694 260.896 319.358 260.896C318.999 260.896 318.702 261.027 318.468 261.289C318.233 261.551 318.118 261.906 318.122 262.355H320.583ZM326.719 259.777V261.09H325.594V263.598C325.594 264.105 325.604 264.402 325.623 264.488C325.646 264.57 325.695 264.639 325.77 264.693C325.848 264.748 325.941 264.775 326.051 264.775C326.203 264.775 326.424 264.723 326.713 264.617L326.854 265.895C326.471 266.059 326.037 266.141 325.553 266.141C325.256 266.141 324.988 266.092 324.75 265.994C324.512 265.893 324.336 265.764 324.223 265.607C324.113 265.447 324.037 265.232 323.994 264.963C323.959 264.771 323.941 264.385 323.941 263.803V261.09H323.186V259.777H323.941V258.541L325.594 257.58V259.777H326.719Z" fill="black"/>
<path d="M44.8613 257.41H46.5957V262.062C46.5957 262.801 46.6172 263.279 46.6602 263.498C46.7344 263.85 46.9102 264.133 47.1875 264.348C47.4688 264.559 47.8516 264.664 48.3359 264.664C48.8281 264.664 49.1992 264.564 49.4492 264.365C49.6992 264.162 49.8496 263.914 49.9004 263.621C49.9512 263.328 49.9766 262.842 49.9766 262.162V257.41H51.7109V261.922C51.7109 262.953 51.6641 263.682 51.5703 264.107C51.4766 264.533 51.3027 264.893 51.0488 265.186C50.7988 265.479 50.4629 265.713 50.041 265.889C49.6191 266.061 49.0684 266.146 48.3887 266.146C47.5684 266.146 46.9453 266.053 46.5195 265.865C46.0977 265.674 45.7637 265.428 45.5176 265.127C45.2715 264.822 45.1094 264.504 45.0312 264.172C44.918 263.68 44.8613 262.953 44.8613 261.992V257.41ZM59.4934 266H57.8469V262.824C57.8469 262.152 57.8117 261.719 57.7414 261.523C57.6711 261.324 57.5559 261.17 57.3957 261.061C57.2395 260.951 57.05 260.896 56.8273 260.896C56.5422 260.896 56.2863 260.975 56.0598 261.131C55.8332 261.287 55.677 261.494 55.591 261.752C55.509 262.01 55.468 262.486 55.468 263.182V266H53.8215V259.777H55.3508V260.691C55.8938 259.988 56.5773 259.637 57.4016 259.637C57.7648 259.637 58.0969 259.703 58.3977 259.836C58.6984 259.965 58.925 260.131 59.0773 260.334C59.2336 260.537 59.341 260.768 59.3996 261.025C59.4621 261.283 59.4934 261.652 59.4934 262.133V266ZM67.1762 266H65.6469V265.086C65.393 265.441 65.0922 265.707 64.7445 265.883C64.4008 266.055 64.0531 266.141 63.7016 266.141C62.9867 266.141 62.3734 265.854 61.8617 265.279C61.3539 264.701 61.1 263.896 61.1 262.865C61.1 261.811 61.348 261.01 61.8441 260.463C62.3402 259.912 62.9672 259.637 63.725 259.637C64.4203 259.637 65.0219 259.926 65.5297 260.504V257.41H67.1762V266ZM62.7816 262.754C62.7816 263.418 62.8734 263.898 63.057 264.195C63.3227 264.625 63.6938 264.84 64.1703 264.84C64.5492 264.84 64.8715 264.68 65.1371 264.359C65.4027 264.035 65.5355 263.553 65.5355 262.912C65.5355 262.197 65.4066 261.684 65.1488 261.371C64.891 261.055 64.5609 260.896 64.1586 260.896C63.768 260.896 63.4398 261.053 63.1742 261.365C62.9125 261.674 62.7816 262.137 62.7816 262.754ZM72.7086 264.02L74.3492 264.295C74.1383 264.896 73.8043 265.355 73.3473 265.672C72.8941 265.984 72.3258 266.141 71.6422 266.141C70.5602 266.141 69.7594 265.787 69.2398 265.08C68.8297 264.514 68.6246 263.799 68.6246 262.936C68.6246 261.904 68.8941 261.098 69.4332 260.516C69.9723 259.93 70.6539 259.637 71.4781 259.637C72.4039 259.637 73.1344 259.943 73.6695 260.557C74.2047 261.166 74.4605 262.102 74.4371 263.363H70.3121C70.3238 263.852 70.4566 264.232 70.7105 264.506C70.9645 264.775 71.2809 264.91 71.6598 264.91C71.9176 264.91 72.1344 264.84 72.3102 264.699C72.4859 264.559 72.6187 264.332 72.7086 264.02ZM72.8023 262.355C72.7906 261.879 72.6676 261.518 72.4332 261.271C72.1988 261.021 71.9137 260.896 71.5777 260.896C71.2184 260.896 70.9215 261.027 70.6871 261.289C70.4527 261.551 70.3375 261.906 70.3414 262.355H72.8023ZM77.6609 266H76.0145V259.777H77.5438V260.662C77.8055 260.244 78.0398 259.969 78.2469 259.836C78.4578 259.703 78.6961 259.637 78.9617 259.637C79.3367 259.637 79.698 259.74 80.0457 259.947L79.5359 261.383C79.2586 261.203 79.0008 261.113 78.7625 261.113C78.532 261.113 78.3367 261.178 78.1766 261.307C78.0164 261.432 77.8895 261.66 77.7957 261.992C77.7059 262.324 77.6609 263.02 77.6609 264.078V266ZM80.9902 266V257.41H82.6367V260.504C83.1445 259.926 83.7461 259.637 84.4414 259.637C85.1992 259.637 85.8262 259.912 86.3223 260.463C86.8184 261.01 87.0664 261.797 87.0664 262.824C87.0664 263.887 86.8125 264.705 86.3047 265.279C85.8008 265.854 85.1875 266.141 84.4648 266.141C84.1094 266.141 83.7578 266.053 83.4102 265.877C83.0664 265.697 82.7695 265.434 82.5195 265.086V266H80.9902ZM82.625 262.754C82.625 263.398 82.7266 263.875 82.9297 264.184C83.2148 264.621 83.5938 264.84 84.0664 264.84C84.4297 264.84 84.7383 264.686 84.9922 264.377C85.25 264.064 85.3789 263.574 85.3789 262.906C85.3789 262.195 85.25 261.684 84.9922 261.371C84.7344 261.055 84.4043 260.896 84.002 260.896C83.6074 260.896 83.2793 261.051 83.0176 261.359C82.7559 261.664 82.625 262.129 82.625 262.754ZM92.7922 266V265.068C92.5656 265.4 92.2668 265.662 91.8957 265.854C91.5285 266.045 91.1398 266.141 90.7297 266.141C90.3117 266.141 89.9367 266.049 89.6047 265.865C89.2727 265.682 89.0324 265.424 88.884 265.092C88.7355 264.76 88.6613 264.301 88.6613 263.715V259.777H90.3078V262.637C90.3078 263.512 90.3371 264.049 90.3957 264.248C90.4582 264.443 90.5695 264.6 90.7297 264.717C90.8898 264.83 91.093 264.887 91.3391 264.887C91.6203 264.887 91.8723 264.811 92.0949 264.658C92.3176 264.502 92.4699 264.311 92.552 264.084C92.634 263.854 92.675 263.293 92.675 262.402V259.777H94.3215V266H92.7922ZM102.039 266H100.51V265.086C100.256 265.441 99.9555 265.707 99.6078 265.883C99.2641 266.055 98.9164 266.141 98.5648 266.141C97.85 266.141 97.2367 265.854 96.725 265.279C96.2172 264.701 95.9633 263.896 95.9633 262.865C95.9633 261.811 96.2113 261.01 96.7074 260.463C97.2035 259.912 97.8305 259.637 98.5883 259.637C99.2836 259.637 99.8852 259.926 100.393 260.504V257.41H102.039V266ZM97.6449 262.754C97.6449 263.418 97.7367 263.898 97.9203 264.195C98.1859 264.625 98.557 264.84 99.0336 264.84C99.4125 264.84 99.7348 264.68 100 264.359C100.266 264.035 100.399 263.553 100.399 262.912C100.399 262.197 100.27 261.684 100.012 261.371C99.7543 261.055 99.4242 260.896 99.0219 260.896C98.6312 260.896 98.3031 261.053 98.0375 261.365C97.7758 261.674 97.6449 262.137 97.6449 262.754ZM103.816 266.41L105.697 266.639C105.728 266.857 105.8 267.008 105.914 267.09C106.07 267.207 106.316 267.266 106.652 267.266C107.082 267.266 107.404 267.201 107.619 267.072C107.763 266.986 107.873 266.848 107.947 266.656C107.998 266.52 108.023 266.268 108.023 265.9V264.992C107.531 265.664 106.91 266 106.16 266C105.324 266 104.662 265.646 104.173 264.939C103.791 264.381 103.599 263.686 103.599 262.854C103.599 261.811 103.849 261.014 104.349 260.463C104.853 259.912 105.478 259.637 106.224 259.637C106.994 259.637 107.629 259.975 108.129 260.65V259.777H109.67V265.361C109.67 266.096 109.609 266.645 109.488 267.008C109.367 267.371 109.197 267.656 108.978 267.863C108.759 268.07 108.466 268.232 108.099 268.35C107.736 268.467 107.275 268.525 106.716 268.525C105.662 268.525 104.914 268.344 104.472 267.98C104.031 267.621 103.81 267.164 103.81 266.609C103.81 266.555 103.812 266.488 103.816 266.41ZM105.287 262.76C105.287 263.42 105.414 263.904 105.668 264.213C105.925 264.518 106.242 264.67 106.617 264.67C107.019 264.67 107.359 264.514 107.636 264.201C107.914 263.885 108.052 263.418 108.052 262.801C108.052 262.156 107.92 261.678 107.654 261.365C107.388 261.053 107.052 260.896 106.646 260.896C106.252 260.896 105.925 261.051 105.668 261.359C105.414 261.664 105.287 262.131 105.287 262.76ZM115.208 264.02L116.848 264.295C116.637 264.896 116.304 265.355 115.846 265.672C115.393 265.984 114.825 266.141 114.141 266.141C113.059 266.141 112.259 265.787 111.739 265.08C111.329 264.514 111.124 263.799 111.124 262.936C111.124 261.904 111.393 261.098 111.932 260.516C112.471 259.93 113.153 259.637 113.977 259.637C114.903 259.637 115.634 259.943 116.169 260.557C116.704 261.166 116.96 262.102 116.936 263.363H112.811C112.823 263.852 112.956 264.232 113.21 264.506C113.464 264.775 113.78 264.91 114.159 264.91C114.417 264.91 114.634 264.84 114.809 264.699C114.985 264.559 115.118 264.332 115.208 264.02ZM115.302 262.355C115.29 261.879 115.167 261.518 114.932 261.271C114.698 261.021 114.413 260.896 114.077 260.896C113.718 260.896 113.421 261.027 113.186 261.289C112.952 261.551 112.837 261.906 112.841 262.355H115.302ZM121.438 259.777V261.09H120.312V263.598C120.312 264.105 120.322 264.402 120.342 264.488C120.365 264.57 120.414 264.639 120.488 264.693C120.566 264.748 120.66 264.775 120.77 264.775C120.922 264.775 121.143 264.723 121.432 264.617L121.572 265.895C121.189 266.059 120.756 266.141 120.271 266.141C119.975 266.141 119.707 266.092 119.469 265.994C119.23 265.893 119.055 265.764 118.941 265.607C118.832 265.447 118.756 265.232 118.713 264.963C118.678 264.771 118.66 264.385 118.66 263.803V261.09H117.904V259.777H118.66V258.541L120.312 257.58V259.777H121.438Z" fill="black"/>
<rect x="160.799" y="274" width="165.201" height="14.7313" fill="#B02318"/>
<rect x="126.075" y="274" width="165.201" height="14.7313" fill="#F6C143"/>
<rect x="44" y="274" width="165.201" height="14.7313" fill="#007DC6"/>
<rect x="184" y="295.003" width="28" height="1.96144" transform="rotate(-90.0801 184 295.003)" fill="#262626"/>
<path d="M48.8691 300.842V299.395H52.6074V302.816C52.2441 303.168 51.7168 303.479 51.0254 303.748C50.3379 304.014 49.6406 304.146 48.9336 304.146C48.0352 304.146 47.252 303.959 46.584 303.584C45.916 303.205 45.4141 302.666 45.0781 301.967C44.7422 301.264 44.5742 300.5 44.5742 299.676C44.5742 298.781 44.7617 297.986 45.1367 297.291C45.5117 296.596 46.0605 296.062 46.7832 295.691C47.334 295.406 48.0195 295.264 48.8398 295.264C49.9062 295.264 50.7383 295.488 51.3359 295.938C51.9375 296.383 52.3242 297 52.4961 297.789L50.7734 298.111C50.6523 297.689 50.4238 297.357 50.0879 297.115C49.7559 296.869 49.3398 296.746 48.8398 296.746C48.082 296.746 47.4785 296.986 47.0293 297.467C46.584 297.947 46.3613 298.66 46.3613 299.605C46.3613 300.625 46.5879 301.391 47.041 301.902C47.4941 302.41 48.0879 302.664 48.8223 302.664C49.1855 302.664 49.5488 302.594 49.9121 302.453C50.2793 302.309 50.5938 302.135 50.8555 301.932V300.842H48.8691ZM56.0773 304H54.4309V297.777H55.9602V298.662C56.2219 298.244 56.4563 297.969 56.6633 297.836C56.8742 297.703 57.1125 297.637 57.3781 297.637C57.7531 297.637 58.1145 297.74 58.4621 297.947L57.9523 299.383C57.675 299.203 57.4172 299.113 57.1789 299.113C56.9484 299.113 56.7531 299.178 56.593 299.307C56.4328 299.432 56.3059 299.66 56.2121 299.992C56.1223 300.324 56.0773 301.02 56.0773 302.078V304ZM59.0961 300.801C59.0961 300.254 59.2309 299.725 59.5004 299.213C59.7699 298.701 60.1508 298.311 60.643 298.041C61.1391 297.771 61.6918 297.637 62.3012 297.637C63.2426 297.637 64.0141 297.943 64.6156 298.557C65.2172 299.166 65.518 299.938 65.518 300.871C65.518 301.812 65.2133 302.594 64.6039 303.215C63.9984 303.832 63.2348 304.141 62.3129 304.141C61.7426 304.141 61.1977 304.012 60.6781 303.754C60.1625 303.496 59.7699 303.119 59.5004 302.623C59.2309 302.123 59.0961 301.516 59.0961 300.801ZM60.7836 300.889C60.7836 301.506 60.9301 301.979 61.223 302.307C61.516 302.635 61.8773 302.799 62.307 302.799C62.7367 302.799 63.0961 302.635 63.3852 302.307C63.6781 301.979 63.8246 301.502 63.8246 300.877C63.8246 300.268 63.6781 299.799 63.3852 299.471C63.0961 299.143 62.7367 298.979 62.307 298.979C61.8773 298.979 61.516 299.143 61.223 299.471C60.9301 299.799 60.7836 300.271 60.7836 300.889ZM72.5387 299.617L70.9156 299.91C70.8609 299.586 70.7359 299.342 70.5406 299.178C70.3492 299.014 70.0992 298.932 69.7906 298.932C69.3805 298.932 69.0523 299.074 68.8062 299.359C68.5641 299.641 68.443 300.113 68.443 300.777C68.443 301.516 68.566 302.037 68.8121 302.342C69.0621 302.646 69.3961 302.799 69.8141 302.799C70.1266 302.799 70.3824 302.711 70.5816 302.535C70.7809 302.355 70.9215 302.049 71.0035 301.615L72.6207 301.891C72.4527 302.633 72.1305 303.193 71.6539 303.572C71.1773 303.951 70.5387 304.141 69.7379 304.141C68.8277 304.141 68.1012 303.854 67.5582 303.279C67.0191 302.705 66.7496 301.91 66.7496 300.895C66.7496 299.867 67.0211 299.068 67.5641 298.498C68.107 297.924 68.8414 297.637 69.7672 297.637C70.525 297.637 71.1266 297.801 71.5719 298.129C72.0211 298.453 72.3434 298.949 72.5387 299.617ZM77.6961 302.02L79.3367 302.295C79.1258 302.896 78.7918 303.355 78.3348 303.672C77.8816 303.984 77.3133 304.141 76.6297 304.141C75.5477 304.141 74.7469 303.787 74.2273 303.08C73.8172 302.514 73.6121 301.799 73.6121 300.936C73.6121 299.904 73.8816 299.098 74.4207 298.516C74.9598 297.93 75.6414 297.637 76.4656 297.637C77.3914 297.637 78.1219 297.943 78.657 298.557C79.1922 299.166 79.448 300.102 79.4246 301.363H75.2996C75.3113 301.852 75.4441 302.232 75.698 302.506C75.952 302.775 76.2684 302.91 76.6473 302.91C76.9051 302.91 77.1219 302.84 77.2977 302.699C77.4734 302.559 77.6063 302.332 77.6961 302.02ZM77.7898 300.355C77.7781 299.879 77.6551 299.518 77.4207 299.271C77.1863 299.021 76.9012 298.896 76.5652 298.896C76.2059 298.896 75.909 299.027 75.6746 299.289C75.4402 299.551 75.325 299.906 75.3289 300.355H77.7898ZM82.6484 304H81.002V297.777H82.5312V298.662C82.793 298.244 83.0273 297.969 83.2344 297.836C83.4453 297.703 83.6836 297.637 83.9492 297.637C84.3242 297.637 84.6855 297.74 85.0332 297.947L84.5234 299.383C84.2461 299.203 83.9883 299.113 83.75 299.113C83.5195 299.113 83.3242 299.178 83.1641 299.307C83.0039 299.432 82.877 299.66 82.7832 299.992C82.6934 300.324 82.6484 301.02 82.6484 302.078V304ZM85.2687 297.777H87.0207L88.509 302.195L89.9621 297.777H91.6672L89.4699 303.766L89.0773 304.85C88.9328 305.213 88.7941 305.49 88.6613 305.682C88.5324 305.873 88.382 306.027 88.2102 306.145C88.0422 306.266 87.8332 306.359 87.5832 306.426C87.3371 306.492 87.0578 306.525 86.7453 306.525C86.4289 306.525 86.1184 306.492 85.8137 306.426L85.6672 305.137C85.925 305.188 86.1574 305.213 86.3645 305.213C86.7473 305.213 87.0305 305.1 87.2141 304.873C87.3977 304.65 87.5383 304.365 87.6359 304.018L85.2687 297.777ZM96.5973 304V295.41H98.2438V298.504C98.7516 297.926 99.3531 297.637 100.048 297.637C100.806 297.637 101.433 297.912 101.929 298.463C102.425 299.01 102.673 299.797 102.673 300.824C102.673 301.887 102.42 302.705 101.912 303.279C101.408 303.854 100.795 304.141 100.072 304.141C99.7164 304.141 99.3648 304.053 99.0172 303.877C98.6734 303.697 98.3766 303.434 98.1266 303.086V304H96.5973ZM98.232 300.754C98.232 301.398 98.3336 301.875 98.5367 302.184C98.8219 302.621 99.2008 302.84 99.6734 302.84C100.037 302.84 100.345 302.686 100.599 302.377C100.857 302.064 100.986 301.574 100.986 300.906C100.986 300.195 100.857 299.684 100.599 299.371C100.341 299.055 100.011 298.896 99.609 298.896C99.2145 298.896 98.8863 299.051 98.6246 299.359C98.3629 299.664 98.232 300.129 98.232 300.754ZM108.399 304V303.068C108.173 303.4 107.874 303.662 107.503 303.854C107.136 304.045 106.747 304.141 106.337 304.141C105.919 304.141 105.544 304.049 105.212 303.865C104.88 303.682 104.639 303.424 104.491 303.092C104.343 302.76 104.268 302.301 104.268 301.715V297.777H105.915V300.637C105.915 301.512 105.944 302.049 106.003 302.248C106.065 302.443 106.177 302.6 106.337 302.717C106.497 302.83 106.7 302.887 106.946 302.887C107.227 302.887 107.479 302.811 107.702 302.658C107.925 302.502 108.077 302.311 108.159 302.084C108.241 301.854 108.282 301.293 108.282 300.402V297.777H109.929V304H108.399ZM117.646 304H116.117V303.086C115.863 303.441 115.562 303.707 115.215 303.883C114.871 304.055 114.523 304.141 114.172 304.141C113.457 304.141 112.844 303.854 112.332 303.279C111.824 302.701 111.57 301.896 111.57 300.865C111.57 299.811 111.818 299.01 112.314 298.463C112.811 297.912 113.438 297.637 114.195 297.637C114.891 297.637 115.492 297.926 116 298.504V295.41H117.646V304ZM113.252 300.754C113.252 301.418 113.344 301.898 113.527 302.195C113.793 302.625 114.164 302.84 114.641 302.84C115.02 302.84 115.342 302.68 115.607 302.359C115.873 302.035 116.006 301.553 116.006 300.912C116.006 300.197 115.877 299.684 115.619 299.371C115.361 299.055 115.031 298.896 114.629 298.896C114.238 298.896 113.91 299.053 113.645 299.365C113.383 299.674 113.252 300.137 113.252 300.754ZM119.423 304.41L121.304 304.639C121.335 304.857 121.407 305.008 121.521 305.09C121.677 305.207 121.923 305.266 122.259 305.266C122.689 305.266 123.011 305.201 123.226 305.072C123.37 304.986 123.48 304.848 123.554 304.656C123.605 304.52 123.63 304.268 123.63 303.9V302.992C123.138 303.664 122.517 304 121.767 304C120.931 304 120.269 303.646 119.78 302.939C119.398 302.381 119.206 301.686 119.206 300.854C119.206 299.811 119.456 299.014 119.956 298.463C120.46 297.912 121.085 297.637 121.831 297.637C122.601 297.637 123.236 297.975 123.736 298.65V297.777H125.277V303.361C125.277 304.096 125.216 304.645 125.095 305.008C124.974 305.371 124.804 305.656 124.585 305.863C124.366 306.07 124.073 306.232 123.706 306.35C123.343 306.467 122.882 306.525 122.323 306.525C121.269 306.525 120.521 306.344 120.079 305.98C119.638 305.621 119.417 305.164 119.417 304.609C119.417 304.555 119.419 304.488 119.423 304.41ZM120.894 300.76C120.894 301.42 121.021 301.904 121.275 302.213C121.532 302.518 121.849 302.67 122.224 302.67C122.626 302.67 122.966 302.514 123.243 302.201C123.521 301.885 123.659 301.418 123.659 300.801C123.659 300.156 123.527 299.678 123.261 299.365C122.995 299.053 122.659 298.896 122.253 298.896C121.859 298.896 121.532 299.051 121.275 299.359C121.021 299.664 120.894 300.131 120.894 300.76ZM130.815 302.02L132.455 302.295C132.245 302.896 131.911 303.355 131.454 303.672C131 303.984 130.432 304.141 129.748 304.141C128.666 304.141 127.866 303.787 127.346 303.08C126.936 302.514 126.731 301.799 126.731 300.936C126.731 299.904 127 299.098 127.539 298.516C128.079 297.93 128.76 297.637 129.584 297.637C130.51 297.637 131.241 297.943 131.776 298.557C132.311 299.166 132.567 300.102 132.543 301.363H128.418C128.43 301.852 128.563 302.232 128.817 302.506C129.071 302.775 129.387 302.91 129.766 302.91C130.024 302.91 130.241 302.84 130.416 302.699C130.592 302.559 130.725 302.332 130.815 302.02ZM130.909 300.355C130.897 299.879 130.774 299.518 130.539 299.271C130.305 299.021 130.02 298.896 129.684 298.896C129.325 298.896 129.028 299.027 128.793 299.289C128.559 299.551 128.444 299.906 128.448 300.355H130.909ZM137.045 297.777V299.09H135.92V301.598C135.92 302.105 135.929 302.402 135.949 302.488C135.972 302.57 136.021 302.639 136.095 302.693C136.173 302.748 136.267 302.775 136.377 302.775C136.529 302.775 136.75 302.723 137.039 302.617L137.179 303.895C136.796 304.059 136.363 304.141 135.879 304.141C135.582 304.141 135.314 304.092 135.076 303.994C134.838 303.893 134.662 303.764 134.548 303.607C134.439 303.447 134.363 303.232 134.32 302.963C134.285 302.771 134.267 302.385 134.267 301.803V299.09H133.511V297.777H134.267V296.541L135.92 295.58V297.777H137.045Z" fill="black"/>
<path d="M294.267 304.729V302.273C293.501 302.055 292.939 301.725 292.579 301.283C292.224 300.838 292.046 300.299 292.046 299.666C292.046 299.025 292.247 298.488 292.65 298.055C293.056 297.617 293.595 297.365 294.267 297.299V296.719H295.116V297.299C295.738 297.373 296.232 297.586 296.599 297.938C296.966 298.285 297.2 298.752 297.302 299.338L295.82 299.531C295.73 299.07 295.495 298.758 295.116 298.594V300.885C296.054 301.139 296.693 301.469 297.032 301.875C297.372 302.277 297.542 302.795 297.542 303.428C297.542 304.135 297.327 304.73 296.898 305.215C296.472 305.699 295.878 305.996 295.116 306.105V307.201H294.267V306.135C293.591 306.053 293.042 305.801 292.62 305.379C292.198 304.957 291.929 304.361 291.812 303.592L293.341 303.428C293.404 303.74 293.521 304.01 293.693 304.236C293.864 304.463 294.056 304.627 294.267 304.729ZM294.267 298.576C294.036 298.654 293.853 298.787 293.716 298.975C293.579 299.162 293.511 299.369 293.511 299.596C293.511 299.803 293.573 299.996 293.698 300.176C293.823 300.352 294.013 300.494 294.267 300.604V298.576ZM295.116 304.811C295.409 304.756 295.648 304.621 295.831 304.406C296.015 304.188 296.107 303.932 296.107 303.639C296.107 303.377 296.029 303.152 295.872 302.965C295.72 302.773 295.468 302.627 295.116 302.525V304.811ZM298.832 303.721L300.426 303.527C300.477 303.934 300.614 304.244 300.836 304.459C301.059 304.674 301.329 304.781 301.645 304.781C301.985 304.781 302.27 304.652 302.5 304.395C302.735 304.137 302.852 303.789 302.852 303.352C302.852 302.938 302.741 302.609 302.518 302.367C302.295 302.125 302.024 302.004 301.704 302.004C301.493 302.004 301.241 302.045 300.948 302.127L301.129 300.785C301.575 300.797 301.914 300.701 302.149 300.498C302.383 300.291 302.5 300.018 302.5 299.678C302.5 299.389 302.414 299.158 302.243 298.986C302.071 298.814 301.842 298.729 301.557 298.729C301.276 298.729 301.036 298.826 300.836 299.021C300.637 299.217 300.516 299.502 300.473 299.877L298.955 299.619C299.061 299.1 299.219 298.686 299.43 298.377C299.645 298.064 299.942 297.82 300.321 297.645C300.704 297.465 301.131 297.375 301.604 297.375C302.413 297.375 303.061 297.633 303.549 298.148C303.952 298.57 304.153 299.047 304.153 299.578C304.153 300.332 303.741 300.934 302.916 301.383C303.409 301.488 303.801 301.725 304.094 302.092C304.391 302.459 304.539 302.902 304.539 303.422C304.539 304.176 304.264 304.818 303.713 305.35C303.163 305.881 302.477 306.146 301.657 306.146C300.879 306.146 300.235 305.924 299.723 305.479C299.211 305.029 298.914 304.443 298.832 303.721ZM308.654 297.375C309.486 297.375 310.136 297.672 310.605 298.266C311.164 298.969 311.443 300.135 311.443 301.764C311.443 303.389 311.162 304.557 310.599 305.268C310.134 305.854 309.486 306.146 308.654 306.146C307.818 306.146 307.144 305.826 306.632 305.186C306.121 304.541 305.865 303.395 305.865 301.746C305.865 300.129 306.146 298.965 306.709 298.254C307.173 297.668 307.822 297.375 308.654 297.375ZM308.654 298.74C308.455 298.74 308.277 298.805 308.121 298.934C307.964 299.059 307.843 299.285 307.757 299.613C307.644 300.039 307.588 300.756 307.588 301.764C307.588 302.771 307.638 303.465 307.74 303.844C307.841 304.219 307.968 304.469 308.121 304.594C308.277 304.719 308.455 304.781 308.654 304.781C308.853 304.781 309.031 304.719 309.187 304.594C309.343 304.465 309.464 304.236 309.55 303.908C309.664 303.486 309.72 302.771 309.72 301.764C309.72 300.756 309.67 300.064 309.568 299.689C309.466 299.311 309.338 299.059 309.181 298.934C309.029 298.805 308.853 298.74 308.654 298.74ZM315.634 297.375C316.466 297.375 317.116 297.672 317.585 298.266C318.143 298.969 318.423 300.135 318.423 301.764C318.423 303.389 318.141 304.557 317.579 305.268C317.114 305.854 316.466 306.146 315.634 306.146C314.798 306.146 314.124 305.826 313.612 305.186C313.1 304.541 312.845 303.395 312.845 301.746C312.845 300.129 313.126 298.965 313.688 298.254C314.153 297.668 314.802 297.375 315.634 297.375ZM315.634 298.74C315.434 298.74 315.257 298.805 315.1 298.934C314.944 299.059 314.823 299.285 314.737 299.613C314.624 300.039 314.567 300.756 314.567 301.764C314.567 302.771 314.618 303.465 314.72 303.844C314.821 304.219 314.948 304.469 315.1 304.594C315.257 304.719 315.434 304.781 315.634 304.781C315.833 304.781 316.011 304.719 316.167 304.594C316.323 304.465 316.444 304.236 316.53 303.908C316.643 303.486 316.7 302.771 316.7 301.764C316.7 300.756 316.649 300.064 316.548 299.689C316.446 299.311 316.317 299.059 316.161 298.934C316.009 298.805 315.833 298.74 315.634 298.74ZM322.613 297.375C323.445 297.375 324.096 297.672 324.564 298.266C325.123 298.969 325.402 300.135 325.402 301.764C325.402 303.389 325.121 304.557 324.559 305.268C324.094 305.854 323.445 306.146 322.613 306.146C321.777 306.146 321.104 305.826 320.592 305.186C320.08 304.541 319.824 303.395 319.824 301.746C319.824 300.129 320.105 298.965 320.668 298.254C321.133 297.668 321.781 297.375 322.613 297.375ZM322.613 298.74C322.414 298.74 322.236 298.805 322.08 298.934C321.924 299.059 321.803 299.285 321.717 299.613C321.604 300.039 321.547 300.756 321.547 301.764C321.547 302.771 321.598 303.465 321.699 303.844C321.801 304.219 321.928 304.469 322.08 304.594C322.236 304.719 322.414 304.781 322.613 304.781C322.812 304.781 322.99 304.719 323.146 304.594C323.303 304.465 323.424 304.236 323.51 303.908C323.623 303.486 323.68 302.771 323.68 301.764C323.68 300.756 323.629 300.064 323.527 299.689C323.426 299.311 323.297 299.059 323.141 298.934C322.988 298.805 322.812 298.74 322.613 298.74Z" fill="black"/>
<line x1="237.5" y1="76" x2="237.5" y2="100" stroke="#007DC6"/>
<rect x="26" y="75" width="98" height="25" fill="#007DC6"/>
<path d="M59.3191 92H57.4324L56.6824 90.0488H53.2488L52.5398 92H50.7L54.0457 83.4102H55.8797L59.3191 92ZM56.1258 88.6016L54.9422 85.4141L53.782 88.6016H56.1258ZM60.5332 92V83.4102H62.1797V92H60.5332ZM64.173 92V83.4102H65.8195V92H64.173ZM73.398 92V84.8633H70.8492V83.4102H77.6754V84.8633H75.1324V92H73.398ZM78.866 84.9336V83.4102H80.5125V84.9336H78.866ZM78.866 92V85.7773H80.5125V92H78.866ZM82.3828 85.7773H83.9004V86.627C84.4434 85.9668 85.0898 85.6367 85.8398 85.6367C86.2383 85.6367 86.584 85.7188 86.877 85.8828C87.1699 86.0469 87.4102 86.2949 87.5977 86.627C87.8711 86.2949 88.166 86.0469 88.4824 85.8828C88.7988 85.7188 89.1367 85.6367 89.4961 85.6367C89.9531 85.6367 90.3398 85.7305 90.6562 85.918C90.9727 86.1016 91.209 86.373 91.3652 86.7324C91.4785 86.998 91.5352 87.4277 91.5352 88.0215V92H89.8887V88.4434C89.8887 87.8262 89.832 87.4277 89.7188 87.248C89.5664 87.0137 89.332 86.8965 89.0156 86.8965C88.7852 86.8965 88.5684 86.9668 88.3652 87.1074C88.1621 87.248 88.0156 87.4551 87.9258 87.7285C87.8359 87.998 87.791 88.4258 87.791 89.0117V92H86.1445V88.5898C86.1445 87.9844 86.1152 87.5938 86.0566 87.418C85.998 87.2422 85.9062 87.1113 85.7812 87.0254C85.6602 86.9395 85.4941 86.8965 85.2832 86.8965C85.0293 86.8965 84.8008 86.9648 84.5977 87.1016C84.3945 87.2383 84.248 87.4355 84.1582 87.6934C84.0723 87.9512 84.0293 88.3789 84.0293 88.9766V92H82.3828V85.7773ZM97.0852 90.0195L98.7258 90.2949C98.5148 90.8965 98.1809 91.3555 97.7238 91.6719C97.2707 91.9844 96.7023 92.1406 96.0188 92.1406C94.9367 92.1406 94.1359 91.7871 93.6164 91.0801C93.2063 90.5137 93.0012 89.7988 93.0012 88.9355C93.0012 87.9043 93.2707 87.0977 93.8098 86.5156C94.3488 85.9297 95.0305 85.6367 95.8547 85.6367C96.7805 85.6367 97.5109 85.9434 98.0461 86.5566C98.5813 87.166 98.8371 88.1016 98.8137 89.3633H94.6887C94.7004 89.8516 94.8332 90.2324 95.0871 90.5059C95.341 90.7754 95.6574 90.9102 96.0363 90.9102C96.2941 90.9102 96.5109 90.8398 96.6867 90.6992C96.8625 90.5586 96.9953 90.332 97.0852 90.0195ZM97.1789 88.3555C97.1672 87.8789 97.0441 87.5176 96.8098 87.2715C96.5754 87.0215 96.2902 86.8965 95.9543 86.8965C95.5949 86.8965 95.298 87.0273 95.0637 87.2891C94.8293 87.5508 94.7141 87.9062 94.718 88.3555H97.1789Z" fill="white"/>
<path d="M156.88 92V84.4238H154.05V83.4102H160.859V84.4238H158.017V92H156.88ZM162.196 92V83.4102H163.25V86.4922C163.743 85.9219 164.364 85.6367 165.114 85.6367C165.575 85.6367 165.975 85.7285 166.315 85.9121C166.655 86.0918 166.897 86.3418 167.041 86.6621C167.19 86.9824 167.264 87.4473 167.264 88.0566V92H166.209V88.0566C166.209 87.5293 166.094 87.1465 165.864 86.9082C165.637 86.666 165.315 86.5449 164.897 86.5449C164.584 86.5449 164.289 86.627 164.012 86.791C163.739 86.9512 163.543 87.1699 163.426 87.4473C163.309 87.7246 163.25 88.1074 163.25 88.5957V92H162.196ZM169.181 84.623V83.4102H170.236V84.623H169.181ZM169.181 92V85.7773H170.236V92H169.181ZM171.725 90.1426L172.768 89.9785C172.827 90.3965 172.989 90.7168 173.255 90.9395C173.524 91.1621 173.899 91.2734 174.38 91.2734C174.864 91.2734 175.223 91.1758 175.458 90.9805C175.692 90.7812 175.809 90.5488 175.809 90.2832C175.809 90.0449 175.706 89.8574 175.499 89.7207C175.354 89.627 174.995 89.5078 174.421 89.3633C173.647 89.168 173.11 89 172.809 88.8594C172.512 88.7148 172.286 88.5176 172.13 88.2676C171.977 88.0137 171.901 87.7344 171.901 87.4297C171.901 87.1523 171.964 86.8965 172.089 86.6621C172.218 86.4238 172.391 86.2266 172.61 86.0703C172.774 85.9492 172.997 85.8477 173.278 85.7656C173.563 85.6797 173.868 85.6367 174.192 85.6367C174.68 85.6367 175.108 85.707 175.475 85.8477C175.846 85.9883 176.12 86.1797 176.296 86.4219C176.471 86.6602 176.593 86.9805 176.659 87.3828L175.628 87.5234C175.581 87.2031 175.444 86.9531 175.218 86.7734C174.995 86.5938 174.679 86.5039 174.268 86.5039C173.784 86.5039 173.438 86.584 173.231 86.7441C173.024 86.9043 172.921 87.0918 172.921 87.3066C172.921 87.4434 172.964 87.5664 173.05 87.6758C173.136 87.7891 173.27 87.8828 173.454 87.957C173.559 87.9961 173.87 88.0859 174.386 88.2266C175.132 88.4258 175.651 88.5898 175.944 88.7188C176.241 88.8438 176.473 89.0273 176.641 89.2695C176.809 89.5117 176.893 89.8125 176.893 90.1719C176.893 90.5234 176.79 90.8555 176.583 91.168C176.38 91.4766 176.085 91.7168 175.698 91.8887C175.311 92.0566 174.874 92.1406 174.386 92.1406C173.577 92.1406 172.96 91.9727 172.534 91.6367C172.112 91.3008 171.843 90.8027 171.725 90.1426ZM184.419 92V88.3613L181.109 83.4102H182.491L184.185 86C184.497 86.4844 184.788 86.9688 185.058 87.4531C185.316 87.0039 185.628 86.498 185.995 85.9355L187.659 83.4102H188.984L185.556 88.3613V92H184.419ZM193.327 89.9961L194.416 90.1309C194.245 90.7676 193.926 91.2617 193.461 91.6133C192.996 91.9648 192.403 92.1406 191.68 92.1406C190.77 92.1406 190.047 91.8613 189.512 91.3027C188.981 90.7402 188.715 89.9531 188.715 88.9414C188.715 87.8945 188.985 87.082 189.524 86.5039C190.063 85.9258 190.762 85.6367 191.621 85.6367C192.454 85.6367 193.133 85.9199 193.661 86.4863C194.188 87.0527 194.452 87.8496 194.452 88.877C194.452 88.9395 194.45 89.0332 194.446 89.1582H189.805C189.844 89.8418 190.037 90.3652 190.385 90.7285C190.733 91.0918 191.166 91.2734 191.686 91.2734C192.073 91.2734 192.403 91.1719 192.676 90.9688C192.95 90.7656 193.166 90.4414 193.327 89.9961ZM189.864 88.291H193.338C193.291 87.7676 193.159 87.375 192.94 87.1133C192.604 86.707 192.168 86.5039 191.633 86.5039C191.149 86.5039 190.741 86.666 190.409 86.9902C190.08 87.3145 189.899 87.748 189.864 88.291ZM200.107 91.2324C199.716 91.5645 199.339 91.7988 198.976 91.9355C198.617 92.0723 198.23 92.1406 197.816 92.1406C197.132 92.1406 196.607 91.9746 196.24 91.6426C195.873 91.3066 195.689 90.8789 195.689 90.3594C195.689 90.0547 195.757 89.7773 195.894 89.5273C196.035 89.2734 196.216 89.0703 196.439 88.918C196.666 88.7656 196.92 88.6504 197.201 88.5723C197.408 88.5176 197.72 88.4648 198.138 88.4141C198.99 88.3125 199.617 88.1914 200.019 88.0508C200.023 87.9062 200.025 87.8145 200.025 87.7754C200.025 87.3457 199.925 87.043 199.726 86.8672C199.457 86.6289 199.056 86.5098 198.525 86.5098C198.029 86.5098 197.662 86.5977 197.423 86.7734C197.189 86.9453 197.015 87.252 196.902 87.6934L195.871 87.5527C195.964 87.1113 196.119 86.7559 196.334 86.4863C196.548 86.2129 196.859 86.0039 197.265 85.8594C197.671 85.7109 198.142 85.6367 198.677 85.6367C199.209 85.6367 199.64 85.6992 199.972 85.8242C200.304 85.9492 200.548 86.1074 200.705 86.2988C200.861 86.4863 200.97 86.7246 201.033 87.0137C201.068 87.1934 201.086 87.5176 201.086 87.9863V89.3926C201.086 90.373 201.107 90.9941 201.15 91.2559C201.197 91.5137 201.287 91.7617 201.42 92H200.318C200.209 91.7812 200.138 91.5254 200.107 91.2324ZM200.019 88.877C199.636 89.0332 199.062 89.166 198.296 89.2754C197.863 89.3379 197.556 89.4082 197.377 89.4863C197.197 89.5645 197.058 89.6797 196.961 89.832C196.863 89.9805 196.814 90.1465 196.814 90.3301C196.814 90.6113 196.92 90.8457 197.13 91.0332C197.345 91.2207 197.658 91.3145 198.068 91.3145C198.474 91.3145 198.836 91.2266 199.152 91.0508C199.468 90.8711 199.701 90.627 199.849 90.3184C199.962 90.0801 200.019 89.7285 200.019 89.2637V88.877ZM203.014 92V85.7773H203.964V86.7207C204.206 86.2793 204.429 85.9883 204.632 85.8477C204.839 85.707 205.065 85.6367 205.311 85.6367C205.667 85.6367 206.028 85.75 206.395 85.9766L206.032 86.9551C205.774 86.8027 205.516 86.7266 205.259 86.7266C205.028 86.7266 204.821 86.7969 204.637 86.9375C204.454 87.0742 204.323 87.2656 204.245 87.5117C204.128 87.8867 204.069 88.2969 204.069 88.7422V92H203.014Z" fill="black"/>
<path d="M264.56 91V83.4238H261.73V82.4102H268.539V83.4238H265.697V91H264.56ZM269.876 91V82.4102H270.93V85.4922C271.423 84.9219 272.044 84.6367 272.794 84.6367C273.255 84.6367 273.655 84.7285 273.995 84.9121C274.335 85.0918 274.577 85.3418 274.721 85.6621C274.87 85.9824 274.944 86.4473 274.944 87.0566V91H273.889V87.0566C273.889 86.5293 273.774 86.1465 273.544 85.9082C273.317 85.666 272.995 85.5449 272.577 85.5449C272.264 85.5449 271.97 85.627 271.692 85.791C271.419 85.9512 271.223 86.1699 271.106 86.4473C270.989 86.7246 270.93 87.1074 270.93 87.5957V91H269.876ZM276.861 83.623V82.4102H277.916V83.623H276.861ZM276.861 91V84.7773H277.916V91H276.861ZM279.405 89.1426L280.448 88.9785C280.507 89.3965 280.669 89.7168 280.935 89.9395C281.204 90.1621 281.579 90.2734 282.06 90.2734C282.544 90.2734 282.904 90.1758 283.138 89.9805C283.372 89.7812 283.489 89.5488 283.489 89.2832C283.489 89.0449 283.386 88.8574 283.179 88.7207C283.034 88.627 282.675 88.5078 282.101 88.3633C281.327 88.168 280.79 88 280.489 87.8594C280.193 87.7148 279.966 87.5176 279.81 87.2676C279.657 87.0137 279.581 86.7344 279.581 86.4297C279.581 86.1523 279.644 85.8965 279.769 85.6621C279.898 85.4238 280.071 85.2266 280.29 85.0703C280.454 84.9492 280.677 84.8477 280.958 84.7656C281.243 84.6797 281.548 84.6367 281.872 84.6367C282.361 84.6367 282.788 84.707 283.155 84.8477C283.527 84.9883 283.8 85.1797 283.976 85.4219C284.152 85.6602 284.273 85.9805 284.339 86.3828L283.308 86.5234C283.261 86.2031 283.124 85.9531 282.898 85.7734C282.675 85.5938 282.359 85.5039 281.948 85.5039C281.464 85.5039 281.118 85.584 280.911 85.7441C280.704 85.9043 280.601 86.0918 280.601 86.3066C280.601 86.4434 280.644 86.5664 280.73 86.6758C280.816 86.7891 280.95 86.8828 281.134 86.957C281.239 86.9961 281.55 87.0859 282.066 87.2266C282.812 87.4258 283.331 87.5898 283.624 87.7188C283.921 87.8438 284.154 88.0273 284.321 88.2695C284.489 88.5117 284.573 88.8125 284.573 89.1719C284.573 89.5234 284.47 89.8555 284.263 90.168C284.06 90.4766 283.765 90.7168 283.378 90.8887C282.991 91.0566 282.554 91.1406 282.066 91.1406C281.257 91.1406 280.64 90.9727 280.214 90.6367C279.792 90.3008 279.523 89.8027 279.405 89.1426ZM289.867 91V82.4102H291.578L293.611 88.4922C293.798 89.0586 293.935 89.4824 294.021 89.7637C294.119 89.4512 294.271 88.9922 294.478 88.3867L296.535 82.4102H298.064V91H296.968V83.8105L294.472 91H293.447L290.963 83.6875V91H289.867ZM299.671 87.8887C299.671 86.7363 299.991 85.8828 300.632 85.3281C301.167 84.8672 301.819 84.6367 302.589 84.6367C303.444 84.6367 304.143 84.918 304.686 85.4805C305.229 86.0391 305.501 86.8125 305.501 87.8008C305.501 88.6016 305.38 89.2324 305.137 89.6934C304.899 90.1504 304.55 90.5059 304.089 90.7598C303.632 91.0137 303.132 91.1406 302.589 91.1406C301.718 91.1406 301.012 90.8613 300.473 90.3027C299.938 89.7441 299.671 88.9395 299.671 87.8887ZM300.755 87.8887C300.755 88.6855 300.929 89.2832 301.276 89.6816C301.624 90.0762 302.061 90.2734 302.589 90.2734C303.112 90.2734 303.548 90.0742 303.895 89.6758C304.243 89.2773 304.417 88.6699 304.417 87.8535C304.417 87.084 304.241 86.502 303.889 86.1074C303.542 85.709 303.108 85.5098 302.589 85.5098C302.061 85.5098 301.624 85.707 301.276 86.1016C300.929 86.4961 300.755 87.0918 300.755 87.8887ZM307.043 91V84.7773H307.992V85.6621C308.449 84.9785 309.109 84.6367 309.973 84.6367C310.348 84.6367 310.691 84.7051 311.004 84.8418C311.32 84.9746 311.557 85.1504 311.713 85.3691C311.869 85.5879 311.979 85.8477 312.041 86.1484C312.08 86.3438 312.1 86.6855 312.1 87.1738V91H311.045V87.2148C311.045 86.7852 311.004 86.4648 310.922 86.2539C310.84 86.0391 310.693 85.8691 310.482 85.7441C310.275 85.6152 310.031 85.5508 309.75 85.5508C309.301 85.5508 308.912 85.6934 308.584 85.9785C308.26 86.2637 308.098 86.8047 308.098 87.6016V91H307.043ZM316.325 90.0566L316.478 90.9883C316.181 91.0508 315.915 91.082 315.681 91.082C315.298 91.082 315.001 91.0215 314.79 90.9004C314.579 90.7793 314.431 90.6211 314.345 90.4258C314.259 90.2266 314.216 89.8105 314.216 89.1777V85.5977H313.443V84.7773H314.216V83.2363L315.265 82.6035V84.7773H316.325V85.5977H315.265V89.2363C315.265 89.5371 315.282 89.7305 315.318 89.8164C315.357 89.9023 315.417 89.9707 315.499 90.0215C315.585 90.0723 315.706 90.0977 315.863 90.0977C315.98 90.0977 316.134 90.084 316.325 90.0566ZM317.662 91V82.4102H318.717V85.4922C319.209 84.9219 319.83 84.6367 320.58 84.6367C321.041 84.6367 321.442 84.7285 321.782 84.9121C322.121 85.0918 322.364 85.3418 322.508 85.6621C322.657 85.9824 322.731 86.4473 322.731 87.0566V91H321.676V87.0566C321.676 86.5293 321.561 86.1465 321.33 85.9082C321.104 85.666 320.782 85.5449 320.364 85.5449C320.051 85.5449 319.756 85.627 319.479 85.791C319.205 85.9512 319.01 86.1699 318.893 86.4473C318.776 86.7246 318.717 87.1074 318.717 87.5957V91H317.662Z" fill="black"/>
<rect x="124.5" y="75.5" width="224" height="24" stroke="#007DC6"/>
<path d="M49.4792 175.05L40.0557 185.122L49.6355 195.55" stroke="#3070C7" stroke-width="2"/>
<path d="M325.266 195.5L334.766 185.5L325.266 175" stroke="#3070C7" stroke-width="2"/>
<defs>
<filter id="filter0_d" x="-20" y="0" width="415" height="364" filterUnits="userSpaceOnUse" color-interpolation-filters="sRGB">
<feFlood flood-opacity="0" result="BackgroundImageFix"/>
<feColorMatrix in="SourceAlpha" type="matrix" values="0 0 0 0 0 0 0 0 0 0 0 0 0 0 0 0 0 0 127 0"/>
<feOffset dy="-2"/>
<feGaussianBlur stdDeviation="10"/>
<feColorMatrix type="matrix" values="0 0 0 0 0 0 0 0 0 0 0 0 0 0 0 0 0 0 0.1 0"/>
<feBlend mode="normal" in2="BackgroundImageFix" result="effect1_dropShadow"/>
<feBlend mode="normal" in="SourceGraphic" in2="effect1_dropShadow" result="shape"/>
</filter>
</defs>
</svg>
