<svg width="382" height="30" viewBox="0 0 382 30" fill="none" xmlns="http://www.w3.org/2000/svg">
<path d="M46 1H12.5C12.5 1 1 2 1 13.5C1 25 12.5 28 12.5 28H46.5C46.5 28 57 23.5 57 13.5C57 3.5 46 1 46 1Z" stroke="black" stroke-width="1.5"/>
<path d="M11.5391 16.2402L12.6113 16.1465C12.6621 16.5762 12.7793 16.9297 12.9629 17.207C13.1504 17.4805 13.4395 17.7031 13.8301 17.875C14.2207 18.043 14.6602 18.127 15.1484 18.127C15.582 18.127 15.9648 18.0625 16.2969 17.9336C16.6289 17.8047 16.875 17.6289 17.0352 17.4062C17.1992 17.1797 17.2812 16.9336 17.2812 16.668C17.2812 16.3984 17.2031 16.1641 17.0469 15.9648C16.8906 15.7617 16.6328 15.5918 16.2734 15.4551C16.043 15.3652 15.5332 15.2266 14.7441 15.0391C13.9551 14.8477 13.4023 14.668 13.0859 14.5C12.6758 14.2852 12.3691 14.0195 12.166 13.7031C11.9668 13.3828 11.8672 13.0254 11.8672 12.6309C11.8672 12.1973 11.9902 11.793 12.2363 11.418C12.4824 11.0391 12.8418 10.752 13.3145 10.5566C13.7871 10.3613 14.3125 10.2637 14.8906 10.2637C15.5273 10.2637 16.0879 10.3672 16.5723 10.5742C17.0605 10.7773 17.4355 11.0781 17.6973 11.4766C17.959 11.875 18.0996 12.3262 18.1191 12.8301L17.0293 12.9121C16.9707 12.3691 16.7715 11.959 16.4316 11.6816C16.0957 11.4043 15.5977 11.2656 14.9375 11.2656C14.25 11.2656 13.748 11.3926 13.4316 11.6465C13.1191 11.8965 12.9629 12.1992 12.9629 12.5547C12.9629 12.8633 13.0742 13.1172 13.2969 13.3164C13.5156 13.5156 14.0859 13.7207 15.0078 13.9316C15.9336 14.1387 16.5684 14.3203 16.9121 14.4766C17.4121 14.707 17.7812 15 18.0195 15.3555C18.2578 15.707 18.377 16.1133 18.377 16.5742C18.377 17.0312 18.2461 17.4629 17.9844 17.8691C17.7227 18.2715 17.3457 18.5859 16.8535 18.8125C16.3652 19.0352 15.8145 19.1465 15.2012 19.1465C14.4238 19.1465 13.7715 19.0332 13.2441 18.8066C12.7207 18.5801 12.3086 18.2402 12.0078 17.7871C11.7109 17.3301 11.5547 16.8145 11.5391 16.2402ZM20.1008 11.623V10.4102H21.1555V11.623H20.1008ZM20.1008 19V12.7773H21.1555V19H20.1008ZM22.5102 19V18.1445L26.4711 13.5977C26.0219 13.6211 25.6254 13.6328 25.2816 13.6328H22.7445V12.7773H27.8305V13.4746L24.4613 17.4238L23.8109 18.1445C24.2836 18.1094 24.727 18.0918 25.141 18.0918H28.018V19H22.5102ZM33.6266 16.9961L34.7164 17.1309C34.5445 17.7676 34.2262 18.2617 33.7613 18.6133C33.2965 18.9648 32.7027 19.1406 31.9801 19.1406C31.0699 19.1406 30.3473 18.8613 29.8121 18.3027C29.2809 17.7402 29.0152 16.9531 29.0152 15.9414C29.0152 14.8945 29.2848 14.082 29.8238 13.5039C30.3629 12.9258 31.0621 12.6367 31.9215 12.6367C32.7535 12.6367 33.4332 12.9199 33.9605 13.4863C34.4879 14.0527 34.7516 14.8496 34.7516 15.877C34.7516 15.9395 34.7496 16.0332 34.7457 16.1582H30.1051C30.1441 16.8418 30.3375 17.3652 30.6852 17.7285C31.0328 18.0918 31.4664 18.2734 31.9859 18.2734C32.3727 18.2734 32.7027 18.1719 32.9762 17.9688C33.2496 17.7656 33.4664 17.4414 33.6266 16.9961ZM30.1637 15.291H33.6383C33.5914 14.7676 33.4586 14.375 33.2398 14.1133C32.9039 13.707 32.4684 13.5039 31.9332 13.5039C31.4488 13.5039 31.0406 13.666 30.7086 13.9902C30.3805 14.3145 30.1988 14.748 30.1637 15.291ZM43.666 19H42.6113V12.2793C42.3574 12.5215 42.0234 12.7637 41.6094 13.0059C41.1992 13.248 40.8301 13.4297 40.502 13.5508V12.5312C41.0918 12.2539 41.6074 11.918 42.0488 11.5234C42.4902 11.1289 42.8027 10.7461 42.9863 10.375H43.666V19Z" fill="black"/>
<path d="M110 1.37502C107.5 0.87502 78 0.874966 76.5 1.37502C75 1.87507 65 2.37502 65 13.875C65 25.375 75 27.875 76.5 28.375C78 28.875 108.5 28.875 110.5 28.375C112.5 27.875 121 23.875 121 13.875C121 3.87502 112.5 1.87502 110 1.37502Z" stroke="black" stroke-width="1.5"/>
<path d="M77.5391 16.2402L78.6113 16.1465C78.6621 16.5762 78.7793 16.9297 78.9629 17.207C79.1504 17.4805 79.4395 17.7031 79.8301 17.875C80.2207 18.043 80.6602 18.127 81.1484 18.127C81.582 18.127 81.9648 18.0625 82.2969 17.9336C82.6289 17.8047 82.875 17.6289 83.0352 17.4062C83.1992 17.1797 83.2812 16.9336 83.2812 16.668C83.2812 16.3984 83.2031 16.1641 83.0469 15.9648C82.8906 15.7617 82.6328 15.5918 82.2734 15.4551C82.043 15.3652 81.5332 15.2266 80.7441 15.0391C79.9551 14.8477 79.4023 14.668 79.0859 14.5C78.6758 14.2852 78.3691 14.0195 78.166 13.7031C77.9668 13.3828 77.8672 13.0254 77.8672 12.6309C77.8672 12.1973 77.9902 11.793 78.2363 11.418C78.4824 11.0391 78.8418 10.752 79.3145 10.5566C79.7871 10.3613 80.3125 10.2637 80.8906 10.2637C81.5273 10.2637 82.0879 10.3672 82.5723 10.5742C83.0605 10.7773 83.4355 11.0781 83.6973 11.4766C83.959 11.875 84.0996 12.3262 84.1191 12.8301L83.0293 12.9121C82.9707 12.3691 82.7715 11.959 82.4316 11.6816C82.0957 11.4043 81.5977 11.2656 80.9375 11.2656C80.25 11.2656 79.748 11.3926 79.4316 11.6465C79.1191 11.8965 78.9629 12.1992 78.9629 12.5547C78.9629 12.8633 79.0742 13.1172 79.2969 13.3164C79.5156 13.5156 80.0859 13.7207 81.0078 13.9316C81.9336 14.1387 82.5684 14.3203 82.9121 14.4766C83.4121 14.707 83.7812 15 84.0195 15.3555C84.2578 15.707 84.377 16.1133 84.377 16.5742C84.377 17.0312 84.2461 17.4629 83.9844 17.8691C83.7227 18.2715 83.3457 18.5859 82.8535 18.8125C82.3652 19.0352 81.8145 19.1465 81.2012 19.1465C80.4238 19.1465 79.7715 19.0332 79.2441 18.8066C78.7207 18.5801 78.3086 18.2402 78.0078 17.7871C77.7109 17.3301 77.5547 16.8145 77.5391 16.2402ZM86.1008 11.623V10.4102H87.1555V11.623H86.1008ZM86.1008 19V12.7773H87.1555V19H86.1008ZM88.5102 19V18.1445L92.4711 13.5977C92.0219 13.6211 91.6254 13.6328 91.2816 13.6328H88.7445V12.7773H93.8305V13.4746L90.4613 17.4238L89.8109 18.1445C90.2836 18.1094 90.727 18.0918 91.141 18.0918H94.018V19H88.5102ZM99.6266 16.9961L100.716 17.1309C100.545 17.7676 100.226 18.2617 99.7613 18.6133C99.2965 18.9648 98.7027 19.1406 97.9801 19.1406C97.0699 19.1406 96.3473 18.8613 95.8121 18.3027C95.2809 17.7402 95.0152 16.9531 95.0152 15.9414C95.0152 14.8945 95.2848 14.082 95.8238 13.5039C96.3629 12.9258 97.0621 12.6367 97.9215 12.6367C98.7535 12.6367 99.4332 12.9199 99.9605 13.4863C100.488 14.0527 100.752 14.8496 100.752 15.877C100.752 15.9395 100.75 16.0332 100.746 16.1582H96.1051C96.1441 16.8418 96.3375 17.3652 96.6852 17.7285C97.0328 18.0918 97.4664 18.2734 97.9859 18.2734C98.3727 18.2734 98.7027 18.1719 98.9762 17.9688C99.2496 17.7656 99.4664 17.4414 99.6266 16.9961ZM96.1637 15.291H99.6383C99.5914 14.7676 99.4586 14.375 99.2398 14.1133C98.9039 13.707 98.4684 13.5039 97.9332 13.5039C97.4488 13.5039 97.0406 13.666 96.7086 13.9902C96.3805 14.3145 96.1988 14.748 96.1637 15.291ZM111.236 17.9863V19H105.559C105.551 18.7461 105.592 18.502 105.682 18.2676C105.826 17.8809 106.057 17.5 106.373 17.125C106.693 16.75 107.154 16.3164 107.756 15.8242C108.689 15.0586 109.32 14.4531 109.648 14.0078C109.977 13.5586 110.141 13.1348 110.141 12.7363C110.141 12.3184 109.99 11.9668 109.689 11.6816C109.393 11.3926 109.004 11.248 108.523 11.248C108.016 11.248 107.609 11.4004 107.305 11.7051C107 12.0098 106.846 12.4316 106.842 12.9707L105.758 12.8594C105.832 12.0508 106.111 11.4355 106.596 11.0137C107.08 10.5879 107.73 10.375 108.547 10.375C109.371 10.375 110.023 10.6035 110.504 11.0605C110.984 11.5176 111.225 12.084 111.225 12.7598C111.225 13.1035 111.154 13.4414 111.014 13.7734C110.873 14.1055 110.639 14.4551 110.311 14.8223C109.986 15.1895 109.445 15.6934 108.688 16.334C108.055 16.8652 107.648 17.2266 107.469 17.418C107.289 17.6055 107.141 17.7949 107.023 17.9863H111.236Z" fill="black"/>
<path d="M140.539 15.2402L141.611 15.1465C141.662 15.5762 141.779 15.9297 141.963 16.207C142.15 16.4805 142.439 16.7031 142.83 16.875C143.221 17.043 143.66 17.127 144.148 17.127C144.582 17.127 144.965 17.0625 145.297 16.9336C145.629 16.8047 145.875 16.6289 146.035 16.4062C146.199 16.1797 146.281 15.9336 146.281 15.668C146.281 15.3984 146.203 15.1641 146.047 14.9648C145.891 14.7617 145.633 14.5918 145.273 14.4551C145.043 14.3652 144.533 14.2266 143.744 14.0391C142.955 13.8477 142.402 13.668 142.086 13.5C141.676 13.2852 141.369 13.0195 141.166 12.7031C140.967 12.3828 140.867 12.0254 140.867 11.6309C140.867 11.1973 140.99 10.793 141.236 10.418C141.482 10.0391 141.842 9.75195 142.314 9.55664C142.787 9.36133 143.312 9.26367 143.891 9.26367C144.527 9.26367 145.088 9.36719 145.572 9.57422C146.061 9.77734 146.436 10.0781 146.697 10.4766C146.959 10.875 147.1 11.3262 147.119 11.8301L146.029 11.9121C145.971 11.3691 145.771 10.959 145.432 10.6816C145.096 10.4043 144.598 10.2656 143.938 10.2656C143.25 10.2656 142.748 10.3926 142.432 10.6465C142.119 10.8965 141.963 11.1992 141.963 11.5547C141.963 11.8633 142.074 12.1172 142.297 12.3164C142.516 12.5156 143.086 12.7207 144.008 12.9316C144.934 13.1387 145.568 13.3203 145.912 13.4766C146.412 13.707 146.781 14 147.02 14.3555C147.258 14.707 147.377 15.1133 147.377 15.5742C147.377 16.0312 147.246 16.4629 146.984 16.8691C146.723 17.2715 146.346 17.5859 145.854 17.8125C145.365 18.0352 144.814 18.1465 144.201 18.1465C143.424 18.1465 142.771 18.0332 142.244 17.8066C141.721 17.5801 141.309 17.2402 141.008 16.7871C140.711 16.3301 140.555 15.8145 140.539 15.2402ZM149.101 10.623V9.41016H150.155V10.623H149.101ZM149.101 18V11.7773H150.155V18H149.101ZM151.51 18V17.1445L155.471 12.5977C155.022 12.6211 154.625 12.6328 154.282 12.6328H151.745V11.7773H156.83V12.4746L153.461 16.4238L152.811 17.1445C153.284 17.1094 153.727 17.0918 154.141 17.0918H157.018V18H151.51ZM162.627 15.9961L163.716 16.1309C163.545 16.7676 163.226 17.2617 162.761 17.6133C162.296 17.9648 161.703 18.1406 160.98 18.1406C160.07 18.1406 159.347 17.8613 158.812 17.3027C158.281 16.7402 158.015 15.9531 158.015 14.9414C158.015 13.8945 158.285 13.082 158.824 12.5039C159.363 11.9258 160.062 11.6367 160.921 11.6367C161.754 11.6367 162.433 11.9199 162.961 12.4863C163.488 13.0527 163.752 13.8496 163.752 14.877C163.752 14.9395 163.75 15.0332 163.746 15.1582H159.105C159.144 15.8418 159.337 16.3652 159.685 16.7285C160.033 17.0918 160.466 17.2734 160.986 17.2734C161.373 17.2734 161.703 17.1719 161.976 16.9688C162.25 16.7656 162.466 16.4414 162.627 15.9961ZM159.164 14.291H162.638C162.591 13.7676 162.459 13.375 162.24 13.1133C161.904 12.707 161.468 12.5039 160.933 12.5039C160.449 12.5039 160.041 12.666 159.709 12.9902C159.38 13.3145 159.199 13.748 159.164 14.291ZM168.699 15.7324L169.754 15.5918C169.875 16.1895 170.08 16.6211 170.369 16.8867C170.662 17.1484 171.018 17.2793 171.436 17.2793C171.932 17.2793 172.35 17.1074 172.689 16.7637C173.033 16.4199 173.205 15.9941 173.205 15.4863C173.205 15.002 173.047 14.6035 172.73 14.291C172.414 13.9746 172.012 13.8164 171.523 13.8164C171.324 13.8164 171.076 13.8555 170.779 13.9336L170.896 13.0078C170.967 13.0156 171.023 13.0195 171.066 13.0195C171.516 13.0195 171.92 12.9023 172.279 12.668C172.639 12.4336 172.818 12.0723 172.818 11.584C172.818 11.1973 172.688 10.877 172.426 10.623C172.164 10.3691 171.826 10.2422 171.412 10.2422C171.002 10.2422 170.66 10.3711 170.387 10.6289C170.113 10.8867 169.938 11.2734 169.859 11.7891L168.805 11.6016C168.934 10.8945 169.227 10.3477 169.684 9.96094C170.141 9.57031 170.709 9.375 171.389 9.375C171.857 9.375 172.289 9.47656 172.684 9.67969C173.078 9.87891 173.379 10.1523 173.586 10.5C173.797 10.8477 173.902 11.2168 173.902 11.6074C173.902 11.9785 173.803 12.3164 173.604 12.6211C173.404 12.9258 173.109 13.168 172.719 13.3477C173.227 13.4648 173.621 13.709 173.902 14.0801C174.184 14.4473 174.324 14.9082 174.324 15.4629C174.324 16.2129 174.051 16.8496 173.504 17.373C172.957 17.8926 172.266 18.1523 171.43 18.1523C170.676 18.1523 170.049 17.9277 169.549 17.4785C169.053 17.0293 168.77 16.4473 168.699 15.7324Z" fill="black"/>
<path d="M174 1.37502C171.5 0.87502 142 0.874966 140.5 1.37502C139 1.87507 129 2.37502 129 13.875C129 25.375 139 27.875 140.5 28.375C142 28.875 172.5 28.875 174.5 28.375C176.5 27.875 185 23.875 185 13.875C185 3.87502 176.5 1.87502 174 1.37502Z" stroke="black" stroke-width="1.5"/>
<path d="M205.539 15.2402L206.611 15.1465C206.662 15.5762 206.779 15.9297 206.963 16.207C207.15 16.4805 207.439 16.7031 207.83 16.875C208.221 17.043 208.66 17.127 209.148 17.127C209.582 17.127 209.965 17.0625 210.297 16.9336C210.629 16.8047 210.875 16.6289 211.035 16.4062C211.199 16.1797 211.281 15.9336 211.281 15.668C211.281 15.3984 211.203 15.1641 211.047 14.9648C210.891 14.7617 210.633 14.5918 210.273 14.4551C210.043 14.3652 209.533 14.2266 208.744 14.0391C207.955 13.8477 207.402 13.668 207.086 13.5C206.676 13.2852 206.369 13.0195 206.166 12.7031C205.967 12.3828 205.867 12.0254 205.867 11.6309C205.867 11.1973 205.99 10.793 206.236 10.418C206.482 10.0391 206.842 9.75195 207.314 9.55664C207.787 9.36133 208.312 9.26367 208.891 9.26367C209.527 9.26367 210.088 9.36719 210.572 9.57422C211.061 9.77734 211.436 10.0781 211.697 10.4766C211.959 10.875 212.1 11.3262 212.119 11.8301L211.029 11.9121C210.971 11.3691 210.771 10.959 210.432 10.6816C210.096 10.4043 209.598 10.2656 208.938 10.2656C208.25 10.2656 207.748 10.3926 207.432 10.6465C207.119 10.8965 206.963 11.1992 206.963 11.5547C206.963 11.8633 207.074 12.1172 207.297 12.3164C207.516 12.5156 208.086 12.7207 209.008 12.9316C209.934 13.1387 210.568 13.3203 210.912 13.4766C211.412 13.707 211.781 14 212.02 14.3555C212.258 14.707 212.377 15.1133 212.377 15.5742C212.377 16.0312 212.246 16.4629 211.984 16.8691C211.723 17.2715 211.346 17.5859 210.854 17.8125C210.365 18.0352 209.814 18.1465 209.201 18.1465C208.424 18.1465 207.771 18.0332 207.244 17.8066C206.721 17.5801 206.309 17.2402 206.008 16.7871C205.711 16.3301 205.555 15.8145 205.539 15.2402ZM214.101 10.623V9.41016H215.155V10.623H214.101ZM214.101 18V11.7773H215.155V18H214.101ZM216.51 18V17.1445L220.471 12.5977C220.022 12.6211 219.625 12.6328 219.282 12.6328H216.745V11.7773H221.83V12.4746L218.461 16.4238L217.811 17.1445C218.284 17.1094 218.727 17.0918 219.141 17.0918H222.018V18H216.51ZM227.627 15.9961L228.716 16.1309C228.545 16.7676 228.226 17.2617 227.761 17.6133C227.296 17.9648 226.703 18.1406 225.98 18.1406C225.07 18.1406 224.347 17.8613 223.812 17.3027C223.281 16.7402 223.015 15.9531 223.015 14.9414C223.015 13.8945 223.285 13.082 223.824 12.5039C224.363 11.9258 225.062 11.6367 225.921 11.6367C226.754 11.6367 227.433 11.9199 227.961 12.4863C228.488 13.0527 228.752 13.8496 228.752 14.877C228.752 14.9395 228.75 15.0332 228.746 15.1582H224.105C224.144 15.8418 224.337 16.3652 224.685 16.7285C225.033 17.0918 225.466 17.2734 225.986 17.2734C226.373 17.2734 226.703 17.1719 226.976 16.9688C227.25 16.7656 227.466 16.4414 227.627 15.9961ZM224.164 14.291H227.638C227.591 13.7676 227.459 13.375 227.24 13.1133C226.904 12.707 226.468 12.5039 225.933 12.5039C225.449 12.5039 225.041 12.666 224.709 12.9902C224.38 13.3145 224.199 13.748 224.164 14.291ZM237.074 18V15.9434H233.348V14.9766L237.268 9.41016H238.129V14.9766H239.289V15.9434H238.129V18H237.074ZM237.074 14.9766V11.1035L234.385 14.9766H237.074Z" fill="black"/>
<path d="M238 1.37502C235.5 0.87502 206 0.874966 204.5 1.37502C203 1.87507 193 2.37502 193 13.875C193 25.375 203 27.875 204.5 28.375C206 28.875 236.5 28.875 238.5 28.375C240.5 27.875 249 23.875 249 13.875C249 3.87502 240.5 1.87502 238 1.37502Z" stroke="black" stroke-width="1.5"/>
<path d="M267.539 16.2402L268.611 16.1465C268.662 16.5762 268.779 16.9297 268.963 17.207C269.15 17.4805 269.439 17.7031 269.83 17.875C270.221 18.043 270.66 18.127 271.148 18.127C271.582 18.127 271.965 18.0625 272.297 17.9336C272.629 17.8047 272.875 17.6289 273.035 17.4062C273.199 17.1797 273.281 16.9336 273.281 16.668C273.281 16.3984 273.203 16.1641 273.047 15.9648C272.891 15.7617 272.633 15.5918 272.273 15.4551C272.043 15.3652 271.533 15.2266 270.744 15.0391C269.955 14.8477 269.402 14.668 269.086 14.5C268.676 14.2852 268.369 14.0195 268.166 13.7031C267.967 13.3828 267.867 13.0254 267.867 12.6309C267.867 12.1973 267.99 11.793 268.236 11.418C268.482 11.0391 268.842 10.752 269.314 10.5566C269.787 10.3613 270.312 10.2637 270.891 10.2637C271.527 10.2637 272.088 10.3672 272.572 10.5742C273.061 10.7773 273.436 11.0781 273.697 11.4766C273.959 11.875 274.1 12.3262 274.119 12.8301L273.029 12.9121C272.971 12.3691 272.771 11.959 272.432 11.6816C272.096 11.4043 271.598 11.2656 270.938 11.2656C270.25 11.2656 269.748 11.3926 269.432 11.6465C269.119 11.8965 268.963 12.1992 268.963 12.5547C268.963 12.8633 269.074 13.1172 269.297 13.3164C269.516 13.5156 270.086 13.7207 271.008 13.9316C271.934 14.1387 272.568 14.3203 272.912 14.4766C273.412 14.707 273.781 15 274.02 15.3555C274.258 15.707 274.377 16.1133 274.377 16.5742C274.377 17.0312 274.246 17.4629 273.984 17.8691C273.723 18.2715 273.346 18.5859 272.854 18.8125C272.365 19.0352 271.814 19.1465 271.201 19.1465C270.424 19.1465 269.771 19.0332 269.244 18.8066C268.721 18.5801 268.309 18.2402 268.008 17.7871C267.711 17.3301 267.555 16.8145 267.539 16.2402ZM276.101 11.623V10.4102H277.155V11.623H276.101ZM276.101 19V12.7773H277.155V19H276.101ZM278.51 19V18.1445L282.471 13.5977C282.022 13.6211 281.625 13.6328 281.282 13.6328H278.745V12.7773H283.83V13.4746L280.461 17.4238L279.811 18.1445C280.284 18.1094 280.727 18.0918 281.141 18.0918H284.018V19H278.51ZM289.627 16.9961L290.716 17.1309C290.545 17.7676 290.226 18.2617 289.761 18.6133C289.296 18.9648 288.703 19.1406 287.98 19.1406C287.07 19.1406 286.347 18.8613 285.812 18.3027C285.281 17.7402 285.015 16.9531 285.015 15.9414C285.015 14.8945 285.285 14.082 285.824 13.5039C286.363 12.9258 287.062 12.6367 287.921 12.6367C288.754 12.6367 289.433 12.9199 289.961 13.4863C290.488 14.0527 290.752 14.8496 290.752 15.877C290.752 15.9395 290.75 16.0332 290.746 16.1582H286.105C286.144 16.8418 286.337 17.3652 286.685 17.7285C287.033 18.0918 287.466 18.2734 287.986 18.2734C288.373 18.2734 288.703 18.1719 288.976 17.9688C289.25 17.7656 289.466 17.4414 289.627 16.9961ZM286.164 15.291H289.638C289.591 14.7676 289.459 14.375 289.24 14.1133C288.904 13.707 288.468 13.5039 287.933 13.5039C287.449 13.5039 287.041 13.666 286.709 13.9902C286.38 14.3145 286.199 14.748 286.164 15.291ZM295.693 16.75L296.801 16.6562C296.883 17.1953 297.072 17.6016 297.369 17.875C297.67 18.1445 298.031 18.2793 298.453 18.2793C298.961 18.2793 299.391 18.0879 299.742 17.7051C300.094 17.3223 300.27 16.8145 300.27 16.1816C300.27 15.5801 300.1 15.1055 299.76 14.7578C299.424 14.4102 298.982 14.2363 298.436 14.2363C298.096 14.2363 297.789 14.3145 297.516 14.4707C297.242 14.623 297.027 14.8223 296.871 15.0684L295.881 14.9395L296.713 10.5273H300.984V11.5352H297.557L297.094 13.8438C297.609 13.4844 298.15 13.3047 298.717 13.3047C299.467 13.3047 300.1 13.5645 300.615 14.084C301.131 14.6035 301.389 15.2715 301.389 16.0879C301.389 16.8652 301.162 17.5371 300.709 18.1035C300.158 18.7988 299.406 19.1465 298.453 19.1465C297.672 19.1465 297.033 18.9277 296.537 18.4902C296.045 18.0527 295.764 17.4727 295.693 16.75Z" fill="#3A79CB"/>
<path d="M302 1.37502C299.5 0.87502 270 0.874966 268.5 1.37502C267 1.87507 257 2.37502 257 13.875C257 25.375 267 27.875 268.5 28.375C270 28.875 300.5 28.875 302.5 28.375C304.5 27.875 313 23.875 313 13.875C313 3.87502 304.5 1.87502 302 1.37502Z" stroke="#3070C7" stroke-width="1.5"/>
<path d="M335.539 15.2402L336.611 15.1465C336.662 15.5762 336.779 15.9297 336.963 16.207C337.15 16.4805 337.439 16.7031 337.83 16.875C338.221 17.043 338.66 17.127 339.148 17.127C339.582 17.127 339.965 17.0625 340.297 16.9336C340.629 16.8047 340.875 16.6289 341.035 16.4062C341.199 16.1797 341.281 15.9336 341.281 15.668C341.281 15.3984 341.203 15.1641 341.047 14.9648C340.891 14.7617 340.633 14.5918 340.273 14.4551C340.043 14.3652 339.533 14.2266 338.744 14.0391C337.955 13.8477 337.402 13.668 337.086 13.5C336.676 13.2852 336.369 13.0195 336.166 12.7031C335.967 12.3828 335.867 12.0254 335.867 11.6309C335.867 11.1973 335.99 10.793 336.236 10.418C336.482 10.0391 336.842 9.75195 337.314 9.55664C337.787 9.36133 338.312 9.26367 338.891 9.26367C339.527 9.26367 340.088 9.36719 340.572 9.57422C341.061 9.77734 341.436 10.0781 341.697 10.4766C341.959 10.875 342.1 11.3262 342.119 11.8301L341.029 11.9121C340.971 11.3691 340.771 10.959 340.432 10.6816C340.096 10.4043 339.598 10.2656 338.938 10.2656C338.25 10.2656 337.748 10.3926 337.432 10.6465C337.119 10.8965 336.963 11.1992 336.963 11.5547C336.963 11.8633 337.074 12.1172 337.297 12.3164C337.516 12.5156 338.086 12.7207 339.008 12.9316C339.934 13.1387 340.568 13.3203 340.912 13.4766C341.412 13.707 341.781 14 342.02 14.3555C342.258 14.707 342.377 15.1133 342.377 15.5742C342.377 16.0312 342.246 16.4629 341.984 16.8691C341.723 17.2715 341.346 17.5859 340.854 17.8125C340.365 18.0352 339.814 18.1465 339.201 18.1465C338.424 18.1465 337.771 18.0332 337.244 17.8066C336.721 17.5801 336.309 17.2402 336.008 16.7871C335.711 16.3301 335.555 15.8145 335.539 15.2402ZM344.101 10.623V9.41016H345.155V10.623H344.101ZM344.101 18V11.7773H345.155V18H344.101ZM346.51 18V17.1445L350.471 12.5977C350.022 12.6211 349.625 12.6328 349.282 12.6328H346.745V11.7773H351.83V12.4746L348.461 16.4238L347.811 17.1445C348.284 17.1094 348.727 17.0918 349.141 17.0918H352.018V18H346.51ZM357.627 15.9961L358.716 16.1309C358.545 16.7676 358.226 17.2617 357.761 17.6133C357.296 17.9648 356.703 18.1406 355.98 18.1406C355.07 18.1406 354.347 17.8613 353.812 17.3027C353.281 16.7402 353.015 15.9531 353.015 14.9414C353.015 13.8945 353.285 13.082 353.824 12.5039C354.363 11.9258 355.062 11.6367 355.921 11.6367C356.754 11.6367 357.433 11.9199 357.961 12.4863C358.488 13.0527 358.752 13.8496 358.752 14.877C358.752 14.9395 358.75 15.0332 358.746 15.1582H354.105C354.144 15.8418 354.337 16.3652 354.685 16.7285C355.033 17.0918 355.466 17.2734 355.986 17.2734C356.373 17.2734 356.703 17.1719 356.976 16.9688C357.25 16.7656 357.466 16.4414 357.627 15.9961ZM354.164 14.291H357.638C357.591 13.7676 357.459 13.375 357.24 13.1133C356.904 12.707 356.468 12.5039 355.933 12.5039C355.449 12.5039 355.041 12.666 354.709 12.9902C354.38 13.3145 354.199 13.748 354.164 14.291ZM369.166 11.5137L368.117 11.5957C368.023 11.1816 367.891 10.8809 367.719 10.6934C367.434 10.3926 367.082 10.2422 366.664 10.2422C366.328 10.2422 366.033 10.3359 365.779 10.5234C365.447 10.7656 365.186 11.1191 364.994 11.584C364.803 12.0488 364.703 12.7109 364.695 13.5703C364.949 13.1836 365.26 12.8965 365.627 12.709C365.994 12.5215 366.379 12.4277 366.781 12.4277C367.484 12.4277 368.082 12.6875 368.574 13.207C369.07 13.7227 369.318 14.3906 369.318 15.2109C369.318 15.75 369.201 16.252 368.967 16.7168C368.736 17.1777 368.418 17.5312 368.012 17.7773C367.605 18.0234 367.145 18.1465 366.629 18.1465C365.75 18.1465 365.033 17.8242 364.479 17.1797C363.924 16.5312 363.646 15.4648 363.646 13.9805C363.646 12.3203 363.953 11.1133 364.566 10.3594C365.102 9.70312 365.822 9.375 366.729 9.375C367.404 9.375 367.957 9.56445 368.387 9.94336C368.82 10.3223 369.08 10.8457 369.166 11.5137ZM364.859 15.2168C364.859 15.5801 364.936 15.9277 365.088 16.2598C365.244 16.5918 365.461 16.8457 365.738 17.0215C366.016 17.1934 366.307 17.2793 366.611 17.2793C367.057 17.2793 367.439 17.0996 367.76 16.7402C368.08 16.3809 368.24 15.8926 368.24 15.2754C368.24 14.6816 368.082 14.2148 367.766 13.875C367.449 13.5312 367.051 13.3594 366.57 13.3594C366.094 13.3594 365.689 13.5312 365.357 13.875C365.025 14.2148 364.859 14.6621 364.859 15.2168Z" fill="black"/>
<path d="M370 1.37502C367.5 0.87502 338 0.874966 336.5 1.37502C335 1.87507 325 2.37502 325 13.875C325 25.375 335 27.875 336.5 28.375C338 28.875 368.5 28.875 370.5 28.375C372.5 27.875 381 23.875 381 13.875C381 3.87502 372.5 1.87502 370 1.37502Z" stroke="black" stroke-width="1.5"/>
</svg>
