<svg width="75" height="17" viewBox="0 0 75 17" fill="none" xmlns="http://www.w3.org/2000/svg">
<path d="M2.44043 13L0.0478516 2.97852H2.11914L3.62988 9.8623L5.46191 2.97852H7.86816L9.625 9.97852L11.1631 2.97852H13.2002L10.7666 13H8.62012L6.62402 5.50781L4.63477 13H2.44043ZM15.6416 7.95508L13.8984 7.64062C14.0944 6.9388 14.4316 6.41927 14.9102 6.08203C15.3887 5.74479 16.0996 5.57617 17.043 5.57617C17.8997 5.57617 18.5378 5.67871 18.957 5.88379C19.3763 6.08431 19.6702 6.3418 19.8389 6.65625C20.012 6.96615 20.0986 7.53809 20.0986 8.37207L20.0781 10.6143C20.0781 11.2523 20.1077 11.724 20.167 12.0293C20.2308 12.3301 20.347 12.6536 20.5156 13H18.6152C18.5651 12.8724 18.5036 12.6833 18.4307 12.4326C18.3988 12.3187 18.376 12.2435 18.3623 12.207C18.0342 12.526 17.6833 12.7653 17.3096 12.9248C16.9359 13.0843 16.5371 13.1641 16.1133 13.1641C15.3659 13.1641 14.7757 12.9613 14.3428 12.5557C13.9144 12.1501 13.7002 11.6374 13.7002 11.0176C13.7002 10.6074 13.7982 10.2428 13.9941 9.92383C14.1901 9.60026 14.4635 9.35417 14.8145 9.18555C15.1699 9.01237 15.6803 8.86198 16.3457 8.73438C17.2435 8.56576 17.8656 8.40853 18.2119 8.2627V8.07129C18.2119 7.70215 18.1208 7.4401 17.9385 7.28516C17.7562 7.12565 17.4121 7.0459 16.9062 7.0459C16.5645 7.0459 16.2979 7.11426 16.1064 7.25098C15.915 7.38314 15.7601 7.61784 15.6416 7.95508ZM18.2119 9.51367C17.9658 9.5957 17.5762 9.69368 17.043 9.80762C16.5098 9.92155 16.1611 10.0332 15.9971 10.1426C15.7464 10.3203 15.6211 10.5459 15.6211 10.8193C15.6211 11.0882 15.7214 11.3206 15.9219 11.5166C16.1224 11.7126 16.3776 11.8105 16.6875 11.8105C17.0339 11.8105 17.3643 11.6966 17.6787 11.4688C17.9111 11.2956 18.0638 11.0837 18.1367 10.833C18.1868 10.6689 18.2119 10.3568 18.2119 9.89648V9.51367ZM22.499 13V2.97852H24.4199V13H22.499ZM26.752 5.74023H28.5225V6.73145C29.1559 5.96126 29.9102 5.57617 30.7852 5.57617C31.25 5.57617 31.6533 5.67188 31.9951 5.86328C32.3369 6.05469 32.6172 6.34408 32.8359 6.73145C33.1549 6.34408 33.499 6.05469 33.8682 5.86328C34.2373 5.67188 34.6315 5.57617 35.0508 5.57617C35.584 5.57617 36.0352 5.68555 36.4043 5.9043C36.7734 6.11849 37.0492 6.43522 37.2314 6.85449C37.3636 7.16439 37.4297 7.66569 37.4297 8.3584V13H35.5088V8.85059C35.5088 8.13053 35.4427 7.66569 35.3105 7.45605C35.1328 7.18262 34.8594 7.0459 34.4902 7.0459C34.2214 7.0459 33.9684 7.12793 33.7314 7.29199C33.4945 7.45605 33.3236 7.69759 33.2188 8.0166C33.1139 8.33105 33.0615 8.83008 33.0615 9.51367V13H31.1406V9.02148C31.1406 8.3151 31.1064 7.85938 31.0381 7.6543C30.9697 7.44922 30.8626 7.29655 30.7168 7.19629C30.5755 7.09603 30.3818 7.0459 30.1357 7.0459C29.8395 7.0459 29.5729 7.12565 29.3359 7.28516C29.099 7.44466 28.9281 7.6748 28.8232 7.97559C28.723 8.27637 28.6729 8.77539 28.6729 9.47266V13H26.752V5.74023ZM41.2861 7.95508L39.543 7.64062C39.7389 6.9388 40.0762 6.41927 40.5547 6.08203C41.0332 5.74479 41.7441 5.57617 42.6875 5.57617C43.5443 5.57617 44.1823 5.67871 44.6016 5.88379C45.0208 6.08431 45.3148 6.3418 45.4834 6.65625C45.6566 6.96615 45.7432 7.53809 45.7432 8.37207L45.7227 10.6143C45.7227 11.2523 45.7523 11.724 45.8115 12.0293C45.8753 12.3301 45.9915 12.6536 46.1602 13H44.2598C44.2096 12.8724 44.1481 12.6833 44.0752 12.4326C44.0433 12.3187 44.0205 12.2435 44.0068 12.207C43.6787 12.526 43.3278 12.7653 42.9541 12.9248C42.5804 13.0843 42.1816 13.1641 41.7578 13.1641C41.0104 13.1641 40.4202 12.9613 39.9873 12.5557C39.5589 12.1501 39.3447 11.6374 39.3447 11.0176C39.3447 10.6074 39.4427 10.2428 39.6387 9.92383C39.8346 9.60026 40.1081 9.35417 40.459 9.18555C40.8145 9.01237 41.3249 8.86198 41.9902 8.73438C42.888 8.56576 43.5101 8.40853 43.8564 8.2627V8.07129C43.8564 7.70215 43.7653 7.4401 43.583 7.28516C43.4007 7.12565 43.0566 7.0459 42.5508 7.0459C42.209 7.0459 41.9424 7.11426 41.751 7.25098C41.5596 7.38314 41.4046 7.61784 41.2861 7.95508ZM43.8564 9.51367C43.6104 9.5957 43.2207 9.69368 42.6875 9.80762C42.1543 9.92155 41.8057 10.0332 41.6416 10.1426C41.391 10.3203 41.2656 10.5459 41.2656 10.8193C41.2656 11.0882 41.3659 11.3206 41.5664 11.5166C41.7669 11.7126 42.0221 11.8105 42.332 11.8105C42.6784 11.8105 43.0088 11.6966 43.3232 11.4688C43.5557 11.2956 43.7083 11.0837 43.7812 10.833C43.8314 10.6689 43.8564 10.3568 43.8564 9.89648V9.51367ZM49.9824 13H48.0615V5.74023H49.8457V6.77246C50.151 6.28483 50.4245 5.96354 50.666 5.80859C50.9121 5.65365 51.1901 5.57617 51.5 5.57617C51.9375 5.57617 52.359 5.69694 52.7646 5.93848L52.1699 7.61328C51.8464 7.40365 51.5456 7.29883 51.2676 7.29883C50.9987 7.29883 50.7708 7.37402 50.584 7.52441C50.3971 7.67025 50.249 7.93685 50.1396 8.32422C50.0348 8.71159 49.9824 9.52279 49.9824 10.7578V13ZM57.4277 5.74023V7.27148H56.1152V10.1973C56.1152 10.7897 56.1266 11.1361 56.1494 11.2363C56.1768 11.332 56.2337 11.4118 56.3203 11.4756C56.4115 11.5394 56.5208 11.5713 56.6484 11.5713C56.8262 11.5713 57.0837 11.5098 57.4209 11.3867L57.585 12.877C57.1383 13.0684 56.6325 13.1641 56.0674 13.1641C55.721 13.1641 55.4089 13.1071 55.1309 12.9932C54.8529 12.8747 54.6478 12.7243 54.5156 12.542C54.388 12.3551 54.2992 12.1045 54.249 11.79C54.208 11.5667 54.1875 11.1156 54.1875 10.4365V7.27148H53.3057V5.74023H54.1875V4.29785L56.1152 3.17676V5.74023H57.4277Z" fill="#357BC0"/>
<path d="M67.499 0C66.8585 0 66.3494 0.361159 66.3494 0.800831L66.7384 5.24824C66.7813 5.51619 67.1064 5.72288 67.4993 5.72288C67.8931 5.72236 68.217 5.51585 68.2609 5.24824L68.6517 0.800831C68.6517 0.361197 68.1412 3.77644e-05 67.4998 3.77644e-05L67.499 0ZM61.16 3.5675C60.8275 3.57547 60.4498 3.82967 60.2095 4.25032C59.8882 4.81045 59.9451 5.4364 60.3211 5.656L64.3296 7.54092C64.58 7.63496 64.9201 7.4554 65.117 7.11257C65.1171 7.11252 65.117 7.11242 65.117 7.11238C65.3149 6.76785 65.2996 6.38048 65.0913 6.20865L61.4709 3.64464C61.3769 3.58965 61.2711 3.5649 61.1603 3.56756L61.16 3.5675ZM73.8379 3.5675C73.7271 3.56485 73.6215 3.58959 73.5276 3.64458L69.9068 6.20859C69.6997 6.38041 69.6844 6.76781 69.8812 7.11232L69.8814 7.11251C70.0791 7.45534 70.4181 7.6349 70.6685 7.54086L74.6788 5.65604C75.0563 5.43644 75.1104 4.81052 74.7913 4.25036C74.5499 3.8297 74.1715 3.57551 73.839 3.56754L73.8379 3.5675ZM64.4793 9.43523C64.4275 9.43453 64.3772 9.44262 64.3301 9.4605L60.3216 11.3431C59.9457 11.5637 59.8887 12.1899 60.2101 12.7506C60.5304 13.3096 61.0951 13.5754 61.4712 13.3562L65.0919 10.7942C65.3002 10.6202 65.3156 10.233 65.1176 9.88877L65.1193 9.88953C64.9592 9.60918 64.7041 9.43826 64.4794 9.43518L64.4793 9.43523ZM70.5204 9.43523C70.2959 9.43832 70.0413 9.60923 69.8808 9.88959L69.8823 9.88883C69.6853 10.233 69.7006 10.6203 69.9077 10.7942L73.5285 13.3562C73.9039 13.5755 74.4691 13.3097 74.791 12.7507C75.1101 12.1899 75.056 11.5637 74.6785 11.3432L70.6694 9.46055C70.6224 9.44267 70.5722 9.43458 70.5204 9.43529L70.5204 9.43523ZM67.4984 11.2784C67.1061 11.2789 66.7818 11.4847 66.7389 11.7519L66.3499 16.1992C66.3499 16.6396 66.859 17 67.4995 17C68.1412 17 68.6513 16.6396 68.6513 16.1992L68.2614 11.7519C68.2175 11.4847 67.8936 11.2789 67.4998 11.2784H67.4984H67.4984Z" fill="#F6C44A"/>
</svg>
