<svg width="131" height="32" viewBox="0 0 131 32" fill="none" xmlns="http://www.w3.org/2000/svg">
<path d="M0 6.63882C0 6.63882 3.25942 19.995 3.77962 22.1629C4.38677 24.6933 5.48076 25.6246 8.63493 24.9965L10.6702 16.7157C11.186 14.6589 11.532 13.1924 11.8636 11.1001H11.9219C12.1549 13.213 12.4867 14.665 12.9112 16.7229C12.9112 16.7229 13.7397 20.4822 14.164 22.4567C14.5893 24.4305 15.7732 25.6745 18.8627 24.9972L23.7123 6.64022H19.7968L18.1412 14.5768C17.6961 16.887 17.2922 18.6922 16.9808 20.8056H16.9255C16.6425 18.7132 16.2825 16.9796 15.83 14.7288L14.1061 6.64022H10.0266L8.18265 14.525C7.66024 16.9209 7.17164 18.8557 6.86093 20.8975H6.80465C6.48646 18.9747 6.06265 16.543 5.60371 14.2237C5.60371 14.2237 4.50818 8.58414 4.12381 6.64022L0.000381229 6.64075L0 6.63882ZM37.3253 6.63882V24.9958H41.0531V21.0978V6.63794H37.3253V6.63882ZM89.8278 6.63882V20.1811C89.8278 22.0482 90.1792 23.3563 90.9309 24.1555C91.5877 24.8545 92.6696 25.3071 93.9659 25.3071C95.068 25.3071 96.1524 25.098 96.6634 24.9077L96.6154 21.9945C96.2351 22.0881 95.7976 22.163 95.1993 22.163C93.9295 22.163 93.5036 21.3497 93.5036 19.6732V14.492H96.7502V10.9798H93.5036V6.63887H89.8276L89.8278 6.63882ZM28.9945 10.8944C26.6778 10.8944 24.8388 11.5448 23.8363 12.1241L24.5699 14.6362C25.4874 14.0578 26.9481 13.579 28.3313 13.579C30.6213 13.5731 30.9957 14.8739 30.9957 15.7081V15.9054C26.0058 15.8979 22.8539 17.6246 22.8539 21.1442C22.8539 23.2932 24.4584 25.307 27.2484 25.307C28.9658 25.307 30.4022 24.622 31.263 23.5245H31.3475C31.3475 23.5245 31.9175 25.908 35.058 24.9966C34.893 24.0045 34.8395 22.9469 34.8395 21.673V16.769C34.8395 13.6435 33.5049 10.8944 28.9945 10.8944L28.9945 10.8944ZM51.2938 10.8944C48.9611 10.8944 47.9128 12.0765 47.2772 13.0795H47.2219V11.2057H43.6644V24.9967H47.412V16.9088C47.412 16.5297 47.4553 16.1287 47.5877 15.7799C47.8982 14.9656 48.6558 14.0131 49.8654 14.0131C51.3775 14.0131 52.0851 15.2915 52.0851 17.1365V24.9965H55.8287V16.8108C55.8287 16.4489 55.8784 16.0129 55.9849 15.6929C56.2926 14.7666 57.1094 14.013 58.2338 14.013C59.7668 14.013 60.5025 15.2691 60.5025 17.4401V24.9966H64.2488V16.8741C64.2488 12.5905 62.0736 10.8944 59.6183 10.8944C58.5309 10.8944 57.6726 11.1671 56.8967 11.6435C56.2444 12.0437 55.6605 12.6124 55.1501 13.3612H55.0949C54.5011 11.8749 53.1079 10.8944 51.2931 10.8944L51.2938 10.8944ZM71.8731 10.8944C69.5569 10.8944 67.7183 11.5448 66.7149 12.1241L67.4496 14.6362C68.3661 14.0578 69.8278 13.579 71.2102 13.579C73.4986 13.5731 73.8739 14.8739 73.8739 15.7081V15.9054C68.8847 15.8979 65.7325 17.6246 65.7325 21.1442C65.7325 23.2932 67.3378 25.307 70.1292 25.307C71.8453 25.307 73.2822 24.622 74.1415 23.5245H74.2262C74.2262 23.5245 74.7962 25.908 77.9371 24.9966C77.7719 24.0045 77.7189 22.9469 77.7189 21.673V16.769C77.7189 13.6435 76.384 10.8944 71.8731 10.8944L71.8731 10.8944ZM87.4361 10.8944C86.001 10.8944 84.3683 11.8207 83.683 13.8065H83.5783V11.2055H80.2047V24.9965H84.0506V17.9346C84.0506 17.5537 84.0737 17.2215 84.1339 16.9169C84.4184 15.4376 85.5498 14.492 87.1738 14.492C87.6195 14.492 87.9386 14.5402 88.2838 14.5901V10.9797C87.9943 10.9212 87.7964 10.8942 87.4363 10.8942L87.4361 10.8944ZM31.116 18.3492V20.0697C31.116 20.3242 31.0939 20.5867 31.0234 20.8163C30.7349 21.7718 29.745 22.5793 28.5076 22.5793C27.476 22.5793 26.6565 21.9938 26.6565 20.7552C26.6565 18.8606 28.742 18.3369 31.1161 18.3492H31.116ZM73.9947 18.3492V20.0697C73.9947 20.3242 73.972 20.5867 73.902 20.8163C73.6135 21.7718 72.624 22.5793 71.3866 22.5793C70.3547 22.5793 69.5351 21.9938 69.5351 20.7552C69.5351 18.8606 71.6206 18.3369 73.9948 18.3492H73.9947Z" fill="#007DC6"/>
<path d="M116.906 0C115.702 0 114.746 0.672066 114.746 1.49023L115.477 9.76623C115.557 10.2648 116.168 10.6494 116.907 10.6494C117.646 10.6485 118.255 10.2642 118.337 9.76623L119.072 1.49023C119.072 0.672136 118.113 7.0274e-05 116.907 7.0274e-05L116.906 0ZM104.995 6.63861C104.371 6.65343 103.661 7.12647 103.209 7.90924C102.606 8.95156 102.713 10.1164 103.419 10.525L110.951 14.0326C111.421 14.2076 112.06 13.8734 112.43 13.2355C112.43 13.2354 112.43 13.2352 112.43 13.2351C112.802 12.594 112.773 11.8731 112.382 11.5534L105.579 6.78215C105.403 6.67982 105.204 6.63377 104.996 6.63871L104.995 6.63861ZM128.816 6.63861C128.608 6.63367 128.41 6.67972 128.233 6.78204L121.43 11.5533C121.041 11.873 121.012 12.5939 121.382 13.235L121.382 13.2354C121.754 13.8733 122.391 14.2075 122.861 14.0325L130.396 10.5251C131.106 10.1164 131.207 8.95168 130.608 7.90931C130.154 7.12652 129.443 6.65351 128.819 6.63868L128.816 6.63861ZM111.232 17.5576C111.135 17.5563 111.04 17.5713 110.952 17.6046L103.42 21.108C102.714 21.5184 102.607 22.6836 103.21 23.7271C103.812 24.7673 104.873 25.2619 105.58 24.8539L112.383 20.0864C112.774 19.7627 112.803 19.0421 112.431 18.4016L112.435 18.403C112.134 17.8813 111.654 17.5632 111.232 17.5575L111.232 17.5576ZM122.583 17.5576C122.161 17.5634 121.683 17.8814 121.381 18.4031L121.384 18.4017C121.014 19.0422 121.043 19.7628 121.432 20.0865L128.235 24.854C128.94 25.262 130.003 24.7675 130.607 23.7272C131.207 22.6837 131.105 21.5185 130.396 21.1081L122.863 17.6047C122.775 17.5715 122.68 17.5564 122.583 17.5577L122.583 17.5576ZM116.905 20.9875C116.168 20.9884 115.558 21.3714 115.478 21.8687L114.747 30.1443C114.747 30.9639 115.703 31.6345 116.907 31.6345C118.113 31.6345 119.071 30.9638 119.071 30.1443L118.338 21.8687C118.256 21.3714 117.647 20.9885 116.908 20.9875H116.905H116.905Z" fill="#FFC220"/>
</svg>
