<svg width="19" height="21" viewBox="0 0 19 21" fill="none" xmlns="http://www.w3.org/2000/svg">
<path d="M5.00977 0C2.24723 0 0 2.3851 0 5.31711C0 8.24913 2.24723 10.6342 5.00977 10.6342C7.75875 10.6342 10.0195 8.27819 10.0195 5.31711C10.0195 2.42031 7.7952 0 5.00977 0ZM5.56641 8.16224V8.86186C5.56641 9.1884 5.31744 9.45265 5.00977 9.45265C4.70209 9.45265 4.45312 9.1884 4.45312 8.86186V8.15641C4.14805 8.04046 3.8721 7.84262 3.67416 7.56259C3.48988 7.30122 3.53934 6.93084 3.78504 6.73525C4.03294 6.54139 4.38136 6.59161 4.56456 6.85293C4.67055 7.0035 4.83309 7.08948 5.00977 7.08948C5.31688 7.08948 5.56641 6.82465 5.56641 6.49869C5.56641 6.17274 5.31688 5.9079 5.00977 5.9079C4.08893 5.9079 3.33984 5.11286 3.33984 4.13553C3.33984 3.36632 3.80661 2.71669 4.45312 2.47198V1.77237C4.45312 1.44582 4.70209 1.18158 5.00977 1.18158C5.31744 1.18158 5.56641 1.44582 5.56641 1.77237V2.47781C5.87148 2.59377 6.14743 2.7916 6.34537 3.07164C6.52965 3.333 6.48019 3.70339 6.23449 3.89898C5.98823 4.09512 5.64033 4.04262 5.45497 3.78129C5.16414 3.36877 4.45312 3.62206 4.45312 4.13553C4.45312 4.46149 4.70265 4.72632 5.00977 4.72632C5.9306 4.72632 6.67969 5.52137 6.67969 6.49869C6.67969 7.2679 6.21293 7.91754 5.56641 8.16224Z" fill="#007DC6"/>
<path d="M18.4434 2.36316H10.4455C10.8029 3.10468 11.0232 3.90693 11.098 4.72632H16.1426C16.4503 4.72632 16.6992 4.99056 16.6992 5.31711V10.0434C16.6992 10.37 16.4503 10.6342 16.1426 10.6342H8.51534C7.59158 11.319 6.61527 11.6816 5.56641 11.7793V19.5749C5.56641 19.9014 5.81537 20.1656 6.12305 20.1656H18.4434C18.751 20.1656 19 19.9014 19 19.5749V2.95395C19 2.6274 18.751 2.36316 18.4434 2.36316ZM11.6895 11.8158H12.8027C13.1104 11.8158 13.3594 12.08 13.3594 12.4066C13.3594 12.7331 13.1104 12.9974 12.8027 12.9974H11.6895C11.3818 12.9974 11.1328 12.7331 11.1328 12.4066C11.1328 12.08 11.3818 11.8158 11.6895 11.8158ZM11.6895 14.179H12.8027C13.1104 14.179 13.3594 14.4432 13.3594 14.7698C13.3594 15.0963 13.1104 15.3605 12.8027 15.3605H11.6895C11.3818 15.3605 11.1328 15.0963 11.1328 14.7698C11.1328 14.4432 11.3818 14.179 11.6895 14.179ZM9.46289 17.7237H8.34961C8.04194 17.7237 7.79297 17.4595 7.79297 17.1329C7.79297 16.8064 8.04194 16.5421 8.34961 16.5421H9.46289C9.77056 16.5421 10.0195 16.8064 10.0195 17.1329C10.0195 17.4595 9.77056 17.7237 9.46289 17.7237ZM9.46289 15.3605H8.34961C8.04194 15.3605 7.79297 15.0963 7.79297 14.7698C7.79297 14.4432 8.04194 14.179 8.34961 14.179H9.46289C9.77056 14.179 10.0195 14.4432 10.0195 14.7698C10.0195 15.0963 9.77056 15.3605 9.46289 15.3605ZM9.46289 12.9974H8.34961C8.04194 12.9974 7.79297 12.7331 7.79297 12.4066C7.79297 12.08 8.04194 11.8158 8.34961 11.8158H9.46289C9.77056 11.8158 10.0195 12.08 10.0195 12.4066C10.0195 12.7331 9.77056 12.9974 9.46289 12.9974ZM16.1426 17.7237H11.6895C11.3818 17.7237 11.1328 17.4595 11.1328 17.1329C11.1328 16.8064 11.3818 16.5421 11.6895 16.5421H16.1426C16.4503 16.5421 16.6992 16.8064 16.6992 17.1329C16.6992 17.4595 16.4503 17.7237 16.1426 17.7237ZM16.1426 15.3605H15.0293C14.7216 15.3605 14.4727 15.0963 14.4727 14.7698C14.4727 14.4432 14.7216 14.179 15.0293 14.179H16.1426C16.4503 14.179 16.6992 14.4432 16.6992 14.7698C16.6992 15.0963 16.4503 15.3605 16.1426 15.3605ZM16.1426 12.9974H15.0293C14.7216 12.9974 14.4727 12.7331 14.4727 12.4066C14.4727 12.08 14.7216 11.8158 15.0293 11.8158H16.1426C16.4503 11.8158 16.6992 12.08 16.6992 12.4066C16.6992 12.7331 16.4503 12.9974 16.1426 12.9974Z" fill="#007DC6"/>
<path d="M15.5859 9.45264V5.9079H11.0861C10.9717 7.23824 10.4902 8.46448 9.72006 9.45264H15.5859Z" fill="#007DC6"/>
</svg>
