<svg width="375" height="347" viewBox="0 0 375 347" fill="none" xmlns="http://www.w3.org/2000/svg">
<g filter="url(#filter0_d)">
<rect y="22" width="375" height="324" fill="white"/>
</g>
<path d="M162.674 224.55L164.014 224.433C164.078 224.97 164.224 225.412 164.454 225.759C164.688 226.101 165.049 226.379 165.538 226.594C166.026 226.804 166.575 226.909 167.186 226.909C167.728 226.909 168.206 226.828 168.621 226.667C169.036 226.506 169.344 226.286 169.544 226.008C169.749 225.725 169.852 225.417 169.852 225.085C169.852 224.748 169.754 224.455 169.559 224.206C169.363 223.952 169.041 223.74 168.592 223.569C168.304 223.457 167.667 223.283 166.68 223.049C165.694 222.81 165.003 222.585 164.607 222.375C164.095 222.106 163.711 221.774 163.458 221.379C163.208 220.979 163.084 220.532 163.084 220.039C163.084 219.497 163.238 218.991 163.545 218.522C163.853 218.049 164.302 217.69 164.893 217.446C165.484 217.202 166.141 217.08 166.863 217.08C167.659 217.08 168.36 217.209 168.965 217.468C169.576 217.722 170.044 218.098 170.372 218.596C170.699 219.094 170.875 219.658 170.899 220.288L169.537 220.39C169.463 219.711 169.214 219.199 168.79 218.852C168.37 218.505 167.747 218.332 166.922 218.332C166.062 218.332 165.435 218.491 165.04 218.808C164.649 219.121 164.454 219.499 164.454 219.943C164.454 220.329 164.593 220.646 164.871 220.896C165.145 221.145 165.857 221.401 167.01 221.665C168.167 221.923 168.96 222.15 169.39 222.346C170.015 222.634 170.477 223 170.774 223.444C171.072 223.884 171.221 224.392 171.221 224.968C171.221 225.539 171.058 226.079 170.73 226.586C170.403 227.089 169.932 227.482 169.317 227.766C168.707 228.044 168.018 228.183 167.251 228.183C166.28 228.183 165.464 228.042 164.805 227.758C164.151 227.475 163.636 227.05 163.26 226.484C162.889 225.913 162.693 225.268 162.674 224.55ZM173.162 228V217.263H177.212C177.925 217.263 178.47 217.297 178.846 217.365C179.373 217.453 179.815 217.622 180.171 217.871C180.528 218.115 180.813 218.459 181.028 218.903C181.248 219.348 181.358 219.836 181.358 220.368C181.358 221.281 181.067 222.055 180.486 222.69C179.905 223.32 178.855 223.635 177.337 223.635H174.583V228H173.162ZM174.583 222.368H177.359C178.277 222.368 178.929 222.197 179.314 221.855C179.7 221.513 179.893 221.032 179.893 220.412C179.893 219.963 179.778 219.58 179.549 219.262C179.324 218.94 179.026 218.728 178.655 218.625C178.416 218.562 177.974 218.53 177.33 218.53H174.583V222.368ZM183.196 228V217.263H190.96V218.53H184.617V221.818H190.557V223.078H184.617V226.733H191.209V228H183.196ZM193.157 228V217.263H194.615L200.254 225.693V217.263H201.617V228H200.159L194.52 219.562V228H193.157ZM206.744 228V218.53H203.206V217.263H211.717V218.53H208.165V228H206.744Z" fill="#404040"/>
<path d="M257.427 261.758C257.427 260.883 257.558 260.148 257.82 259.555C258.015 259.117 258.28 258.725 258.616 258.377C258.956 258.029 259.327 257.771 259.73 257.604C260.265 257.377 260.882 257.264 261.581 257.264C262.847 257.264 263.859 257.656 264.616 258.441C265.378 259.227 265.759 260.318 265.759 261.717C265.759 263.104 265.382 264.189 264.628 264.975C263.874 265.756 262.866 266.146 261.605 266.146C260.327 266.146 259.312 265.758 258.558 264.98C257.804 264.199 257.427 263.125 257.427 261.758ZM259.214 261.699C259.214 262.672 259.439 263.41 259.888 263.914C260.337 264.414 260.907 264.664 261.599 264.664C262.29 264.664 262.857 264.416 263.298 263.92C263.743 263.42 263.966 262.672 263.966 261.676C263.966 260.691 263.749 259.957 263.316 259.473C262.886 258.988 262.314 258.746 261.599 258.746C260.884 258.746 260.308 258.992 259.87 259.484C259.433 259.973 259.214 260.711 259.214 261.699ZM269.118 266L266.61 259.777H268.338L269.51 262.953L269.85 264.014C269.94 263.744 269.996 263.566 270.02 263.48C270.075 263.305 270.133 263.129 270.196 262.953L271.379 259.777H273.073L270.6 266H269.118ZM277.99 264.02L279.63 264.295C279.42 264.896 279.086 265.355 278.629 265.672C278.175 265.984 277.607 266.141 276.923 266.141C275.841 266.141 275.041 265.787 274.521 265.08C274.111 264.514 273.906 263.799 273.906 262.936C273.906 261.904 274.175 261.098 274.714 260.516C275.254 259.93 275.935 259.637 276.759 259.637C277.685 259.637 278.416 259.943 278.951 260.557C279.486 261.166 279.742 262.102 279.718 263.363H275.593C275.605 263.852 275.738 264.232 275.992 264.506C276.246 264.775 276.562 264.91 276.941 264.91C277.199 264.91 277.416 264.84 277.591 264.699C277.767 264.559 277.9 264.332 277.99 264.02ZM278.084 262.355C278.072 261.879 277.949 261.518 277.714 261.271C277.48 261.021 277.195 260.896 276.859 260.896C276.5 260.896 276.203 261.027 275.968 261.289C275.734 261.551 275.619 261.906 275.623 262.355H278.084ZM282.942 266H281.296V259.777H282.825V260.662C283.087 260.244 283.321 259.969 283.528 259.836C283.739 259.703 283.977 259.637 284.243 259.637C284.618 259.637 284.979 259.74 285.327 259.947L284.817 261.383C284.54 261.203 284.282 261.113 284.044 261.113C283.813 261.113 283.618 261.178 283.458 261.307C283.298 261.432 283.171 261.66 283.077 261.992C282.987 262.324 282.942 263.02 282.942 264.078V266ZM286.271 266V257.41H287.918V260.504C288.426 259.926 289.027 259.637 289.723 259.637C290.48 259.637 291.107 259.912 291.604 260.463C292.1 261.01 292.348 261.797 292.348 262.824C292.348 263.887 292.094 264.705 291.586 265.279C291.082 265.854 290.469 266.141 289.746 266.141C289.391 266.141 289.039 266.053 288.691 265.877C288.348 265.697 288.051 265.434 287.801 265.086V266H286.271ZM287.906 262.754C287.906 263.398 288.008 263.875 288.211 264.184C288.496 264.621 288.875 264.84 289.348 264.84C289.711 264.84 290.02 264.686 290.273 264.377C290.531 264.064 290.66 263.574 290.66 262.906C290.66 262.195 290.531 261.684 290.273 261.371C290.016 261.055 289.686 260.896 289.283 260.896C288.889 260.896 288.561 261.051 288.299 261.359C288.037 261.664 287.906 262.129 287.906 262.754ZM298.073 266V265.068C297.847 265.4 297.548 265.662 297.177 265.854C296.81 266.045 296.421 266.141 296.011 266.141C295.593 266.141 295.218 266.049 294.886 265.865C294.554 265.682 294.314 265.424 294.165 265.092C294.017 264.76 293.943 264.301 293.943 263.715V259.777H295.589V262.637C295.589 263.512 295.618 264.049 295.677 264.248C295.739 264.443 295.851 264.6 296.011 264.717C296.171 264.83 296.374 264.887 296.62 264.887C296.902 264.887 297.154 264.811 297.376 264.658C297.599 264.502 297.751 264.311 297.833 264.084C297.915 263.854 297.956 263.293 297.956 262.402V259.777H299.603V266H298.073ZM307.321 266H305.791V265.086C305.538 265.441 305.237 265.707 304.889 265.883C304.545 266.055 304.198 266.141 303.846 266.141C303.131 266.141 302.518 265.854 302.006 265.279C301.498 264.701 301.245 263.896 301.245 262.865C301.245 261.811 301.493 261.01 301.989 260.463C302.485 259.912 303.112 259.637 303.87 259.637C304.565 259.637 305.166 259.926 305.674 260.504V257.41H307.321V266ZM302.926 262.754C302.926 263.418 303.018 263.898 303.202 264.195C303.467 264.625 303.838 264.84 304.315 264.84C304.694 264.84 305.016 264.68 305.282 264.359C305.547 264.035 305.68 263.553 305.68 262.912C305.68 262.197 305.551 261.684 305.293 261.371C305.036 261.055 304.705 260.896 304.303 260.896C303.913 260.896 303.584 261.053 303.319 261.365C303.057 261.674 302.926 262.137 302.926 262.754ZM309.097 266.41L310.978 266.639C311.009 266.857 311.082 267.008 311.195 267.09C311.351 267.207 311.597 267.266 311.933 267.266C312.363 267.266 312.685 267.201 312.9 267.072C313.045 266.986 313.154 266.848 313.228 266.656C313.279 266.52 313.304 266.268 313.304 265.9V264.992C312.812 265.664 312.191 266 311.441 266C310.605 266 309.943 265.646 309.455 264.939C309.072 264.381 308.88 263.686 308.88 262.854C308.88 261.811 309.13 261.014 309.63 260.463C310.134 259.912 310.759 259.637 311.505 259.637C312.275 259.637 312.91 259.975 313.41 260.65V259.777H314.951V265.361C314.951 266.096 314.89 266.645 314.769 267.008C314.648 267.371 314.478 267.656 314.259 267.863C314.041 268.07 313.748 268.232 313.38 268.35C313.017 268.467 312.556 268.525 311.998 268.525C310.943 268.525 310.195 268.344 309.754 267.98C309.312 267.621 309.091 267.164 309.091 266.609C309.091 266.555 309.093 266.488 309.097 266.41ZM310.568 262.76C310.568 263.42 310.695 263.904 310.949 264.213C311.207 264.518 311.523 264.67 311.898 264.67C312.3 264.67 312.64 264.514 312.918 264.201C313.195 263.885 313.334 263.418 313.334 262.801C313.334 262.156 313.201 261.678 312.935 261.365C312.67 261.053 312.334 260.896 311.927 260.896C311.533 260.896 311.207 261.051 310.949 261.359C310.695 261.664 310.568 262.131 310.568 262.76ZM320.489 264.02L322.13 264.295C321.919 264.896 321.585 265.355 321.128 265.672C320.675 265.984 320.106 266.141 319.423 266.141C318.341 266.141 317.54 265.787 317.02 265.08C316.61 264.514 316.405 263.799 316.405 262.936C316.405 261.904 316.675 261.098 317.214 260.516C317.753 259.93 318.434 259.637 319.259 259.637C320.184 259.637 320.915 259.943 321.45 260.557C321.985 261.166 322.241 262.102 322.218 263.363H318.093C318.104 263.852 318.237 264.232 318.491 264.506C318.745 264.775 319.061 264.91 319.44 264.91C319.698 264.91 319.915 264.84 320.091 264.699C320.266 264.559 320.399 264.332 320.489 264.02ZM320.583 262.355C320.571 261.879 320.448 261.518 320.214 261.271C319.979 261.021 319.694 260.896 319.358 260.896C318.999 260.896 318.702 261.027 318.468 261.289C318.233 261.551 318.118 261.906 318.122 262.355H320.583ZM326.719 259.777V261.09H325.594V263.598C325.594 264.105 325.604 264.402 325.623 264.488C325.646 264.57 325.695 264.639 325.77 264.693C325.848 264.748 325.941 264.775 326.051 264.775C326.203 264.775 326.424 264.723 326.713 264.617L326.854 265.895C326.471 266.059 326.037 266.141 325.553 266.141C325.256 266.141 324.988 266.092 324.75 265.994C324.512 265.893 324.336 265.764 324.223 265.607C324.113 265.447 324.037 265.232 323.994 264.963C323.959 264.771 323.941 264.385 323.941 263.803V261.09H323.186V259.777H323.941V258.541L325.594 257.58V259.777H326.719Z" fill="black"/>
<path d="M44.8613 257.41H46.5957V262.062C46.5957 262.801 46.6172 263.279 46.6602 263.498C46.7344 263.85 46.9102 264.133 47.1875 264.348C47.4688 264.559 47.8516 264.664 48.3359 264.664C48.8281 264.664 49.1992 264.564 49.4492 264.365C49.6992 264.162 49.8496 263.914 49.9004 263.621C49.9512 263.328 49.9766 262.842 49.9766 262.162V257.41H51.7109V261.922C51.7109 262.953 51.6641 263.682 51.5703 264.107C51.4766 264.533 51.3027 264.893 51.0488 265.186C50.7988 265.479 50.4629 265.713 50.041 265.889C49.6191 266.061 49.0684 266.146 48.3887 266.146C47.5684 266.146 46.9453 266.053 46.5195 265.865C46.0977 265.674 45.7637 265.428 45.5176 265.127C45.2715 264.822 45.1094 264.504 45.0312 264.172C44.918 263.68 44.8613 262.953 44.8613 261.992V257.41ZM59.4934 266H57.8469V262.824C57.8469 262.152 57.8117 261.719 57.7414 261.523C57.6711 261.324 57.5559 261.17 57.3957 261.061C57.2395 260.951 57.05 260.896 56.8273 260.896C56.5422 260.896 56.2863 260.975 56.0598 261.131C55.8332 261.287 55.677 261.494 55.591 261.752C55.509 262.01 55.468 262.486 55.468 263.182V266H53.8215V259.777H55.3508V260.691C55.8938 259.988 56.5773 259.637 57.4016 259.637C57.7648 259.637 58.0969 259.703 58.3977 259.836C58.6984 259.965 58.925 260.131 59.0773 260.334C59.2336 260.537 59.341 260.768 59.3996 261.025C59.4621 261.283 59.4934 261.652 59.4934 262.133V266ZM67.1762 266H65.6469V265.086C65.393 265.441 65.0922 265.707 64.7445 265.883C64.4008 266.055 64.0531 266.141 63.7016 266.141C62.9867 266.141 62.3734 265.854 61.8617 265.279C61.3539 264.701 61.1 263.896 61.1 262.865C61.1 261.811 61.348 261.01 61.8441 260.463C62.3402 259.912 62.9672 259.637 63.725 259.637C64.4203 259.637 65.0219 259.926 65.5297 260.504V257.41H67.1762V266ZM62.7816 262.754C62.7816 263.418 62.8734 263.898 63.057 264.195C63.3227 264.625 63.6938 264.84 64.1703 264.84C64.5492 264.84 64.8715 264.68 65.1371 264.359C65.4027 264.035 65.5355 263.553 65.5355 262.912C65.5355 262.197 65.4066 261.684 65.1488 261.371C64.891 261.055 64.5609 260.896 64.1586 260.896C63.768 260.896 63.4398 261.053 63.1742 261.365C62.9125 261.674 62.7816 262.137 62.7816 262.754ZM72.7086 264.02L74.3492 264.295C74.1383 264.896 73.8043 265.355 73.3473 265.672C72.8941 265.984 72.3258 266.141 71.6422 266.141C70.5602 266.141 69.7594 265.787 69.2398 265.08C68.8297 264.514 68.6246 263.799 68.6246 262.936C68.6246 261.904 68.8941 261.098 69.4332 260.516C69.9723 259.93 70.6539 259.637 71.4781 259.637C72.4039 259.637 73.1344 259.943 73.6695 260.557C74.2047 261.166 74.4605 262.102 74.4371 263.363H70.3121C70.3238 263.852 70.4566 264.232 70.7105 264.506C70.9645 264.775 71.2809 264.91 71.6598 264.91C71.9176 264.91 72.1344 264.84 72.3102 264.699C72.4859 264.559 72.6187 264.332 72.7086 264.02ZM72.8023 262.355C72.7906 261.879 72.6676 261.518 72.4332 261.271C72.1988 261.021 71.9137 260.896 71.5777 260.896C71.2184 260.896 70.9215 261.027 70.6871 261.289C70.4527 261.551 70.3375 261.906 70.3414 262.355H72.8023ZM77.6609 266H76.0145V259.777H77.5438V260.662C77.8055 260.244 78.0398 259.969 78.2469 259.836C78.4578 259.703 78.6961 259.637 78.9617 259.637C79.3367 259.637 79.698 259.74 80.0457 259.947L79.5359 261.383C79.2586 261.203 79.0008 261.113 78.7625 261.113C78.532 261.113 78.3367 261.178 78.1766 261.307C78.0164 261.432 77.8895 261.66 77.7957 261.992C77.7059 262.324 77.6609 263.02 77.6609 264.078V266ZM80.9902 266V257.41H82.6367V260.504C83.1445 259.926 83.7461 259.637 84.4414 259.637C85.1992 259.637 85.8262 259.912 86.3223 260.463C86.8184 261.01 87.0664 261.797 87.0664 262.824C87.0664 263.887 86.8125 264.705 86.3047 265.279C85.8008 265.854 85.1875 266.141 84.4648 266.141C84.1094 266.141 83.7578 266.053 83.4102 265.877C83.0664 265.697 82.7695 265.434 82.5195 265.086V266H80.9902ZM82.625 262.754C82.625 263.398 82.7266 263.875 82.9297 264.184C83.2148 264.621 83.5938 264.84 84.0664 264.84C84.4297 264.84 84.7383 264.686 84.9922 264.377C85.25 264.064 85.3789 263.574 85.3789 262.906C85.3789 262.195 85.25 261.684 84.9922 261.371C84.7344 261.055 84.4043 260.896 84.002 260.896C83.6074 260.896 83.2793 261.051 83.0176 261.359C82.7559 261.664 82.625 262.129 82.625 262.754ZM92.7922 266V265.068C92.5656 265.4 92.2668 265.662 91.8957 265.854C91.5285 266.045 91.1398 266.141 90.7297 266.141C90.3117 266.141 89.9367 266.049 89.6047 265.865C89.2727 265.682 89.0324 265.424 88.884 265.092C88.7355 264.76 88.6613 264.301 88.6613 263.715V259.777H90.3078V262.637C90.3078 263.512 90.3371 264.049 90.3957 264.248C90.4582 264.443 90.5695 264.6 90.7297 264.717C90.8898 264.83 91.093 264.887 91.3391 264.887C91.6203 264.887 91.8723 264.811 92.0949 264.658C92.3176 264.502 92.4699 264.311 92.552 264.084C92.634 263.854 92.675 263.293 92.675 262.402V259.777H94.3215V266H92.7922ZM102.039 266H100.51V265.086C100.256 265.441 99.9555 265.707 99.6078 265.883C99.2641 266.055 98.9164 266.141 98.5648 266.141C97.85 266.141 97.2367 265.854 96.725 265.279C96.2172 264.701 95.9633 263.896 95.9633 262.865C95.9633 261.811 96.2113 261.01 96.7074 260.463C97.2035 259.912 97.8305 259.637 98.5883 259.637C99.2836 259.637 99.8852 259.926 100.393 260.504V257.41H102.039V266ZM97.6449 262.754C97.6449 263.418 97.7367 263.898 97.9203 264.195C98.1859 264.625 98.557 264.84 99.0336 264.84C99.4125 264.84 99.7348 264.68 100 264.359C100.266 264.035 100.399 263.553 100.399 262.912C100.399 262.197 100.27 261.684 100.012 261.371C99.7543 261.055 99.4242 260.896 99.0219 260.896C98.6312 260.896 98.3031 261.053 98.0375 261.365C97.7758 261.674 97.6449 262.137 97.6449 262.754ZM103.816 266.41L105.697 266.639C105.728 266.857 105.8 267.008 105.914 267.09C106.07 267.207 106.316 267.266 106.652 267.266C107.082 267.266 107.404 267.201 107.619 267.072C107.763 266.986 107.873 266.848 107.947 266.656C107.998 266.52 108.023 266.268 108.023 265.9V264.992C107.531 265.664 106.91 266 106.16 266C105.324 266 104.662 265.646 104.173 264.939C103.791 264.381 103.599 263.686 103.599 262.854C103.599 261.811 103.849 261.014 104.349 260.463C104.853 259.912 105.478 259.637 106.224 259.637C106.994 259.637 107.629 259.975 108.129 260.65V259.777H109.67V265.361C109.67 266.096 109.609 266.645 109.488 267.008C109.367 267.371 109.197 267.656 108.978 267.863C108.759 268.07 108.466 268.232 108.099 268.35C107.736 268.467 107.275 268.525 106.716 268.525C105.662 268.525 104.914 268.344 104.472 267.98C104.031 267.621 103.81 267.164 103.81 266.609C103.81 266.555 103.812 266.488 103.816 266.41ZM105.287 262.76C105.287 263.42 105.414 263.904 105.668 264.213C105.925 264.518 106.242 264.67 106.617 264.67C107.019 264.67 107.359 264.514 107.636 264.201C107.914 263.885 108.052 263.418 108.052 262.801C108.052 262.156 107.92 261.678 107.654 261.365C107.388 261.053 107.052 260.896 106.646 260.896C106.252 260.896 105.925 261.051 105.668 261.359C105.414 261.664 105.287 262.131 105.287 262.76ZM115.208 264.02L116.848 264.295C116.637 264.896 116.304 265.355 115.846 265.672C115.393 265.984 114.825 266.141 114.141 266.141C113.059 266.141 112.259 265.787 111.739 265.08C111.329 264.514 111.124 263.799 111.124 262.936C111.124 261.904 111.393 261.098 111.932 260.516C112.471 259.93 113.153 259.637 113.977 259.637C114.903 259.637 115.634 259.943 116.169 260.557C116.704 261.166 116.96 262.102 116.936 263.363H112.811C112.823 263.852 112.956 264.232 113.21 264.506C113.464 264.775 113.78 264.91 114.159 264.91C114.417 264.91 114.634 264.84 114.809 264.699C114.985 264.559 115.118 264.332 115.208 264.02ZM115.302 262.355C115.29 261.879 115.167 261.518 114.932 261.271C114.698 261.021 114.413 260.896 114.077 260.896C113.718 260.896 113.421 261.027 113.186 261.289C112.952 261.551 112.837 261.906 112.841 262.355H115.302ZM121.438 259.777V261.09H120.312V263.598C120.312 264.105 120.322 264.402 120.342 264.488C120.365 264.57 120.414 264.639 120.488 264.693C120.566 264.748 120.66 264.775 120.77 264.775C120.922 264.775 121.143 264.723 121.432 264.617L121.572 265.895C121.189 266.059 120.756 266.141 120.271 266.141C119.975 266.141 119.707 266.092 119.469 265.994C119.23 265.893 119.055 265.764 118.941 265.607C118.832 265.447 118.756 265.232 118.713 264.963C118.678 264.771 118.66 264.385 118.66 263.803V261.09H117.904V259.777H118.66V258.541L120.312 257.58V259.777H121.438Z" fill="black"/>
<path d="M52.6191 304H50.7324L49.9824 302.049H46.5488L45.8398 304H44L47.3457 295.41H49.1797L52.6191 304ZM49.4258 300.602L48.2422 297.414L47.082 300.602H49.4258ZM59.4934 304H57.8469V300.824C57.8469 300.152 57.8117 299.719 57.7414 299.523C57.6711 299.324 57.5559 299.17 57.3957 299.061C57.2395 298.951 57.05 298.896 56.8273 298.896C56.5422 298.896 56.2863 298.975 56.0598 299.131C55.8332 299.287 55.677 299.494 55.591 299.752C55.509 300.01 55.468 300.486 55.468 301.182V304H53.8215V297.777H55.3508V298.691C55.8938 297.988 56.5773 297.637 57.4016 297.637C57.7648 297.637 58.0969 297.703 58.3977 297.836C58.6984 297.965 58.925 298.131 59.0773 298.334C59.2336 298.537 59.341 298.768 59.3996 299.025C59.4621 299.283 59.4934 299.652 59.4934 300.133V304ZM67.1293 304H65.4828V300.824C65.4828 300.152 65.4477 299.719 65.3773 299.523C65.307 299.324 65.1918 299.17 65.0316 299.061C64.8754 298.951 64.6859 298.896 64.4633 298.896C64.1781 298.896 63.9223 298.975 63.6957 299.131C63.4691 299.287 63.3129 299.494 63.227 299.752C63.1449 300.01 63.1039 300.486 63.1039 301.182V304H61.4574V297.777H62.9867V298.691C63.5297 297.988 64.2133 297.637 65.0375 297.637C65.4008 297.637 65.7328 297.703 66.0336 297.836C66.3344 297.965 66.5609 298.131 66.7133 298.334C66.8695 298.537 66.977 298.768 67.0355 299.025C67.098 299.283 67.1293 299.652 67.1293 300.133V304ZM73.2008 304V303.068C72.9742 303.4 72.6754 303.662 72.3043 303.854C71.9371 304.045 71.5484 304.141 71.1383 304.141C70.7203 304.141 70.3453 304.049 70.0133 303.865C69.6812 303.682 69.441 303.424 69.2926 303.092C69.1441 302.76 69.0699 302.301 69.0699 301.715V297.777H70.7164V300.637C70.7164 301.512 70.7457 302.049 70.8043 302.248C70.8668 302.443 70.9781 302.6 71.1383 302.717C71.2984 302.83 71.5016 302.887 71.7477 302.887C72.0289 302.887 72.2809 302.811 72.5035 302.658C72.7262 302.502 72.8785 302.311 72.9605 302.084C73.0426 301.854 73.0836 301.293 73.0836 300.402V297.777H74.7301V304H73.2008ZM77.9715 299.676L76.4773 299.406C76.6453 298.805 76.9344 298.359 77.3445 298.07C77.7547 297.781 78.3641 297.637 79.1727 297.637C79.907 297.637 80.4539 297.725 80.8133 297.9C81.1727 298.072 81.4246 298.293 81.5691 298.562C81.7176 298.828 81.7918 299.318 81.7918 300.033L81.7742 301.955C81.7742 302.502 81.7996 302.906 81.8504 303.168C81.9051 303.426 82.0047 303.703 82.1492 304H80.5203C80.4773 303.891 80.4246 303.729 80.3621 303.514C80.3348 303.416 80.3152 303.352 80.3035 303.32C80.0223 303.594 79.7215 303.799 79.4012 303.936C79.0809 304.072 78.7391 304.141 78.3758 304.141C77.7352 304.141 77.2293 303.967 76.8582 303.619C76.491 303.271 76.3074 302.832 76.3074 302.301C76.3074 301.949 76.3914 301.637 76.5594 301.363C76.7273 301.086 76.9617 300.875 77.2625 300.73C77.5672 300.582 78.0047 300.453 78.575 300.344C79.3445 300.199 79.8777 300.064 80.1746 299.939V299.775C80.1746 299.459 80.0965 299.234 79.9402 299.102C79.784 298.965 79.4891 298.896 79.0555 298.896C78.7625 298.896 78.534 298.955 78.3699 299.072C78.2059 299.186 78.073 299.387 77.9715 299.676ZM80.1746 301.012C79.9637 301.082 79.6297 301.166 79.1727 301.264C78.7156 301.361 78.4168 301.457 78.2762 301.551C78.0613 301.703 77.9539 301.896 77.9539 302.131C77.9539 302.361 78.0398 302.561 78.2117 302.729C78.3836 302.896 78.6023 302.98 78.868 302.98C79.1648 302.98 79.448 302.883 79.7176 302.688C79.9168 302.539 80.0477 302.357 80.1102 302.143C80.1531 302.002 80.1746 301.734 80.1746 301.34V301.012ZM83.7207 304V295.41H85.3672V304H83.7207ZM90.9301 304V295.41H92.5766V298.504C93.0844 297.926 93.6859 297.637 94.3812 297.637C95.1391 297.637 95.766 297.912 96.2621 298.463C96.7582 299.01 97.0062 299.797 97.0062 300.824C97.0062 301.887 96.7523 302.705 96.2445 303.279C95.7406 303.854 95.1273 304.141 94.4047 304.141C94.0492 304.141 93.6977 304.053 93.35 303.877C93.0062 303.697 92.7094 303.434 92.4594 303.086V304H90.9301ZM92.5648 300.754C92.5648 301.398 92.6664 301.875 92.8695 302.184C93.1547 302.621 93.5336 302.84 94.0062 302.84C94.3695 302.84 94.6781 302.686 94.932 302.377C95.1898 302.064 95.3187 301.574 95.3187 300.906C95.3187 300.195 95.1898 299.684 94.932 299.371C94.6742 299.055 94.3441 298.896 93.9418 298.896C93.5473 298.896 93.2191 299.051 92.9574 299.359C92.6957 299.664 92.5648 300.129 92.5648 300.754ZM102.732 304V303.068C102.505 303.4 102.207 303.662 101.836 303.854C101.468 304.045 101.08 304.141 100.67 304.141C100.252 304.141 99.8766 304.049 99.5445 303.865C99.2125 303.682 98.9723 303.424 98.8238 303.092C98.6754 302.76 98.6012 302.301 98.6012 301.715V297.777H100.248V300.637C100.248 301.512 100.277 302.049 100.336 302.248C100.398 302.443 100.509 302.6 100.67 302.717C100.83 302.83 101.033 302.887 101.279 302.887C101.56 302.887 101.812 302.811 102.035 302.658C102.257 302.502 102.41 302.311 102.492 302.084C102.574 301.854 102.615 301.293 102.615 300.402V297.777H104.261V304H102.732ZM111.979 304H110.45V303.086C110.196 303.441 109.895 303.707 109.548 303.883C109.204 304.055 108.856 304.141 108.505 304.141C107.79 304.141 107.177 303.854 106.665 303.279C106.157 302.701 105.903 301.896 105.903 300.865C105.903 299.811 106.151 299.01 106.647 298.463C107.143 297.912 107.77 297.637 108.528 297.637C109.223 297.637 109.825 297.926 110.333 298.504V295.41H111.979V304ZM107.585 300.754C107.585 301.418 107.677 301.898 107.86 302.195C108.126 302.625 108.497 302.84 108.973 302.84C109.352 302.84 109.675 302.68 109.94 302.359C110.206 302.035 110.339 301.553 110.339 300.912C110.339 300.197 110.21 299.684 109.952 299.371C109.694 299.055 109.364 298.896 108.962 298.896C108.571 298.896 108.243 299.053 107.977 299.365C107.716 299.674 107.585 300.137 107.585 300.754ZM113.756 304.41L115.637 304.639C115.668 304.857 115.74 305.008 115.854 305.09C116.01 305.207 116.256 305.266 116.592 305.266C117.021 305.266 117.344 305.201 117.559 305.072C117.703 304.986 117.812 304.848 117.887 304.656C117.938 304.52 117.963 304.268 117.963 303.9V302.992C117.471 303.664 116.85 304 116.1 304C115.264 304 114.602 303.646 114.113 302.939C113.73 302.381 113.539 301.686 113.539 300.854C113.539 299.811 113.789 299.014 114.289 298.463C114.793 297.912 115.418 297.637 116.164 297.637C116.934 297.637 117.568 297.975 118.068 298.65V297.777H119.609V303.361C119.609 304.096 119.549 304.645 119.428 305.008C119.307 305.371 119.137 305.656 118.918 305.863C118.699 306.07 118.406 306.232 118.039 306.35C117.676 306.467 117.215 306.525 116.656 306.525C115.602 306.525 114.854 306.344 114.412 305.98C113.971 305.621 113.75 305.164 113.75 304.609C113.75 304.555 113.752 304.488 113.756 304.41ZM115.227 300.76C115.227 301.42 115.354 301.904 115.607 302.213C115.865 302.518 116.182 302.67 116.557 302.67C116.959 302.67 117.299 302.514 117.576 302.201C117.854 301.885 117.992 301.418 117.992 300.801C117.992 300.156 117.859 299.678 117.594 299.365C117.328 299.053 116.992 298.896 116.586 298.896C116.191 298.896 115.865 299.051 115.607 299.359C115.354 299.664 115.227 300.131 115.227 300.76ZM125.148 302.02L126.788 302.295C126.577 302.896 126.243 303.355 125.786 303.672C125.333 303.984 124.765 304.141 124.081 304.141C122.999 304.141 122.198 303.787 121.679 303.08C121.269 302.514 121.064 301.799 121.064 300.936C121.064 299.904 121.333 299.098 121.872 298.516C122.411 297.93 123.093 297.637 123.917 297.637C124.843 297.637 125.573 297.943 126.109 298.557C126.644 299.166 126.9 300.102 126.876 301.363H122.751C122.763 301.852 122.896 302.232 123.15 302.506C123.404 302.775 123.72 302.91 124.099 302.91C124.357 302.91 124.573 302.84 124.749 302.699C124.925 302.559 125.058 302.332 125.148 302.02ZM125.241 300.355C125.23 299.879 125.107 299.518 124.872 299.271C124.638 299.021 124.353 298.896 124.017 298.896C123.657 298.896 123.361 299.027 123.126 299.289C122.892 299.551 122.777 299.906 122.78 300.355H125.241ZM131.377 297.777V299.09H130.252V301.598C130.252 302.105 130.262 302.402 130.282 302.488C130.305 302.57 130.354 302.639 130.428 302.693C130.506 302.748 130.6 302.775 130.709 302.775C130.862 302.775 131.082 302.723 131.371 302.617L131.512 303.895C131.129 304.059 130.696 304.141 130.211 304.141C129.914 304.141 129.647 304.092 129.409 303.994C129.17 303.893 128.995 303.764 128.881 303.607C128.772 303.447 128.696 303.232 128.653 302.963C128.618 302.771 128.6 302.385 128.6 301.803V299.09H127.844V297.777H128.6V296.541L130.252 295.58V297.777H131.377Z" fill="black"/>
<path d="M294.267 302.729V300.273C293.501 300.055 292.939 299.725 292.579 299.283C292.224 298.838 292.046 298.299 292.046 297.666C292.046 297.025 292.247 296.488 292.65 296.055C293.056 295.617 293.595 295.365 294.267 295.299V294.719H295.116V295.299C295.738 295.373 296.232 295.586 296.599 295.938C296.966 296.285 297.2 296.752 297.302 297.338L295.82 297.531C295.73 297.07 295.495 296.758 295.116 296.594V298.885C296.054 299.139 296.693 299.469 297.032 299.875C297.372 300.277 297.542 300.795 297.542 301.428C297.542 302.135 297.327 302.73 296.898 303.215C296.472 303.699 295.878 303.996 295.116 304.105V305.201H294.267V304.135C293.591 304.053 293.042 303.801 292.62 303.379C292.198 302.957 291.929 302.361 291.812 301.592L293.341 301.428C293.404 301.74 293.521 302.01 293.693 302.236C293.864 302.463 294.056 302.627 294.267 302.729ZM294.267 296.576C294.036 296.654 293.853 296.787 293.716 296.975C293.579 297.162 293.511 297.369 293.511 297.596C293.511 297.803 293.573 297.996 293.698 298.176C293.823 298.352 294.013 298.494 294.267 298.604V296.576ZM295.116 302.811C295.409 302.756 295.648 302.621 295.831 302.406C296.015 302.188 296.107 301.932 296.107 301.639C296.107 301.377 296.029 301.152 295.872 300.965C295.72 300.773 295.468 300.627 295.116 300.525V302.811ZM298.914 301.791L300.555 301.621C300.602 301.992 300.741 302.287 300.971 302.506C301.202 302.721 301.467 302.828 301.768 302.828C302.112 302.828 302.403 302.689 302.641 302.412C302.879 302.131 302.998 301.709 302.998 301.146C302.998 300.619 302.879 300.225 302.641 299.963C302.407 299.697 302.1 299.564 301.721 299.564C301.248 299.564 300.825 299.773 300.45 300.191L299.114 299.998L299.957 295.527H304.311V297.068H301.205L300.948 298.527C301.315 298.344 301.69 298.252 302.073 298.252C302.803 298.252 303.422 298.518 303.93 299.049C304.438 299.58 304.692 300.27 304.692 301.117C304.692 301.824 304.487 302.455 304.077 303.01C303.518 303.768 302.743 304.146 301.75 304.146C300.957 304.146 300.311 303.934 299.811 303.508C299.311 303.082 299.012 302.51 298.914 301.791ZM308.654 295.375C309.486 295.375 310.136 295.672 310.605 296.266C311.164 296.969 311.443 298.135 311.443 299.764C311.443 301.389 311.162 302.557 310.599 303.268C310.134 303.854 309.486 304.146 308.654 304.146C307.818 304.146 307.144 303.826 306.632 303.186C306.121 302.541 305.865 301.395 305.865 299.746C305.865 298.129 306.146 296.965 306.709 296.254C307.173 295.668 307.822 295.375 308.654 295.375ZM308.654 296.74C308.455 296.74 308.277 296.805 308.121 296.934C307.964 297.059 307.843 297.285 307.757 297.613C307.644 298.039 307.588 298.756 307.588 299.764C307.588 300.771 307.638 301.465 307.74 301.844C307.841 302.219 307.968 302.469 308.121 302.594C308.277 302.719 308.455 302.781 308.654 302.781C308.853 302.781 309.031 302.719 309.187 302.594C309.343 302.465 309.464 302.236 309.55 301.908C309.664 301.486 309.72 300.771 309.72 299.764C309.72 298.756 309.67 298.064 309.568 297.689C309.466 297.311 309.338 297.059 309.181 296.934C309.029 296.805 308.853 296.74 308.654 296.74ZM315.634 295.375C316.466 295.375 317.116 295.672 317.585 296.266C318.143 296.969 318.423 298.135 318.423 299.764C318.423 301.389 318.141 302.557 317.579 303.268C317.114 303.854 316.466 304.146 315.634 304.146C314.798 304.146 314.124 303.826 313.612 303.186C313.1 302.541 312.845 301.395 312.845 299.746C312.845 298.129 313.126 296.965 313.688 296.254C314.153 295.668 314.802 295.375 315.634 295.375ZM315.634 296.74C315.434 296.74 315.257 296.805 315.1 296.934C314.944 297.059 314.823 297.285 314.737 297.613C314.624 298.039 314.567 298.756 314.567 299.764C314.567 300.771 314.618 301.465 314.72 301.844C314.821 302.219 314.948 302.469 315.1 302.594C315.257 302.719 315.434 302.781 315.634 302.781C315.833 302.781 316.011 302.719 316.167 302.594C316.323 302.465 316.444 302.236 316.53 301.908C316.643 301.486 316.7 300.771 316.7 299.764C316.7 298.756 316.649 298.064 316.548 297.689C316.446 297.311 316.317 297.059 316.161 296.934C316.009 296.805 315.833 296.74 315.634 296.74ZM322.613 295.375C323.445 295.375 324.096 295.672 324.564 296.266C325.123 296.969 325.402 298.135 325.402 299.764C325.402 301.389 325.121 302.557 324.559 303.268C324.094 303.854 323.445 304.146 322.613 304.146C321.777 304.146 321.104 303.826 320.592 303.186C320.08 302.541 319.824 301.395 319.824 299.746C319.824 298.129 320.105 296.965 320.668 296.254C321.133 295.668 321.781 295.375 322.613 295.375ZM322.613 296.74C322.414 296.74 322.236 296.805 322.08 296.934C321.924 297.059 321.803 297.285 321.717 297.613C321.604 298.039 321.547 298.756 321.547 299.764C321.547 300.771 321.598 301.465 321.699 301.844C321.801 302.219 321.928 302.469 322.08 302.594C322.236 302.719 322.414 302.781 322.613 302.781C322.812 302.781 322.99 302.719 323.146 302.594C323.303 302.465 323.424 302.236 323.51 301.908C323.623 301.486 323.68 300.771 323.68 299.764C323.68 298.756 323.629 298.064 323.527 297.689C323.426 297.311 323.297 297.059 323.141 296.934C322.988 296.805 322.812 296.74 322.613 296.74Z" fill="black"/>
<path d="M211.673 132.444C211.196 134.732 210.701 132.51 210.736 136.337C211.09 132.513 212.345 138.001 215.134 138.816C224.999 141.732 236.937 150.135 245.031 156.48C248.499 159.171 254.692 164.923 256.652 167.252L257.934 168.774L261.66 165.943C263.728 164.356 265.184 164.27 265.193 164.161C265.226 164.082 263.661 160.944 261.5 158.734C252.299 149.291 244.226 141.141 232.381 134.726C225.149 131.429 213.896 125.887 213.08 126.523C212.933 126.647 212.571 128.134 211.673 132.444Z" fill="#F6C143"/>
<path d="M177.459 124.067C138.999 128.128 106.285 155.211 95.0989 192.216C92.7238 200.069 91 210.488 91 217.001V219.797H96.0949H101.228L101.458 215.468C102.186 203.593 104.982 193.059 110.345 182.064C122.565 157.203 145.549 140.08 173.552 135.1C177.842 134.334 179.796 134.219 187.726 134.219C197.302 134.219 199.792 134.487 207.799 136.326C210.94 137.053 211.553 137.322 212.97 138.701C215 140.693 216.456 141.267 219.444 141.267C222.623 141.267 224.807 140.156 226.454 137.743C229.212 133.644 228.101 128.205 223.888 125.446C221.359 123.761 216.954 123.952 214.272 125.791L212.855 126.787L208.182 125.791C205.653 125.217 201.363 124.527 198.681 124.221C193.548 123.608 182.477 123.531 177.459 124.067Z" fill="#007DC6"/>
<path d="M261.191 165.804C259.426 167.179 257.992 168.406 257.955 168.554C257.955 168.703 259.205 170.71 260.75 173.014C266.193 181.191 270.974 192.452 272.996 202.041C273.879 206.129 274.872 214.12 274.872 217.019V218.914L279.359 219.137C281.859 219.248 283.919 219.286 283.992 219.211C284.066 219.174 283.919 216.721 283.698 213.785C282.779 201.26 280.021 190.594 274.835 179.63C271.562 172.791 265.752 163.314 264.759 163.277C264.575 163.277 262.957 164.429 261.191 165.804Z" fill="#B02318"/>
<rect x="160.799" y="274" width="165.201" height="14.7313" fill="#B02318"/>
<rect x="126.075" y="274" width="165.201" height="14.7313" fill="#F6C143"/>
<rect x="44" y="274" width="165.201" height="14.7313" fill="#007DC6"/>
<path d="M141.551 198.762V190.578C138.999 189.849 137.124 188.749 135.926 187.277C134.741 185.793 134.148 183.996 134.148 181.887C134.148 179.751 134.819 177.961 136.16 176.516C137.514 175.057 139.311 174.217 141.551 173.996V172.062H144.383V173.996C146.453 174.243 148.1 174.953 149.324 176.125C150.548 177.284 151.329 178.84 151.668 180.793L146.727 181.438C146.427 179.901 145.646 178.859 144.383 178.312V185.949C147.508 186.796 149.637 187.896 150.77 189.25C151.902 190.591 152.469 192.316 152.469 194.426C152.469 196.783 151.753 198.768 150.32 200.383C148.901 201.997 146.922 202.987 144.383 203.352V207.004H141.551V203.449C139.298 203.176 137.469 202.336 136.062 200.93C134.656 199.523 133.758 197.538 133.367 194.973L138.465 194.426C138.673 195.467 139.064 196.366 139.637 197.121C140.21 197.876 140.848 198.423 141.551 198.762ZM141.551 178.254C140.783 178.514 140.171 178.957 139.715 179.582C139.259 180.207 139.031 180.897 139.031 181.652C139.031 182.342 139.24 182.987 139.656 183.586C140.073 184.172 140.704 184.647 141.551 185.012V178.254ZM144.383 199.035C145.359 198.853 146.154 198.404 146.766 197.688C147.378 196.958 147.684 196.105 147.684 195.129C147.684 194.257 147.423 193.508 146.902 192.883C146.395 192.245 145.555 191.757 144.383 191.418V199.035ZM155.77 195.402L161.082 194.758C161.251 196.112 161.707 197.147 162.449 197.863C163.191 198.579 164.09 198.938 165.145 198.938C166.277 198.938 167.228 198.508 167.996 197.648C168.777 196.789 169.168 195.63 169.168 194.172C169.168 192.792 168.797 191.698 168.055 190.891C167.312 190.083 166.408 189.68 165.34 189.68C164.637 189.68 163.797 189.816 162.82 190.09L163.426 185.617C164.91 185.656 166.043 185.337 166.824 184.66C167.605 183.97 167.996 183.059 167.996 181.926C167.996 180.962 167.71 180.194 167.137 179.621C166.564 179.048 165.802 178.762 164.852 178.762C163.914 178.762 163.113 179.087 162.449 179.738C161.785 180.389 161.382 181.34 161.238 182.59L156.18 181.73C156.531 179.999 157.059 178.618 157.762 177.59C158.478 176.548 159.467 175.734 160.73 175.148C162.007 174.549 163.432 174.25 165.008 174.25C167.703 174.25 169.865 175.109 171.492 176.828C172.833 178.234 173.504 179.823 173.504 181.594C173.504 184.107 172.13 186.112 169.383 187.609C171.023 187.961 172.332 188.749 173.309 189.973C174.298 191.197 174.793 192.674 174.793 194.406C174.793 196.919 173.875 199.061 172.039 200.832C170.203 202.603 167.918 203.488 165.184 203.488C162.592 203.488 160.444 202.746 158.738 201.262C157.033 199.764 156.043 197.811 155.77 195.402ZM178.309 195.637L183.777 195.07C183.934 196.307 184.396 197.29 185.164 198.02C185.932 198.736 186.818 199.094 187.82 199.094C188.966 199.094 189.936 198.632 190.73 197.707C191.525 196.77 191.922 195.363 191.922 193.488C191.922 191.73 191.525 190.415 190.73 189.543C189.949 188.658 188.927 188.215 187.664 188.215C186.089 188.215 184.676 188.911 183.426 190.305L178.973 189.66L181.785 174.758H196.297V179.895H185.945L185.086 184.758C186.31 184.146 187.56 183.84 188.836 183.84C191.271 183.84 193.335 184.725 195.027 186.496C196.72 188.267 197.566 190.565 197.566 193.391C197.566 195.747 196.883 197.85 195.516 199.699C193.654 202.225 191.069 203.488 187.762 203.488C185.118 203.488 182.964 202.779 181.297 201.359C179.63 199.94 178.634 198.033 178.309 195.637ZM209.773 174.25C212.547 174.25 214.715 175.24 216.277 177.219C218.139 179.562 219.07 183.449 219.07 188.879C219.07 194.296 218.133 198.189 216.258 200.559C214.708 202.512 212.547 203.488 209.773 203.488C206.987 203.488 204.741 202.421 203.035 200.285C201.329 198.137 200.477 194.315 200.477 188.82C200.477 183.43 201.414 179.549 203.289 177.18C204.839 175.227 207 174.25 209.773 174.25ZM209.773 178.801C209.109 178.801 208.517 179.016 207.996 179.445C207.475 179.862 207.072 180.617 206.785 181.711C206.408 183.13 206.219 185.52 206.219 188.879C206.219 192.238 206.388 194.549 206.727 195.812C207.065 197.062 207.488 197.896 207.996 198.312C208.517 198.729 209.109 198.938 209.773 198.938C210.438 198.938 211.03 198.729 211.551 198.312C212.072 197.883 212.475 197.121 212.762 196.027C213.139 194.621 213.328 192.238 213.328 188.879C213.328 185.52 213.159 183.215 212.82 181.965C212.482 180.702 212.052 179.862 211.531 179.445C211.023 179.016 210.438 178.801 209.773 178.801ZM232.039 174.25C234.812 174.25 236.98 175.24 238.543 177.219C240.405 179.562 241.336 183.449 241.336 188.879C241.336 194.296 240.398 198.189 238.523 200.559C236.974 202.512 234.812 203.488 232.039 203.488C229.253 203.488 227.007 202.421 225.301 200.285C223.595 198.137 222.742 194.315 222.742 188.82C222.742 183.43 223.68 179.549 225.555 177.18C227.104 175.227 229.266 174.25 232.039 174.25ZM232.039 178.801C231.375 178.801 230.783 179.016 230.262 179.445C229.741 179.862 229.337 180.617 229.051 181.711C228.673 183.13 228.484 185.52 228.484 188.879C228.484 192.238 228.654 194.549 228.992 195.812C229.331 197.062 229.754 197.896 230.262 198.312C230.783 198.729 231.375 198.938 232.039 198.938C232.703 198.938 233.296 198.729 233.816 198.312C234.337 197.883 234.741 197.121 235.027 196.027C235.405 194.621 235.594 192.238 235.594 188.879C235.594 185.52 235.424 183.215 235.086 181.965C234.747 180.702 234.318 179.862 233.797 179.445C233.289 179.016 232.703 178.801 232.039 178.801Z" fill="black"/>
<rect x="219.039" y="296.003" width="28" height="1.96144" transform="rotate(-90.0801 219.039 296.003)" fill="#262626"/>
<rect x="145" y="46" width="83" height="5" rx="2.5" fill="black"/>
<line x1="236.5" y1="76" x2="236.5" y2="100" stroke="#007DC6"/>
<rect x="25" y="75" width="98" height="25" fill="#007DC6"/>
<path d="M58.3191 92H56.4324L55.6824 90.0488H52.2488L51.5398 92H49.7L53.0457 83.4102H54.8797L58.3191 92ZM55.1258 88.6016L53.9422 85.4141L52.782 88.6016H55.1258ZM59.5332 92V83.4102H61.1797V92H59.5332ZM63.173 92V83.4102H64.8195V92H63.173ZM72.398 92V84.8633H69.8492V83.4102H76.6754V84.8633H74.1324V92H72.398ZM77.866 84.9336V83.4102H79.5125V84.9336H77.866ZM77.866 92V85.7773H79.5125V92H77.866ZM81.3828 85.7773H82.9004V86.627C83.4434 85.9668 84.0898 85.6367 84.8398 85.6367C85.2383 85.6367 85.584 85.7188 85.877 85.8828C86.1699 86.0469 86.4102 86.2949 86.5977 86.627C86.8711 86.2949 87.166 86.0469 87.4824 85.8828C87.7988 85.7188 88.1367 85.6367 88.4961 85.6367C88.9531 85.6367 89.3398 85.7305 89.6562 85.918C89.9727 86.1016 90.209 86.373 90.3652 86.7324C90.4785 86.998 90.5352 87.4277 90.5352 88.0215V92H88.8887V88.4434C88.8887 87.8262 88.832 87.4277 88.7188 87.248C88.5664 87.0137 88.332 86.8965 88.0156 86.8965C87.7852 86.8965 87.5684 86.9668 87.3652 87.1074C87.1621 87.248 87.0156 87.4551 86.9258 87.7285C86.8359 87.998 86.791 88.4258 86.791 89.0117V92H85.1445V88.5898C85.1445 87.9844 85.1152 87.5938 85.0566 87.418C84.998 87.2422 84.9062 87.1113 84.7812 87.0254C84.6602 86.9395 84.4941 86.8965 84.2832 86.8965C84.0293 86.8965 83.8008 86.9648 83.5977 87.1016C83.3945 87.2383 83.248 87.4355 83.1582 87.6934C83.0723 87.9512 83.0293 88.3789 83.0293 88.9766V92H81.3828V85.7773ZM96.0852 90.0195L97.7258 90.2949C97.5148 90.8965 97.1809 91.3555 96.7238 91.6719C96.2707 91.9844 95.7023 92.1406 95.0188 92.1406C93.9367 92.1406 93.1359 91.7871 92.6164 91.0801C92.2063 90.5137 92.0012 89.7988 92.0012 88.9355C92.0012 87.9043 92.2707 87.0977 92.8098 86.5156C93.3488 85.9297 94.0305 85.6367 94.8547 85.6367C95.7805 85.6367 96.5109 85.9434 97.0461 86.5566C97.5813 87.166 97.8371 88.1016 97.8137 89.3633H93.6887C93.7004 89.8516 93.8332 90.2324 94.0871 90.5059C94.341 90.7754 94.6574 90.9102 95.0363 90.9102C95.2941 90.9102 95.5109 90.8398 95.6867 90.6992C95.8625 90.5586 95.9953 90.332 96.0852 90.0195ZM96.1789 88.3555C96.1672 87.8789 96.0441 87.5176 95.8098 87.2715C95.5754 87.0215 95.2902 86.8965 94.9543 86.8965C94.5949 86.8965 94.298 87.0273 94.0637 87.2891C93.8293 87.5508 93.7141 87.9062 93.718 88.3555H96.1789Z" fill="white"/>
<path d="M155.88 92V84.4238H153.05V83.4102H159.859V84.4238H157.017V92H155.88ZM161.196 92V83.4102H162.25V86.4922C162.743 85.9219 163.364 85.6367 164.114 85.6367C164.575 85.6367 164.975 85.7285 165.315 85.9121C165.655 86.0918 165.897 86.3418 166.041 86.6621C166.19 86.9824 166.264 87.4473 166.264 88.0566V92H165.209V88.0566C165.209 87.5293 165.094 87.1465 164.864 86.9082C164.637 86.666 164.315 86.5449 163.897 86.5449C163.584 86.5449 163.289 86.627 163.012 86.791C162.739 86.9512 162.543 87.1699 162.426 87.4473C162.309 87.7246 162.25 88.1074 162.25 88.5957V92H161.196ZM168.181 84.623V83.4102H169.236V84.623H168.181ZM168.181 92V85.7773H169.236V92H168.181ZM170.725 90.1426L171.768 89.9785C171.827 90.3965 171.989 90.7168 172.255 90.9395C172.524 91.1621 172.899 91.2734 173.38 91.2734C173.864 91.2734 174.223 91.1758 174.458 90.9805C174.692 90.7812 174.809 90.5488 174.809 90.2832C174.809 90.0449 174.706 89.8574 174.499 89.7207C174.354 89.627 173.995 89.5078 173.421 89.3633C172.647 89.168 172.11 89 171.809 88.8594C171.512 88.7148 171.286 88.5176 171.13 88.2676C170.977 88.0137 170.901 87.7344 170.901 87.4297C170.901 87.1523 170.964 86.8965 171.089 86.6621C171.218 86.4238 171.391 86.2266 171.61 86.0703C171.774 85.9492 171.997 85.8477 172.278 85.7656C172.563 85.6797 172.868 85.6367 173.192 85.6367C173.68 85.6367 174.108 85.707 174.475 85.8477C174.846 85.9883 175.12 86.1797 175.296 86.4219C175.471 86.6602 175.593 86.9805 175.659 87.3828L174.628 87.5234C174.581 87.2031 174.444 86.9531 174.218 86.7734C173.995 86.5938 173.679 86.5039 173.268 86.5039C172.784 86.5039 172.438 86.584 172.231 86.7441C172.024 86.9043 171.921 87.0918 171.921 87.3066C171.921 87.4434 171.964 87.5664 172.05 87.6758C172.136 87.7891 172.27 87.8828 172.454 87.957C172.559 87.9961 172.87 88.0859 173.386 88.2266C174.132 88.4258 174.651 88.5898 174.944 88.7188C175.241 88.8438 175.473 89.0273 175.641 89.2695C175.809 89.5117 175.893 89.8125 175.893 90.1719C175.893 90.5234 175.79 90.8555 175.583 91.168C175.38 91.4766 175.085 91.7168 174.698 91.8887C174.311 92.0566 173.874 92.1406 173.386 92.1406C172.577 92.1406 171.96 91.9727 171.534 91.6367C171.112 91.3008 170.843 90.8027 170.725 90.1426ZM183.419 92V88.3613L180.109 83.4102H181.491L183.185 86C183.497 86.4844 183.788 86.9688 184.058 87.4531C184.316 87.0039 184.628 86.498 184.995 85.9355L186.659 83.4102H187.984L184.556 88.3613V92H183.419ZM192.327 89.9961L193.416 90.1309C193.245 90.7676 192.926 91.2617 192.461 91.6133C191.996 91.9648 191.403 92.1406 190.68 92.1406C189.77 92.1406 189.047 91.8613 188.512 91.3027C187.981 90.7402 187.715 89.9531 187.715 88.9414C187.715 87.8945 187.985 87.082 188.524 86.5039C189.063 85.9258 189.762 85.6367 190.621 85.6367C191.454 85.6367 192.133 85.9199 192.661 86.4863C193.188 87.0527 193.452 87.8496 193.452 88.877C193.452 88.9395 193.45 89.0332 193.446 89.1582H188.805C188.844 89.8418 189.037 90.3652 189.385 90.7285C189.733 91.0918 190.166 91.2734 190.686 91.2734C191.073 91.2734 191.403 91.1719 191.676 90.9688C191.95 90.7656 192.166 90.4414 192.327 89.9961ZM188.864 88.291H192.338C192.291 87.7676 192.159 87.375 191.94 87.1133C191.604 86.707 191.168 86.5039 190.633 86.5039C190.149 86.5039 189.741 86.666 189.409 86.9902C189.08 87.3145 188.899 87.748 188.864 88.291ZM199.107 91.2324C198.716 91.5645 198.339 91.7988 197.976 91.9355C197.617 92.0723 197.23 92.1406 196.816 92.1406C196.132 92.1406 195.607 91.9746 195.24 91.6426C194.873 91.3066 194.689 90.8789 194.689 90.3594C194.689 90.0547 194.757 89.7773 194.894 89.5273C195.035 89.2734 195.216 89.0703 195.439 88.918C195.666 88.7656 195.92 88.6504 196.201 88.5723C196.408 88.5176 196.72 88.4648 197.138 88.4141C197.99 88.3125 198.617 88.1914 199.019 88.0508C199.023 87.9062 199.025 87.8145 199.025 87.7754C199.025 87.3457 198.925 87.043 198.726 86.8672C198.457 86.6289 198.056 86.5098 197.525 86.5098C197.029 86.5098 196.662 86.5977 196.423 86.7734C196.189 86.9453 196.015 87.252 195.902 87.6934L194.871 87.5527C194.964 87.1113 195.119 86.7559 195.334 86.4863C195.548 86.2129 195.859 86.0039 196.265 85.8594C196.671 85.7109 197.142 85.6367 197.677 85.6367C198.209 85.6367 198.64 85.6992 198.972 85.8242C199.304 85.9492 199.548 86.1074 199.705 86.2988C199.861 86.4863 199.97 86.7246 200.033 87.0137C200.068 87.1934 200.086 87.5176 200.086 87.9863V89.3926C200.086 90.373 200.107 90.9941 200.15 91.2559C200.197 91.5137 200.287 91.7617 200.42 92H199.318C199.209 91.7812 199.138 91.5254 199.107 91.2324ZM199.019 88.877C198.636 89.0332 198.062 89.166 197.296 89.2754C196.863 89.3379 196.556 89.4082 196.377 89.4863C196.197 89.5645 196.058 89.6797 195.961 89.832C195.863 89.9805 195.814 90.1465 195.814 90.3301C195.814 90.6113 195.92 90.8457 196.13 91.0332C196.345 91.2207 196.658 91.3145 197.068 91.3145C197.474 91.3145 197.836 91.2266 198.152 91.0508C198.468 90.8711 198.701 90.627 198.849 90.3184C198.962 90.0801 199.019 89.7285 199.019 89.2637V88.877ZM202.014 92V85.7773H202.964V86.7207C203.206 86.2793 203.429 85.9883 203.632 85.8477C203.839 85.707 204.065 85.6367 204.311 85.6367C204.667 85.6367 205.028 85.75 205.395 85.9766L205.032 86.9551C204.774 86.8027 204.516 86.7266 204.259 86.7266C204.028 86.7266 203.821 86.7969 203.637 86.9375C203.454 87.0742 203.323 87.2656 203.245 87.5117C203.128 87.8867 203.069 88.2969 203.069 88.7422V92H202.014Z" fill="black"/>
<path d="M263.56 91V83.4238H260.73V82.4102H267.539V83.4238H264.697V91H263.56ZM268.876 91V82.4102H269.93V85.4922C270.423 84.9219 271.044 84.6367 271.794 84.6367C272.255 84.6367 272.655 84.7285 272.995 84.9121C273.335 85.0918 273.577 85.3418 273.721 85.6621C273.87 85.9824 273.944 86.4473 273.944 87.0566V91H272.889V87.0566C272.889 86.5293 272.774 86.1465 272.544 85.9082C272.317 85.666 271.995 85.5449 271.577 85.5449C271.264 85.5449 270.97 85.627 270.692 85.791C270.419 85.9512 270.223 86.1699 270.106 86.4473C269.989 86.7246 269.93 87.1074 269.93 87.5957V91H268.876ZM275.861 83.623V82.4102H276.916V83.623H275.861ZM275.861 91V84.7773H276.916V91H275.861ZM278.405 89.1426L279.448 88.9785C279.507 89.3965 279.669 89.7168 279.935 89.9395C280.204 90.1621 280.579 90.2734 281.06 90.2734C281.544 90.2734 281.904 90.1758 282.138 89.9805C282.372 89.7812 282.489 89.5488 282.489 89.2832C282.489 89.0449 282.386 88.8574 282.179 88.7207C282.034 88.627 281.675 88.5078 281.101 88.3633C280.327 88.168 279.79 88 279.489 87.8594C279.193 87.7148 278.966 87.5176 278.81 87.2676C278.657 87.0137 278.581 86.7344 278.581 86.4297C278.581 86.1523 278.644 85.8965 278.769 85.6621C278.898 85.4238 279.071 85.2266 279.29 85.0703C279.454 84.9492 279.677 84.8477 279.958 84.7656C280.243 84.6797 280.548 84.6367 280.872 84.6367C281.361 84.6367 281.788 84.707 282.155 84.8477C282.527 84.9883 282.8 85.1797 282.976 85.4219C283.152 85.6602 283.273 85.9805 283.339 86.3828L282.308 86.5234C282.261 86.2031 282.124 85.9531 281.898 85.7734C281.675 85.5938 281.359 85.5039 280.948 85.5039C280.464 85.5039 280.118 85.584 279.911 85.7441C279.704 85.9043 279.601 86.0918 279.601 86.3066C279.601 86.4434 279.644 86.5664 279.73 86.6758C279.816 86.7891 279.95 86.8828 280.134 86.957C280.239 86.9961 280.55 87.0859 281.066 87.2266C281.812 87.4258 282.331 87.5898 282.624 87.7188C282.921 87.8438 283.154 88.0273 283.321 88.2695C283.489 88.5117 283.573 88.8125 283.573 89.1719C283.573 89.5234 283.47 89.8555 283.263 90.168C283.06 90.4766 282.765 90.7168 282.378 90.8887C281.991 91.0566 281.554 91.1406 281.066 91.1406C280.257 91.1406 279.64 90.9727 279.214 90.6367C278.792 90.3008 278.523 89.8027 278.405 89.1426ZM288.867 91V82.4102H290.578L292.611 88.4922C292.798 89.0586 292.935 89.4824 293.021 89.7637C293.119 89.4512 293.271 88.9922 293.478 88.3867L295.535 82.4102H297.064V91H295.968V83.8105L293.472 91H292.447L289.963 83.6875V91H288.867ZM298.671 87.8887C298.671 86.7363 298.991 85.8828 299.632 85.3281C300.167 84.8672 300.819 84.6367 301.589 84.6367C302.444 84.6367 303.143 84.918 303.686 85.4805C304.229 86.0391 304.501 86.8125 304.501 87.8008C304.501 88.6016 304.38 89.2324 304.137 89.6934C303.899 90.1504 303.55 90.5059 303.089 90.7598C302.632 91.0137 302.132 91.1406 301.589 91.1406C300.718 91.1406 300.012 90.8613 299.473 90.3027C298.938 89.7441 298.671 88.9395 298.671 87.8887ZM299.755 87.8887C299.755 88.6855 299.929 89.2832 300.276 89.6816C300.624 90.0762 301.061 90.2734 301.589 90.2734C302.112 90.2734 302.548 90.0742 302.895 89.6758C303.243 89.2773 303.417 88.6699 303.417 87.8535C303.417 87.084 303.241 86.502 302.889 86.1074C302.542 85.709 302.108 85.5098 301.589 85.5098C301.061 85.5098 300.624 85.707 300.276 86.1016C299.929 86.4961 299.755 87.0918 299.755 87.8887ZM306.043 91V84.7773H306.992V85.6621C307.449 84.9785 308.109 84.6367 308.973 84.6367C309.348 84.6367 309.691 84.7051 310.004 84.8418C310.32 84.9746 310.557 85.1504 310.713 85.3691C310.869 85.5879 310.979 85.8477 311.041 86.1484C311.08 86.3438 311.1 86.6855 311.1 87.1738V91H310.045V87.2148C310.045 86.7852 310.004 86.4648 309.922 86.2539C309.84 86.0391 309.693 85.8691 309.482 85.7441C309.275 85.6152 309.031 85.5508 308.75 85.5508C308.301 85.5508 307.912 85.6934 307.584 85.9785C307.26 86.2637 307.098 86.8047 307.098 87.6016V91H306.043ZM315.325 90.0566L315.478 90.9883C315.181 91.0508 314.915 91.082 314.681 91.082C314.298 91.082 314.001 91.0215 313.79 90.9004C313.579 90.7793 313.431 90.6211 313.345 90.4258C313.259 90.2266 313.216 89.8105 313.216 89.1777V85.5977H312.443V84.7773H313.216V83.2363L314.265 82.6035V84.7773H315.325V85.5977H314.265V89.2363C314.265 89.5371 314.282 89.7305 314.318 89.8164C314.357 89.9023 314.417 89.9707 314.499 90.0215C314.585 90.0723 314.706 90.0977 314.863 90.0977C314.98 90.0977 315.134 90.084 315.325 90.0566ZM316.662 91V82.4102H317.717V85.4922C318.209 84.9219 318.83 84.6367 319.58 84.6367C320.041 84.6367 320.442 84.7285 320.782 84.9121C321.121 85.0918 321.364 85.3418 321.508 85.6621C321.657 85.9824 321.731 86.4473 321.731 87.0566V91H320.676V87.0566C320.676 86.5293 320.561 86.1465 320.33 85.9082C320.104 85.666 319.782 85.5449 319.364 85.5449C319.051 85.5449 318.756 85.627 318.479 85.791C318.205 85.9512 318.01 86.1699 317.893 86.4473C317.776 86.7246 317.717 87.1074 317.717 87.5957V91H316.662Z" fill="black"/>
<rect x="123.5" y="75.5" width="224" height="24" stroke="#007DC6"/>
<path d="M49.4795 175.05L40.056 185.122L49.6358 195.55" stroke="#ADADAD" stroke-width="2"/>
<path d="M325.266 195.5L334.766 185.5L325.266 175" stroke="#3070C7" stroke-width="2"/>
<defs>
<filter id="filter0_d" x="-20" y="0" width="415" height="364" filterUnits="userSpaceOnUse" color-interpolation-filters="sRGB">
<feFlood flood-opacity="0" result="BackgroundImageFix"/>
<feColorMatrix in="SourceAlpha" type="matrix" values="0 0 0 0 0 0 0 0 0 0 0 0 0 0 0 0 0 0 127 0"/>
<feOffset dy="-2"/>
<feGaussianBlur stdDeviation="10"/>
<feColorMatrix type="matrix" values="0 0 0 0 0 0 0 0 0 0 0 0 0 0 0 0 0 0 0.1 0"/>
<feBlend mode="normal" in2="BackgroundImageFix" result="effect1_dropShadow"/>
<feBlend mode="normal" in="SourceGraphic" in2="effect1_dropShadow" result="shape"/>
</filter>
</defs>
</svg>
