<svg width="15" height="14" viewBox="0 0 15 14" fill="none" xmlns="http://www.w3.org/2000/svg">
<path d="M14.4333 7C14.4333 10.5599 11.3451 13.5 7.46667 13.5C3.5882 13.5 0.5 10.5599 0.5 7C0.5 3.44006 3.5882 0.5 7.46667 0.5C11.3451 0.5 14.4333 3.44006 14.4333 7Z" stroke="black"/>
<path d="M6.72949 9.7085C6.72526 9.55615 6.72314 9.44189 6.72314 9.36572C6.72314 8.91715 6.78662 8.52995 6.91357 8.2041C7.00667 7.95866 7.1569 7.7111 7.36426 7.46143C7.5166 7.27946 7.78955 7.01497 8.18311 6.66797C8.58089 6.31673 8.83903 6.03743 8.95752 5.83008C9.07601 5.62272 9.13525 5.39632 9.13525 5.15088C9.13525 4.70654 8.96175 4.31722 8.61475 3.98291C8.26774 3.64437 7.84245 3.4751 7.33887 3.4751C6.85221 3.4751 6.44596 3.62744 6.12012 3.93213C5.79427 4.23682 5.58057 4.71289 5.479 5.36035L4.30469 5.2207C4.41048 4.35319 4.72363 3.6888 5.24414 3.22754C5.76888 2.76628 6.46077 2.53564 7.31982 2.53564C8.22965 2.53564 8.9554 2.7832 9.49707 3.27832C10.0387 3.77344 10.3096 4.37223 10.3096 5.07471C10.3096 5.48096 10.2144 5.85547 10.0239 6.19824C9.8335 6.54102 9.4611 6.95785 8.90674 7.44873C8.53434 7.77881 8.29102 8.02214 8.17676 8.17871C8.0625 8.33529 7.97786 8.51514 7.92285 8.71826C7.86784 8.92139 7.8361 9.25146 7.82764 9.7085H6.72949ZM6.65967 12V10.6987H7.96094V12H6.65967Z" fill="black"/>
</svg>
