<svg width="43" height="43" viewBox="0 0 43 43" fill="none" xmlns="http://www.w3.org/2000/svg">
<rect width="42.8547" height="43" fill="#3070C7"/>
<path d="M28.0884 26.2205L27.0308 26.2518L26.6436 25.8618C27.9032 24.1288 28.6252 21.9062 28.5512 19.5138C28.3864 14.1792 24.357 9.97072 19.5508 10.1133C14.7445 10.256 10.9823 14.6957 11.1471 20.0303C11.3119 25.3648 15.3413 29.5734 20.1476 29.4307C22.303 29.3668 24.2573 28.4313 25.7385 26.9297L26.1129 27.3351L26.1491 28.509L33.0721 35.7252L34.9985 33.452L28.0884 26.2205ZM20.0557 26.4588C16.7222 26.5578 13.9389 23.6508 13.8246 19.9508C13.7103 16.2508 16.309 13.1842 19.6426 13.0853C22.9761 12.9863 25.7594 15.8932 25.8737 19.5933C25.988 23.2933 23.3893 26.3599 20.0557 26.4588Z" fill="white"/>
</svg>
