<svg width="72" height="14" viewBox="0 0 72 14" fill="none" xmlns="http://www.w3.org/2000/svg">
<path d="M7.13506 1L8.78252 4.95611L13 5.51022L9.8009 8.182L10.8673 13L7.13499 10.1735L2.86952 13L4.46907 8.182L1 5.51022L5.48745 4.95611L7.13506 1Z" fill="#333333" stroke="#333333" stroke-linecap="round" stroke-linejoin="round"/>
<path d="M65.1351 1L66.7825 4.95611L71 5.51022L67.8009 8.182L68.8673 13L65.135 10.1735L60.8695 13L62.4691 8.182L59 5.51022L63.4875 4.95611L65.1351 1Z" fill="#333333" stroke="#333333" stroke-linecap="round" stroke-linejoin="round"/>
<path d="M50.1351 1L51.7825 4.95611L56 5.51022L52.8009 8.182L53.8673 13L50.135 10.1735L45.8695 13L47.4691 8.182L44 5.51022L48.4875 4.95611L50.1351 1Z" fill="#333333" stroke="#333333" stroke-linecap="round" stroke-linejoin="round"/>
<path d="M36.1351 1L37.7825 4.95611L42 5.51022L38.8009 8.182L39.8673 13L36.135 10.1735L31.8695 13L33.4691 8.182L30 5.51022L34.4875 4.95611L36.1351 1Z" fill="#333333" stroke="#333333" stroke-linecap="round" stroke-linejoin="round"/>
<path d="M21.1351 1L22.7825 4.95611L27 5.51022L23.8009 8.182L24.8673 13L21.135 10.1735L16.8695 13L18.4691 8.182L15 5.51022L19.4875 4.95611L21.1351 1Z" fill="#333333" stroke="#333333" stroke-linecap="round" stroke-linejoin="round"/>
</svg>
